<svg xmlns="http://www.w3.org/2000/svg" version="1.1" xmlns:xlink="http://www.w3.org/1999/xlink" xmlns:svgjs="http://svgjs.dev/svgjs" width="1920" height="1200" preserveAspectRatio="none" viewBox="0 0 1920 1200"><g mask="url(&quot;#SvgjsMask3731&quot;)" fill="none"><path d="M36.29 -19.32L81.32 6.68L81.32 58.68L36.29 84.68L-8.74 58.68L-8.74 6.68zM81.32 214.68L126.36 240.68L126.36 292.68L81.32 318.68L36.29 292.68L36.29 240.68zM81.32 370.68L126.36 396.68L126.36 448.68L81.32 474.68L36.29 448.68L36.29 396.68zM36.29 448.68L81.32 474.68L81.32 526.68L36.29 552.68L-8.74 526.68L-8.74 474.68zM36.29 604.68L81.32 630.68L81.32 682.68L36.29 708.68L-8.74 682.68L-8.74 630.68zM81.32 682.68L126.36 708.68L126.36 760.68L81.32 786.68L36.29 760.68L36.29 708.68zM36.29 760.68L81.32 786.68L81.32 838.68L36.29 864.68L-8.74 838.68L-8.74 786.68zM81.32 994.68L126.36 1020.68L126.36 1072.68L81.32 1098.68L36.29 1072.68L36.29 1020.68zM126.36 -19.32L171.39 6.68L171.39 58.68L126.36 84.68L81.32 58.68L81.32 6.68zM126.36 292.68L171.39 318.68L171.39 370.68L126.36 396.68L81.32 370.68L81.32 318.68zM126.36 448.68L171.39 474.68L171.39 526.68L126.36 552.68L81.32 526.68L81.32 474.68zM171.39 526.68L216.43 552.68L216.43 604.68L171.39 630.68L126.36 604.68L126.36 552.68zM261.46 58.68L306.5 84.68L306.5 136.68L261.46 162.68L216.43 136.68L216.43 84.68zM216.43 292.68L261.46 318.68L261.46 370.68L216.43 396.68L171.39 370.68L171.39 318.68zM261.46 526.68L306.5 552.68L306.5 604.68L261.46 630.68L216.43 604.68L216.43 552.68zM216.43 760.68L261.46 786.68L261.46 838.68L216.43 864.68L171.39 838.68L171.39 786.68zM261.46 838.68L306.5 864.68L306.5 916.68L261.46 942.68L216.43 916.68L216.43 864.68zM216.43 1072.68L261.46 1098.68L261.46 1150.68L216.43 1176.68L171.39 1150.68L171.39 1098.68zM306.5 -19.32L351.53 6.68L351.53 58.68L306.5 84.68L261.46 58.68L261.46 6.68zM306.5 136.68L351.53 162.68L351.53 214.68L306.5 240.68L261.46 214.68L261.46 162.68zM351.53 214.68L396.57 240.68L396.57 292.68L351.53 318.68L306.5 292.68L306.5 240.68zM351.53 370.68L396.57 396.68L396.57 448.68L351.53 474.68L306.5 448.68L306.5 396.68zM351.53 838.68L396.57 864.68L396.57 916.68L351.53 942.68L306.5 916.68L306.5 864.68zM306.5 916.68L351.53 942.68L351.53 994.68L306.5 1020.68L261.46 994.68L261.46 942.68zM351.53 1150.68L396.57 1176.68L396.57 1228.68L351.53 1254.68L306.5 1228.68L306.5 1176.68zM396.57 -19.32L441.6 6.68L441.6 58.68L396.57 84.68L351.53 58.68L351.53 6.68zM441.6 214.68L486.64 240.68L486.64 292.68L441.6 318.68L396.57 292.68L396.57 240.68zM396.57 292.68L441.6 318.68L441.6 370.68L396.57 396.68L351.53 370.68L351.53 318.68zM441.6 526.68L486.64 552.68L486.64 604.68L441.6 630.68L396.57 604.68L396.57 552.68zM396.57 604.68L441.6 630.68L441.6 682.68L396.57 708.68L351.53 682.68L351.53 630.68zM396.57 760.68L441.6 786.68L441.6 838.68L396.57 864.68L351.53 838.68L351.53 786.68zM441.6 994.68L486.64 1020.68L486.64 1072.68L441.6 1098.68L396.57 1072.68L396.57 1020.68zM396.57 1072.68L441.6 1098.68L441.6 1150.68L396.57 1176.68L351.53 1150.68L351.53 1098.68zM486.64 136.68L531.67 162.68L531.67 214.68L486.64 240.68L441.6 214.68L441.6 162.68zM531.67 214.68L576.71 240.68L576.71 292.68L531.67 318.68L486.64 292.68L486.64 240.68zM486.64 292.68L531.67 318.68L531.67 370.68L486.64 396.68L441.6 370.68L441.6 318.68zM486.64 448.68L531.67 474.68L531.67 526.68L486.64 552.68L441.6 526.68L441.6 474.68zM486.64 760.68L531.67 786.68L531.67 838.68L486.64 864.68L441.6 838.68L441.6 786.68zM531.67 838.68L576.71 864.68L576.71 916.68L531.67 942.68L486.64 916.68L486.64 864.68zM531.67 1150.68L576.71 1176.68L576.71 1228.68L531.67 1254.68L486.64 1228.68L486.64 1176.68zM576.71 136.68L621.74 162.68L621.74 214.68L576.71 240.68L531.67 214.68L531.67 162.68zM576.71 292.68L621.74 318.68L621.74 370.68L576.71 396.68L531.67 370.68L531.67 318.68zM576.71 604.68L621.74 630.68L621.74 682.68L576.71 708.68L531.67 682.68L531.67 630.68zM621.74 682.68L666.77 708.68L666.77 760.68L621.74 786.68L576.71 760.68L576.71 708.68zM576.71 760.68L621.74 786.68L621.74 838.68L576.71 864.68L531.67 838.68L531.67 786.68zM621.74 838.68L666.77 864.68L666.77 916.68L621.74 942.68L576.71 916.68L576.71 864.68zM576.71 1072.68L621.74 1098.68L621.74 1150.68L576.71 1176.68L531.67 1150.68L531.67 1098.68zM666.77 -19.32L711.81 6.68L711.81 58.68L666.77 84.68L621.74 58.68L621.74 6.68zM711.81 58.68L756.84 84.68L756.84 136.68L711.81 162.68L666.77 136.68L666.77 84.68zM711.81 214.68L756.84 240.68L756.84 292.68L711.81 318.68L666.77 292.68L666.77 240.68zM666.77 292.68L711.81 318.68L711.81 370.68L666.77 396.68L621.74 370.68L621.74 318.68zM666.77 448.68L711.81 474.68L711.81 526.68L666.77 552.68L621.74 526.68L621.74 474.68zM666.77 604.68L711.81 630.68L711.81 682.68L666.77 708.68L621.74 682.68L621.74 630.68zM711.81 838.68L756.84 864.68L756.84 916.68L711.81 942.68L666.77 916.68L666.77 864.68zM666.77 1072.68L711.81 1098.68L711.81 1150.68L666.77 1176.68L621.74 1150.68L621.74 1098.68zM756.84 -19.32L801.88 6.68L801.88 58.68L756.84 84.68L711.81 58.68L711.81 6.68zM801.88 58.68L846.91 84.68L846.91 136.68L801.88 162.68L756.84 136.68L756.84 84.68zM756.84 292.68L801.88 318.68L801.88 370.68L756.84 396.68L711.81 370.68L711.81 318.68zM801.88 526.68L846.91 552.68L846.91 604.68L801.88 630.68L756.84 604.68L756.84 552.68zM756.84 604.68L801.88 630.68L801.88 682.68L756.84 708.68L711.81 682.68L711.81 630.68zM801.88 682.68L846.91 708.68L846.91 760.68L801.88 786.68L756.84 760.68L756.84 708.68zM756.84 760.68L801.88 786.68L801.88 838.68L756.84 864.68L711.81 838.68L711.81 786.68zM801.88 838.68L846.91 864.68L846.91 916.68L801.88 942.68L756.84 916.68L756.84 864.68zM801.88 994.68L846.91 1020.68L846.91 1072.68L801.88 1098.68L756.84 1072.68L756.84 1020.68zM756.84 1072.68L801.88 1098.68L801.88 1150.68L756.84 1176.68L711.81 1150.68L711.81 1098.68zM801.88 1150.68L846.91 1176.68L846.91 1228.68L801.88 1254.68L756.84 1228.68L756.84 1176.68zM846.91 -19.32L891.95 6.68L891.95 58.68L846.91 84.68L801.88 58.68L801.88 6.68zM891.95 58.68L936.98 84.68L936.98 136.68L891.95 162.68L846.91 136.68L846.91 84.68zM846.91 136.68L891.95 162.68L891.95 214.68L846.91 240.68L801.88 214.68L801.88 162.68zM891.95 214.68L936.98 240.68L936.98 292.68L891.95 318.68L846.91 292.68L846.91 240.68zM891.95 526.68L936.98 552.68L936.98 604.68L891.95 630.68L846.91 604.68L846.91 552.68zM846.91 604.68L891.95 630.68L891.95 682.68L846.91 708.68L801.88 682.68L801.88 630.68zM891.95 682.68L936.98 708.68L936.98 760.68L891.95 786.68L846.91 760.68L846.91 708.68zM846.91 916.68L891.95 942.68L891.95 994.68L846.91 1020.68L801.88 994.68L801.88 942.68zM891.95 994.68L936.98 1020.68L936.98 1072.68L891.95 1098.68L846.91 1072.68L846.91 1020.68zM982.02 58.68L1027.05 84.68L1027.05 136.68L982.02 162.68L936.98 136.68L936.98 84.68zM936.98 136.68L982.02 162.68L982.02 214.68L936.98 240.68L891.95 214.68L891.95 162.68zM982.02 370.68L1027.05 396.68L1027.05 448.68L982.02 474.68L936.98 448.68L936.98 396.68zM982.02 526.68L1027.05 552.68L1027.05 604.68L982.02 630.68L936.98 604.68L936.98 552.68zM936.98 604.68L982.02 630.68L982.02 682.68L936.98 708.68L891.95 682.68L891.95 630.68zM936.98 916.68L982.02 942.68L982.02 994.68L936.98 1020.68L891.95 994.68L891.95 942.68zM1027.05 136.68L1072.09 162.68L1072.09 214.68L1027.05 240.68L982.02 214.68L982.02 162.68zM1072.09 214.68L1117.12 240.68L1117.12 292.68L1072.09 318.68L1027.05 292.68L1027.05 240.68zM1027.05 292.68L1072.09 318.68L1072.09 370.68L1027.05 396.68L982.02 370.68L982.02 318.68zM1027.05 448.68L1072.09 474.68L1072.09 526.68L1027.05 552.68L982.02 526.68L982.02 474.68zM1027.05 604.68L1072.09 630.68L1072.09 682.68L1027.05 708.68L982.02 682.68L982.02 630.68zM1072.09 994.68L1117.12 1020.68L1117.12 1072.68L1072.09 1098.68L1027.05 1072.68L1027.05 1020.68zM1072.09 1150.68L1117.12 1176.68L1117.12 1228.68L1072.09 1254.68L1027.05 1228.68L1027.05 1176.68zM1162.15 214.68L1207.19 240.68L1207.19 292.68L1162.15 318.68L1117.12 292.68L1117.12 240.68zM1117.12 448.68L1162.15 474.68L1162.15 526.68L1117.12 552.68L1072.09 526.68L1072.09 474.68zM1162.15 682.68L1207.19 708.68L1207.19 760.68L1162.15 786.68L1117.12 760.68L1117.12 708.68zM1117.12 760.68L1162.15 786.68L1162.15 838.68L1117.12 864.68L1072.09 838.68L1072.09 786.68zM1162.15 838.68L1207.19 864.68L1207.19 916.68L1162.15 942.68L1117.12 916.68L1117.12 864.68zM1162.15 994.68L1207.19 1020.68L1207.19 1072.68L1162.15 1098.68L1117.12 1072.68L1117.12 1020.68zM1207.19 -19.32L1252.22 6.68L1252.22 58.68L1207.19 84.68L1162.15 58.68L1162.15 6.68zM1252.22 370.68L1297.26 396.68L1297.26 448.68L1252.22 474.68L1207.19 448.68L1207.19 396.68zM1207.19 448.68L1252.22 474.68L1252.22 526.68L1207.19 552.68L1162.15 526.68L1162.15 474.68zM1252.22 526.68L1297.26 552.68L1297.26 604.68L1252.22 630.68L1207.19 604.68L1207.19 552.68zM1207.19 760.68L1252.22 786.68L1252.22 838.68L1207.19 864.68L1162.15 838.68L1162.15 786.68zM1252.22 838.68L1297.26 864.68L1297.26 916.68L1252.22 942.68L1207.19 916.68L1207.19 864.68zM1252.22 994.68L1297.26 1020.68L1297.26 1072.68L1252.22 1098.68L1207.19 1072.68L1207.19 1020.68zM1207.19 1072.68L1252.22 1098.68L1252.22 1150.68L1207.19 1176.68L1162.15 1150.68L1162.15 1098.68zM1342.29 214.68L1387.33 240.68L1387.33 292.68L1342.29 318.68L1297.26 292.68L1297.26 240.68zM1297.26 292.68L1342.29 318.68L1342.29 370.68L1297.26 396.68L1252.22 370.68L1252.22 318.68zM1297.26 448.68L1342.29 474.68L1342.29 526.68L1297.26 552.68L1252.22 526.68L1252.22 474.68zM1297.26 604.68L1342.29 630.68L1342.29 682.68L1297.26 708.68L1252.22 682.68L1252.22 630.68zM1297.26 760.68L1342.29 786.68L1342.29 838.68L1297.26 864.68L1252.22 838.68L1252.22 786.68zM1342.29 838.68L1387.33 864.68L1387.33 916.68L1342.29 942.68L1297.26 916.68L1297.26 864.68zM1297.26 916.68L1342.29 942.68L1342.29 994.68L1297.26 1020.68L1252.22 994.68L1252.22 942.68zM1342.29 1150.68L1387.33 1176.68L1387.33 1228.68L1342.29 1254.68L1297.26 1228.68L1297.26 1176.68zM1432.36 58.68L1477.4 84.68L1477.4 136.68L1432.36 162.68L1387.33 136.68L1387.33 84.68zM1432.36 214.68L1477.4 240.68L1477.4 292.68L1432.36 318.68L1387.33 292.68L1387.33 240.68zM1432.36 682.68L1477.4 708.68L1477.4 760.68L1432.36 786.68L1387.33 760.68L1387.33 708.68zM1432.36 994.68L1477.4 1020.68L1477.4 1072.68L1432.36 1098.68L1387.33 1072.68L1387.33 1020.68zM1387.33 1072.68L1432.36 1098.68L1432.36 1150.68L1387.33 1176.68L1342.29 1150.68L1342.29 1098.68zM1477.4 -19.32L1522.43 6.68L1522.43 58.68L1477.4 84.68L1432.36 58.68L1432.36 6.68zM1522.43 214.68L1567.47 240.68L1567.47 292.68L1522.43 318.68L1477.4 292.68L1477.4 240.68zM1522.43 370.68L1567.47 396.68L1567.47 448.68L1522.43 474.68L1477.4 448.68L1477.4 396.68zM1477.4 448.68L1522.43 474.68L1522.43 526.68L1477.4 552.68L1432.36 526.68L1432.36 474.68zM1477.4 604.68L1522.43 630.68L1522.43 682.68L1477.4 708.68L1432.36 682.68L1432.36 630.68zM1477.4 760.68L1522.43 786.68L1522.43 838.68L1477.4 864.68L1432.36 838.68L1432.36 786.68zM1522.43 838.68L1567.47 864.68L1567.47 916.68L1522.43 942.68L1477.4 916.68L1477.4 864.68zM1522.43 994.68L1567.47 1020.68L1567.47 1072.68L1522.43 1098.68L1477.4 1072.68L1477.4 1020.68zM1612.5 214.68L1657.54 240.68L1657.54 292.68L1612.5 318.68L1567.47 292.68L1567.47 240.68zM1567.47 292.68L1612.5 318.68L1612.5 370.68L1567.47 396.68L1522.43 370.68L1522.43 318.68zM1612.5 370.68L1657.54 396.68L1657.54 448.68L1612.5 474.68L1567.47 448.68L1567.47 396.68zM1567.47 448.68L1612.5 474.68L1612.5 526.68L1567.47 552.68L1522.43 526.68L1522.43 474.68zM1612.5 526.68L1657.54 552.68L1657.54 604.68L1612.5 630.68L1567.47 604.68L1567.47 552.68zM1567.47 604.68L1612.5 630.68L1612.5 682.68L1567.47 708.68L1522.43 682.68L1522.43 630.68zM1567.47 760.68L1612.5 786.68L1612.5 838.68L1567.47 864.68L1522.43 838.68L1522.43 786.68zM1612.5 838.68L1657.54 864.68L1657.54 916.68L1612.5 942.68L1567.47 916.68L1567.47 864.68zM1612.5 994.68L1657.54 1020.68L1657.54 1072.68L1612.5 1098.68L1567.47 1072.68L1567.47 1020.68zM1657.54 -19.32L1702.57 6.68L1702.57 58.68L1657.54 84.68L1612.5 58.68L1612.5 6.68zM1702.57 214.68L1747.6 240.68L1747.6 292.68L1702.57 318.68L1657.54 292.68L1657.54 240.68zM1657.54 292.68L1702.57 318.68L1702.57 370.68L1657.54 396.68L1612.5 370.68L1612.5 318.68zM1702.57 370.68L1747.6 396.68L1747.6 448.68L1702.57 474.68L1657.54 448.68L1657.54 396.68zM1657.54 448.68L1702.57 474.68L1702.57 526.68L1657.54 552.68L1612.5 526.68L1612.5 474.68zM1702.57 526.68L1747.6 552.68L1747.6 604.68L1702.57 630.68L1657.54 604.68L1657.54 552.68zM1702.57 838.68L1747.6 864.68L1747.6 916.68L1702.57 942.68L1657.54 916.68L1657.54 864.68zM1702.57 1150.68L1747.6 1176.68L1747.6 1228.68L1702.57 1254.68L1657.54 1228.68L1657.54 1176.68zM1792.64 370.68L1837.67 396.68L1837.67 448.68L1792.64 474.68L1747.6 448.68L1747.6 396.68zM1747.6 760.68L1792.64 786.68L1792.64 838.68L1747.6 864.68L1702.57 838.68L1702.57 786.68zM1792.64 838.68L1837.67 864.68L1837.67 916.68L1792.64 942.68L1747.6 916.68L1747.6 864.68zM1747.6 916.68L1792.64 942.68L1792.64 994.68L1747.6 1020.68L1702.57 994.68L1702.57 942.68zM1792.64 994.68L1837.67 1020.68L1837.67 1072.68L1792.64 1098.68L1747.6 1072.68L1747.6 1020.68zM1747.6 1072.68L1792.64 1098.68L1792.64 1150.68L1747.6 1176.68L1702.57 1150.68L1702.57 1098.68zM1792.64 1150.68L1837.67 1176.68L1837.67 1228.68L1792.64 1254.68L1747.6 1228.68L1747.6 1176.68zM1882.71 214.68L1927.74 240.68L1927.74 292.68L1882.71 318.68L1837.67 292.68L1837.67 240.68zM1837.67 292.68L1882.71 318.68L1882.71 370.68L1837.67 396.68L1792.64 370.68L1792.64 318.68zM1837.67 448.68L1882.71 474.68L1882.71 526.68L1837.67 552.68L1792.64 526.68L1792.64 474.68zM1882.71 526.68L1927.74 552.68L1927.74 604.68L1882.71 630.68L1837.67 604.68L1837.67 552.68zM1837.67 604.68L1882.71 630.68L1882.71 682.68L1837.67 708.68L1792.64 682.68L1792.64 630.68zM1882.71 682.68L1927.74 708.68L1927.74 760.68L1882.71 786.68L1837.67 760.68L1837.67 708.68zM1837.67 760.68L1882.71 786.68L1882.71 838.68L1837.67 864.68L1792.64 838.68L1792.64 786.68zM1837.67 916.68L1882.71 942.68L1882.71 994.68L1837.67 1020.68L1792.64 994.68L1792.64 942.68zM1882.71 994.68L1927.74 1020.68L1927.74 1072.68L1882.71 1098.68L1837.67 1072.68L1837.67 1020.68zM1837.67 1072.68L1882.71 1098.68L1882.71 1150.68L1837.67 1176.68L1792.64 1150.68L1792.64 1098.68zM1882.71 1150.68L1927.74 1176.68L1927.74 1228.68L1882.71 1254.68L1837.67 1228.68L1837.67 1176.68zM1972.78 58.68L2017.81 84.68L2017.81 136.68L1972.78 162.68L1927.74 136.68L1927.74 84.68zM1927.74 136.68L1972.78 162.68L1972.78 214.68L1927.74 240.68L1882.71 214.68L1882.71 162.68zM1927.74 292.68L1972.78 318.68L1972.78 370.68L1927.74 396.68L1882.71 370.68L1882.71 318.68zM1972.78 370.68L2017.81 396.68L2017.81 448.68L1972.78 474.68L1927.74 448.68L1927.74 396.68zM1927.74 604.68L1972.78 630.68L1972.78 682.68L1927.74 708.68L1882.71 682.68L1882.71 630.68zM1972.78 838.68L2017.81 864.68L2017.81 916.68L1972.78 942.68L1927.74 916.68L1927.74 864.68zM1927.74 1072.68L1972.78 1098.68L1972.78 1150.68L1927.74 1176.68L1882.71 1150.68L1882.71 1098.68zM1972.78 1150.68L2017.81 1176.68L2017.81 1228.68L1972.78 1254.68L1927.74 1228.68L1927.74 1176.68z" stroke="url(&quot;#SvgjsRadialGradient3732&quot;)" stroke-width="2"></path><path d="M31.09 -19.32 a5.2 5.2 0 1 0 10.4 0 a5.2 5.2 0 1 0 -10.4 0zM76.12 6.68 a5.2 5.2 0 1 0 10.4 0 a5.2 5.2 0 1 0 -10.4 0zM76.12 58.68 a5.2 5.2 0 1 0 10.4 0 a5.2 5.2 0 1 0 -10.4 0zM31.09 84.68 a5.2 5.2 0 1 0 10.4 0 a5.2 5.2 0 1 0 -10.4 0zM-13.94 58.68 a5.2 5.2 0 1 0 10.4 0 a5.2 5.2 0 1 0 -10.4 0zM-13.94 6.68 a5.2 5.2 0 1 0 10.4 0 a5.2 5.2 0 1 0 -10.4 0zM76.12 214.68 a5.2 5.2 0 1 0 10.4 0 a5.2 5.2 0 1 0 -10.4 0zM121.16 240.68 a5.2 5.2 0 1 0 10.4 0 a5.2 5.2 0 1 0 -10.4 0zM121.16 292.68 a5.2 5.2 0 1 0 10.4 0 a5.2 5.2 0 1 0 -10.4 0zM76.12 318.68 a5.2 5.2 0 1 0 10.4 0 a5.2 5.2 0 1 0 -10.4 0zM31.09 292.68 a5.2 5.2 0 1 0 10.4 0 a5.2 5.2 0 1 0 -10.4 0zM31.09 240.68 a5.2 5.2 0 1 0 10.4 0 a5.2 5.2 0 1 0 -10.4 0zM76.12 370.68 a5.2 5.2 0 1 0 10.4 0 a5.2 5.2 0 1 0 -10.4 0zM121.16 396.68 a5.2 5.2 0 1 0 10.4 0 a5.2 5.2 0 1 0 -10.4 0zM121.16 448.68 a5.2 5.2 0 1 0 10.4 0 a5.2 5.2 0 1 0 -10.4 0zM76.12 474.68 a5.2 5.2 0 1 0 10.4 0 a5.2 5.2 0 1 0 -10.4 0zM31.09 448.68 a5.2 5.2 0 1 0 10.4 0 a5.2 5.2 0 1 0 -10.4 0zM31.09 396.68 a5.2 5.2 0 1 0 10.4 0 a5.2 5.2 0 1 0 -10.4 0zM76.12 526.68 a5.2 5.2 0 1 0 10.4 0 a5.2 5.2 0 1 0 -10.4 0zM31.09 552.68 a5.2 5.2 0 1 0 10.4 0 a5.2 5.2 0 1 0 -10.4 0zM-13.94 526.68 a5.2 5.2 0 1 0 10.4 0 a5.2 5.2 0 1 0 -10.4 0zM-13.94 474.68 a5.2 5.2 0 1 0 10.4 0 a5.2 5.2 0 1 0 -10.4 0zM31.09 604.68 a5.2 5.2 0 1 0 10.4 0 a5.2 5.2 0 1 0 -10.4 0zM76.12 630.68 a5.2 5.2 0 1 0 10.4 0 a5.2 5.2 0 1 0 -10.4 0zM76.12 682.68 a5.2 5.2 0 1 0 10.4 0 a5.2 5.2 0 1 0 -10.4 0zM31.09 708.68 a5.2 5.2 0 1 0 10.4 0 a5.2 5.2 0 1 0 -10.4 0zM-13.94 682.68 a5.2 5.2 0 1 0 10.4 0 a5.2 5.2 0 1 0 -10.4 0zM-13.94 630.68 a5.2 5.2 0 1 0 10.4 0 a5.2 5.2 0 1 0 -10.4 0zM121.16 708.68 a5.2 5.2 0 1 0 10.4 0 a5.2 5.2 0 1 0 -10.4 0zM121.16 760.68 a5.2 5.2 0 1 0 10.4 0 a5.2 5.2 0 1 0 -10.4 0zM76.12 786.68 a5.2 5.2 0 1 0 10.4 0 a5.2 5.2 0 1 0 -10.4 0zM31.09 760.68 a5.2 5.2 0 1 0 10.4 0 a5.2 5.2 0 1 0 -10.4 0zM76.12 838.68 a5.2 5.2 0 1 0 10.4 0 a5.2 5.2 0 1 0 -10.4 0zM31.09 864.68 a5.2 5.2 0 1 0 10.4 0 a5.2 5.2 0 1 0 -10.4 0zM-13.94 838.68 a5.2 5.2 0 1 0 10.4 0 a5.2 5.2 0 1 0 -10.4 0zM-13.94 786.68 a5.2 5.2 0 1 0 10.4 0 a5.2 5.2 0 1 0 -10.4 0zM76.12 994.68 a5.2 5.2 0 1 0 10.4 0 a5.2 5.2 0 1 0 -10.4 0zM121.16 1020.68 a5.2 5.2 0 1 0 10.4 0 a5.2 5.2 0 1 0 -10.4 0zM121.16 1072.68 a5.2 5.2 0 1 0 10.4 0 a5.2 5.2 0 1 0 -10.4 0zM76.12 1098.68 a5.2 5.2 0 1 0 10.4 0 a5.2 5.2 0 1 0 -10.4 0zM31.09 1072.68 a5.2 5.2 0 1 0 10.4 0 a5.2 5.2 0 1 0 -10.4 0zM31.09 1020.68 a5.2 5.2 0 1 0 10.4 0 a5.2 5.2 0 1 0 -10.4 0zM121.16 -19.32 a5.2 5.2 0 1 0 10.4 0 a5.2 5.2 0 1 0 -10.4 0zM166.19 6.68 a5.2 5.2 0 1 0 10.4 0 a5.2 5.2 0 1 0 -10.4 0zM166.19 58.68 a5.2 5.2 0 1 0 10.4 0 a5.2 5.2 0 1 0 -10.4 0zM121.16 84.68 a5.2 5.2 0 1 0 10.4 0 a5.2 5.2 0 1 0 -10.4 0zM166.19 318.68 a5.2 5.2 0 1 0 10.4 0 a5.2 5.2 0 1 0 -10.4 0zM166.19 370.68 a5.2 5.2 0 1 0 10.4 0 a5.2 5.2 0 1 0 -10.4 0zM166.19 474.68 a5.2 5.2 0 1 0 10.4 0 a5.2 5.2 0 1 0 -10.4 0zM166.19 526.68 a5.2 5.2 0 1 0 10.4 0 a5.2 5.2 0 1 0 -10.4 0zM121.16 552.68 a5.2 5.2 0 1 0 10.4 0 a5.2 5.2 0 1 0 -10.4 0zM211.23 552.68 a5.2 5.2 0 1 0 10.4 0 a5.2 5.2 0 1 0 -10.4 0zM211.23 604.68 a5.2 5.2 0 1 0 10.4 0 a5.2 5.2 0 1 0 -10.4 0zM166.19 630.68 a5.2 5.2 0 1 0 10.4 0 a5.2 5.2 0 1 0 -10.4 0zM121.16 604.68 a5.2 5.2 0 1 0 10.4 0 a5.2 5.2 0 1 0 -10.4 0zM256.26 58.68 a5.2 5.2 0 1 0 10.4 0 a5.2 5.2 0 1 0 -10.4 0zM301.3 84.68 a5.2 5.2 0 1 0 10.4 0 a5.2 5.2 0 1 0 -10.4 0zM301.3 136.68 a5.2 5.2 0 1 0 10.4 0 a5.2 5.2 0 1 0 -10.4 0zM256.26 162.68 a5.2 5.2 0 1 0 10.4 0 a5.2 5.2 0 1 0 -10.4 0zM211.23 136.68 a5.2 5.2 0 1 0 10.4 0 a5.2 5.2 0 1 0 -10.4 0zM211.23 84.68 a5.2 5.2 0 1 0 10.4 0 a5.2 5.2 0 1 0 -10.4 0zM211.23 292.68 a5.2 5.2 0 1 0 10.4 0 a5.2 5.2 0 1 0 -10.4 0zM256.26 318.68 a5.2 5.2 0 1 0 10.4 0 a5.2 5.2 0 1 0 -10.4 0zM256.26 370.68 a5.2 5.2 0 1 0 10.4 0 a5.2 5.2 0 1 0 -10.4 0zM211.23 396.68 a5.2 5.2 0 1 0 10.4 0 a5.2 5.2 0 1 0 -10.4 0zM256.26 526.68 a5.2 5.2 0 1 0 10.4 0 a5.2 5.2 0 1 0 -10.4 0zM301.3 552.68 a5.2 5.2 0 1 0 10.4 0 a5.2 5.2 0 1 0 -10.4 0zM301.3 604.68 a5.2 5.2 0 1 0 10.4 0 a5.2 5.2 0 1 0 -10.4 0zM256.26 630.68 a5.2 5.2 0 1 0 10.4 0 a5.2 5.2 0 1 0 -10.4 0zM211.23 760.68 a5.2 5.2 0 1 0 10.4 0 a5.2 5.2 0 1 0 -10.4 0zM256.26 786.68 a5.2 5.2 0 1 0 10.4 0 a5.2 5.2 0 1 0 -10.4 0zM256.26 838.68 a5.2 5.2 0 1 0 10.4 0 a5.2 5.2 0 1 0 -10.4 0zM211.23 864.68 a5.2 5.2 0 1 0 10.4 0 a5.2 5.2 0 1 0 -10.4 0zM166.19 838.68 a5.2 5.2 0 1 0 10.4 0 a5.2 5.2 0 1 0 -10.4 0zM166.19 786.68 a5.2 5.2 0 1 0 10.4 0 a5.2 5.2 0 1 0 -10.4 0zM301.3 864.68 a5.2 5.2 0 1 0 10.4 0 a5.2 5.2 0 1 0 -10.4 0zM301.3 916.68 a5.2 5.2 0 1 0 10.4 0 a5.2 5.2 0 1 0 -10.4 0zM256.26 942.68 a5.2 5.2 0 1 0 10.4 0 a5.2 5.2 0 1 0 -10.4 0zM211.23 916.68 a5.2 5.2 0 1 0 10.4 0 a5.2 5.2 0 1 0 -10.4 0zM211.23 1072.68 a5.2 5.2 0 1 0 10.4 0 a5.2 5.2 0 1 0 -10.4 0zM256.26 1098.68 a5.2 5.2 0 1 0 10.4 0 a5.2 5.2 0 1 0 -10.4 0zM256.26 1150.68 a5.2 5.2 0 1 0 10.4 0 a5.2 5.2 0 1 0 -10.4 0zM211.23 1176.68 a5.2 5.2 0 1 0 10.4 0 a5.2 5.2 0 1 0 -10.4 0zM166.19 1150.68 a5.2 5.2 0 1 0 10.4 0 a5.2 5.2 0 1 0 -10.4 0zM166.19 1098.68 a5.2 5.2 0 1 0 10.4 0 a5.2 5.2 0 1 0 -10.4 0zM301.3 -19.32 a5.2 5.2 0 1 0 10.4 0 a5.2 5.2 0 1 0 -10.4 0zM346.33 6.68 a5.2 5.2 0 1 0 10.4 0 a5.2 5.2 0 1 0 -10.4 0zM346.33 58.68 a5.2 5.2 0 1 0 10.4 0 a5.2 5.2 0 1 0 -10.4 0zM256.26 6.68 a5.2 5.2 0 1 0 10.4 0 a5.2 5.2 0 1 0 -10.4 0zM346.33 162.68 a5.2 5.2 0 1 0 10.4 0 a5.2 5.2 0 1 0 -10.4 0zM346.33 214.68 a5.2 5.2 0 1 0 10.4 0 a5.2 5.2 0 1 0 -10.4 0zM301.3 240.68 a5.2 5.2 0 1 0 10.4 0 a5.2 5.2 0 1 0 -10.4 0zM256.26 214.68 a5.2 5.2 0 1 0 10.4 0 a5.2 5.2 0 1 0 -10.4 0zM391.37 240.68 a5.2 5.2 0 1 0 10.4 0 a5.2 5.2 0 1 0 -10.4 0zM391.37 292.68 a5.2 5.2 0 1 0 10.4 0 a5.2 5.2 0 1 0 -10.4 0zM346.33 318.68 a5.2 5.2 0 1 0 10.4 0 a5.2 5.2 0 1 0 -10.4 0zM301.3 292.68 a5.2 5.2 0 1 0 10.4 0 a5.2 5.2 0 1 0 -10.4 0zM346.33 370.68 a5.2 5.2 0 1 0 10.4 0 a5.2 5.2 0 1 0 -10.4 0zM391.37 396.68 a5.2 5.2 0 1 0 10.4 0 a5.2 5.2 0 1 0 -10.4 0zM391.37 448.68 a5.2 5.2 0 1 0 10.4 0 a5.2 5.2 0 1 0 -10.4 0zM346.33 474.68 a5.2 5.2 0 1 0 10.4 0 a5.2 5.2 0 1 0 -10.4 0zM301.3 448.68 a5.2 5.2 0 1 0 10.4 0 a5.2 5.2 0 1 0 -10.4 0zM301.3 396.68 a5.2 5.2 0 1 0 10.4 0 a5.2 5.2 0 1 0 -10.4 0zM346.33 838.68 a5.2 5.2 0 1 0 10.4 0 a5.2 5.2 0 1 0 -10.4 0zM391.37 864.68 a5.2 5.2 0 1 0 10.4 0 a5.2 5.2 0 1 0 -10.4 0zM391.37 916.68 a5.2 5.2 0 1 0 10.4 0 a5.2 5.2 0 1 0 -10.4 0zM346.33 942.68 a5.2 5.2 0 1 0 10.4 0 a5.2 5.2 0 1 0 -10.4 0zM346.33 994.68 a5.2 5.2 0 1 0 10.4 0 a5.2 5.2 0 1 0 -10.4 0zM301.3 1020.68 a5.2 5.2 0 1 0 10.4 0 a5.2 5.2 0 1 0 -10.4 0zM256.26 994.68 a5.2 5.2 0 1 0 10.4 0 a5.2 5.2 0 1 0 -10.4 0zM346.33 1150.68 a5.2 5.2 0 1 0 10.4 0 a5.2 5.2 0 1 0 -10.4 0zM391.37 1176.68 a5.2 5.2 0 1 0 10.4 0 a5.2 5.2 0 1 0 -10.4 0zM391.37 1228.68 a5.2 5.2 0 1 0 10.4 0 a5.2 5.2 0 1 0 -10.4 0zM346.33 1254.68 a5.2 5.2 0 1 0 10.4 0 a5.2 5.2 0 1 0 -10.4 0zM301.3 1228.68 a5.2 5.2 0 1 0 10.4 0 a5.2 5.2 0 1 0 -10.4 0zM301.3 1176.68 a5.2 5.2 0 1 0 10.4 0 a5.2 5.2 0 1 0 -10.4 0zM391.37 -19.32 a5.2 5.2 0 1 0 10.4 0 a5.2 5.2 0 1 0 -10.4 0zM436.4 6.68 a5.2 5.2 0 1 0 10.4 0 a5.2 5.2 0 1 0 -10.4 0zM436.4 58.68 a5.2 5.2 0 1 0 10.4 0 a5.2 5.2 0 1 0 -10.4 0zM391.37 84.68 a5.2 5.2 0 1 0 10.4 0 a5.2 5.2 0 1 0 -10.4 0zM436.4 214.68 a5.2 5.2 0 1 0 10.4 0 a5.2 5.2 0 1 0 -10.4 0zM481.44 240.68 a5.2 5.2 0 1 0 10.4 0 a5.2 5.2 0 1 0 -10.4 0zM481.44 292.68 a5.2 5.2 0 1 0 10.4 0 a5.2 5.2 0 1 0 -10.4 0zM436.4 318.68 a5.2 5.2 0 1 0 10.4 0 a5.2 5.2 0 1 0 -10.4 0zM436.4 370.68 a5.2 5.2 0 1 0 10.4 0 a5.2 5.2 0 1 0 -10.4 0zM436.4 526.68 a5.2 5.2 0 1 0 10.4 0 a5.2 5.2 0 1 0 -10.4 0zM481.44 552.68 a5.2 5.2 0 1 0 10.4 0 a5.2 5.2 0 1 0 -10.4 0zM481.44 604.68 a5.2 5.2 0 1 0 10.4 0 a5.2 5.2 0 1 0 -10.4 0zM436.4 630.68 a5.2 5.2 0 1 0 10.4 0 a5.2 5.2 0 1 0 -10.4 0zM391.37 604.68 a5.2 5.2 0 1 0 10.4 0 a5.2 5.2 0 1 0 -10.4 0zM391.37 552.68 a5.2 5.2 0 1 0 10.4 0 a5.2 5.2 0 1 0 -10.4 0zM436.4 682.68 a5.2 5.2 0 1 0 10.4 0 a5.2 5.2 0 1 0 -10.4 0zM391.37 708.68 a5.2 5.2 0 1 0 10.4 0 a5.2 5.2 0 1 0 -10.4 0zM346.33 682.68 a5.2 5.2 0 1 0 10.4 0 a5.2 5.2 0 1 0 -10.4 0zM346.33 630.68 a5.2 5.2 0 1 0 10.4 0 a5.2 5.2 0 1 0 -10.4 0zM391.37 760.68 a5.2 5.2 0 1 0 10.4 0 a5.2 5.2 0 1 0 -10.4 0zM436.4 786.68 a5.2 5.2 0 1 0 10.4 0 a5.2 5.2 0 1 0 -10.4 0zM436.4 838.68 a5.2 5.2 0 1 0 10.4 0 a5.2 5.2 0 1 0 -10.4 0zM346.33 786.68 a5.2 5.2 0 1 0 10.4 0 a5.2 5.2 0 1 0 -10.4 0zM436.4 994.68 a5.2 5.2 0 1 0 10.4 0 a5.2 5.2 0 1 0 -10.4 0zM481.44 1020.68 a5.2 5.2 0 1 0 10.4 0 a5.2 5.2 0 1 0 -10.4 0zM481.44 1072.68 a5.2 5.2 0 1 0 10.4 0 a5.2 5.2 0 1 0 -10.4 0zM436.4 1098.68 a5.2 5.2 0 1 0 10.4 0 a5.2 5.2 0 1 0 -10.4 0zM391.37 1072.68 a5.2 5.2 0 1 0 10.4 0 a5.2 5.2 0 1 0 -10.4 0zM391.37 1020.68 a5.2 5.2 0 1 0 10.4 0 a5.2 5.2 0 1 0 -10.4 0zM436.4 1150.68 a5.2 5.2 0 1 0 10.4 0 a5.2 5.2 0 1 0 -10.4 0zM346.33 1098.68 a5.2 5.2 0 1 0 10.4 0 a5.2 5.2 0 1 0 -10.4 0zM481.44 136.68 a5.2 5.2 0 1 0 10.4 0 a5.2 5.2 0 1 0 -10.4 0zM526.47 162.68 a5.2 5.2 0 1 0 10.4 0 a5.2 5.2 0 1 0 -10.4 0zM526.47 214.68 a5.2 5.2 0 1 0 10.4 0 a5.2 5.2 0 1 0 -10.4 0zM436.4 162.68 a5.2 5.2 0 1 0 10.4 0 a5.2 5.2 0 1 0 -10.4 0zM571.51 240.68 a5.2 5.2 0 1 0 10.4 0 a5.2 5.2 0 1 0 -10.4 0zM571.51 292.68 a5.2 5.2 0 1 0 10.4 0 a5.2 5.2 0 1 0 -10.4 0zM526.47 318.68 a5.2 5.2 0 1 0 10.4 0 a5.2 5.2 0 1 0 -10.4 0zM526.47 370.68 a5.2 5.2 0 1 0 10.4 0 a5.2 5.2 0 1 0 -10.4 0zM481.44 396.68 a5.2 5.2 0 1 0 10.4 0 a5.2 5.2 0 1 0 -10.4 0zM481.44 448.68 a5.2 5.2 0 1 0 10.4 0 a5.2 5.2 0 1 0 -10.4 0zM526.47 474.68 a5.2 5.2 0 1 0 10.4 0 a5.2 5.2 0 1 0 -10.4 0zM526.47 526.68 a5.2 5.2 0 1 0 10.4 0 a5.2 5.2 0 1 0 -10.4 0zM436.4 474.68 a5.2 5.2 0 1 0 10.4 0 a5.2 5.2 0 1 0 -10.4 0zM481.44 760.68 a5.2 5.2 0 1 0 10.4 0 a5.2 5.2 0 1 0 -10.4 0zM526.47 786.68 a5.2 5.2 0 1 0 10.4 0 a5.2 5.2 0 1 0 -10.4 0zM526.47 838.68 a5.2 5.2 0 1 0 10.4 0 a5.2 5.2 0 1 0 -10.4 0zM481.44 864.68 a5.2 5.2 0 1 0 10.4 0 a5.2 5.2 0 1 0 -10.4 0zM571.51 864.68 a5.2 5.2 0 1 0 10.4 0 a5.2 5.2 0 1 0 -10.4 0zM571.51 916.68 a5.2 5.2 0 1 0 10.4 0 a5.2 5.2 0 1 0 -10.4 0zM526.47 942.68 a5.2 5.2 0 1 0 10.4 0 a5.2 5.2 0 1 0 -10.4 0zM481.44 916.68 a5.2 5.2 0 1 0 10.4 0 a5.2 5.2 0 1 0 -10.4 0zM526.47 1150.68 a5.2 5.2 0 1 0 10.4 0 a5.2 5.2 0 1 0 -10.4 0zM571.51 1176.68 a5.2 5.2 0 1 0 10.4 0 a5.2 5.2 0 1 0 -10.4 0zM571.51 1228.68 a5.2 5.2 0 1 0 10.4 0 a5.2 5.2 0 1 0 -10.4 0zM526.47 1254.68 a5.2 5.2 0 1 0 10.4 0 a5.2 5.2 0 1 0 -10.4 0zM481.44 1228.68 a5.2 5.2 0 1 0 10.4 0 a5.2 5.2 0 1 0 -10.4 0zM481.44 1176.68 a5.2 5.2 0 1 0 10.4 0 a5.2 5.2 0 1 0 -10.4 0zM571.51 136.68 a5.2 5.2 0 1 0 10.4 0 a5.2 5.2 0 1 0 -10.4 0zM616.54 162.68 a5.2 5.2 0 1 0 10.4 0 a5.2 5.2 0 1 0 -10.4 0zM616.54 214.68 a5.2 5.2 0 1 0 10.4 0 a5.2 5.2 0 1 0 -10.4 0zM616.54 318.68 a5.2 5.2 0 1 0 10.4 0 a5.2 5.2 0 1 0 -10.4 0zM616.54 370.68 a5.2 5.2 0 1 0 10.4 0 a5.2 5.2 0 1 0 -10.4 0zM571.51 396.68 a5.2 5.2 0 1 0 10.4 0 a5.2 5.2 0 1 0 -10.4 0zM571.51 604.68 a5.2 5.2 0 1 0 10.4 0 a5.2 5.2 0 1 0 -10.4 0zM616.54 630.68 a5.2 5.2 0 1 0 10.4 0 a5.2 5.2 0 1 0 -10.4 0zM616.54 682.68 a5.2 5.2 0 1 0 10.4 0 a5.2 5.2 0 1 0 -10.4 0zM571.51 708.68 a5.2 5.2 0 1 0 10.4 0 a5.2 5.2 0 1 0 -10.4 0zM526.47 682.68 a5.2 5.2 0 1 0 10.4 0 a5.2 5.2 0 1 0 -10.4 0zM526.47 630.68 a5.2 5.2 0 1 0 10.4 0 a5.2 5.2 0 1 0 -10.4 0zM661.57 708.68 a5.2 5.2 0 1 0 10.4 0 a5.2 5.2 0 1 0 -10.4 0zM661.57 760.68 a5.2 5.2 0 1 0 10.4 0 a5.2 5.2 0 1 0 -10.4 0zM616.54 786.68 a5.2 5.2 0 1 0 10.4 0 a5.2 5.2 0 1 0 -10.4 0zM571.51 760.68 a5.2 5.2 0 1 0 10.4 0 a5.2 5.2 0 1 0 -10.4 0zM616.54 838.68 a5.2 5.2 0 1 0 10.4 0 a5.2 5.2 0 1 0 -10.4 0zM661.57 864.68 a5.2 5.2 0 1 0 10.4 0 a5.2 5.2 0 1 0 -10.4 0zM661.57 916.68 a5.2 5.2 0 1 0 10.4 0 a5.2 5.2 0 1 0 -10.4 0zM616.54 942.68 a5.2 5.2 0 1 0 10.4 0 a5.2 5.2 0 1 0 -10.4 0zM571.51 1072.68 a5.2 5.2 0 1 0 10.4 0 a5.2 5.2 0 1 0 -10.4 0zM616.54 1098.68 a5.2 5.2 0 1 0 10.4 0 a5.2 5.2 0 1 0 -10.4 0zM616.54 1150.68 a5.2 5.2 0 1 0 10.4 0 a5.2 5.2 0 1 0 -10.4 0zM526.47 1098.68 a5.2 5.2 0 1 0 10.4 0 a5.2 5.2 0 1 0 -10.4 0zM661.57 -19.32 a5.2 5.2 0 1 0 10.4 0 a5.2 5.2 0 1 0 -10.4 0zM706.61 6.68 a5.2 5.2 0 1 0 10.4 0 a5.2 5.2 0 1 0 -10.4 0zM706.61 58.68 a5.2 5.2 0 1 0 10.4 0 a5.2 5.2 0 1 0 -10.4 0zM661.57 84.68 a5.2 5.2 0 1 0 10.4 0 a5.2 5.2 0 1 0 -10.4 0zM616.54 58.68 a5.2 5.2 0 1 0 10.4 0 a5.2 5.2 0 1 0 -10.4 0zM616.54 6.68 a5.2 5.2 0 1 0 10.4 0 a5.2 5.2 0 1 0 -10.4 0zM751.64 84.68 a5.2 5.2 0 1 0 10.4 0 a5.2 5.2 0 1 0 -10.4 0zM751.64 136.68 a5.2 5.2 0 1 0 10.4 0 a5.2 5.2 0 1 0 -10.4 0zM706.61 162.68 a5.2 5.2 0 1 0 10.4 0 a5.2 5.2 0 1 0 -10.4 0zM661.57 136.68 a5.2 5.2 0 1 0 10.4 0 a5.2 5.2 0 1 0 -10.4 0zM706.61 214.68 a5.2 5.2 0 1 0 10.4 0 a5.2 5.2 0 1 0 -10.4 0zM751.64 240.68 a5.2 5.2 0 1 0 10.4 0 a5.2 5.2 0 1 0 -10.4 0zM751.64 292.68 a5.2 5.2 0 1 0 10.4 0 a5.2 5.2 0 1 0 -10.4 0zM706.61 318.68 a5.2 5.2 0 1 0 10.4 0 a5.2 5.2 0 1 0 -10.4 0zM661.57 292.68 a5.2 5.2 0 1 0 10.4 0 a5.2 5.2 0 1 0 -10.4 0zM661.57 240.68 a5.2 5.2 0 1 0 10.4 0 a5.2 5.2 0 1 0 -10.4 0zM706.61 370.68 a5.2 5.2 0 1 0 10.4 0 a5.2 5.2 0 1 0 -10.4 0zM661.57 396.68 a5.2 5.2 0 1 0 10.4 0 a5.2 5.2 0 1 0 -10.4 0zM661.57 448.68 a5.2 5.2 0 1 0 10.4 0 a5.2 5.2 0 1 0 -10.4 0zM706.61 474.68 a5.2 5.2 0 1 0 10.4 0 a5.2 5.2 0 1 0 -10.4 0zM706.61 526.68 a5.2 5.2 0 1 0 10.4 0 a5.2 5.2 0 1 0 -10.4 0zM661.57 552.68 a5.2 5.2 0 1 0 10.4 0 a5.2 5.2 0 1 0 -10.4 0zM616.54 526.68 a5.2 5.2 0 1 0 10.4 0 a5.2 5.2 0 1 0 -10.4 0zM616.54 474.68 a5.2 5.2 0 1 0 10.4 0 a5.2 5.2 0 1 0 -10.4 0zM661.57 604.68 a5.2 5.2 0 1 0 10.4 0 a5.2 5.2 0 1 0 -10.4 0zM706.61 630.68 a5.2 5.2 0 1 0 10.4 0 a5.2 5.2 0 1 0 -10.4 0zM706.61 682.68 a5.2 5.2 0 1 0 10.4 0 a5.2 5.2 0 1 0 -10.4 0zM706.61 838.68 a5.2 5.2 0 1 0 10.4 0 a5.2 5.2 0 1 0 -10.4 0zM751.64 864.68 a5.2 5.2 0 1 0 10.4 0 a5.2 5.2 0 1 0 -10.4 0zM751.64 916.68 a5.2 5.2 0 1 0 10.4 0 a5.2 5.2 0 1 0 -10.4 0zM706.61 942.68 a5.2 5.2 0 1 0 10.4 0 a5.2 5.2 0 1 0 -10.4 0zM661.57 1072.68 a5.2 5.2 0 1 0 10.4 0 a5.2 5.2 0 1 0 -10.4 0zM706.61 1098.68 a5.2 5.2 0 1 0 10.4 0 a5.2 5.2 0 1 0 -10.4 0zM706.61 1150.68 a5.2 5.2 0 1 0 10.4 0 a5.2 5.2 0 1 0 -10.4 0zM661.57 1176.68 a5.2 5.2 0 1 0 10.4 0 a5.2 5.2 0 1 0 -10.4 0zM751.64 -19.32 a5.2 5.2 0 1 0 10.4 0 a5.2 5.2 0 1 0 -10.4 0zM796.68 6.68 a5.2 5.2 0 1 0 10.4 0 a5.2 5.2 0 1 0 -10.4 0zM796.68 58.68 a5.2 5.2 0 1 0 10.4 0 a5.2 5.2 0 1 0 -10.4 0zM841.71 84.68 a5.2 5.2 0 1 0 10.4 0 a5.2 5.2 0 1 0 -10.4 0zM841.71 136.68 a5.2 5.2 0 1 0 10.4 0 a5.2 5.2 0 1 0 -10.4 0zM796.68 162.68 a5.2 5.2 0 1 0 10.4 0 a5.2 5.2 0 1 0 -10.4 0zM796.68 318.68 a5.2 5.2 0 1 0 10.4 0 a5.2 5.2 0 1 0 -10.4 0zM796.68 370.68 a5.2 5.2 0 1 0 10.4 0 a5.2 5.2 0 1 0 -10.4 0zM751.64 396.68 a5.2 5.2 0 1 0 10.4 0 a5.2 5.2 0 1 0 -10.4 0zM796.68 526.68 a5.2 5.2 0 1 0 10.4 0 a5.2 5.2 0 1 0 -10.4 0zM841.71 552.68 a5.2 5.2 0 1 0 10.4 0 a5.2 5.2 0 1 0 -10.4 0zM841.71 604.68 a5.2 5.2 0 1 0 10.4 0 a5.2 5.2 0 1 0 -10.4 0zM796.68 630.68 a5.2 5.2 0 1 0 10.4 0 a5.2 5.2 0 1 0 -10.4 0zM751.64 604.68 a5.2 5.2 0 1 0 10.4 0 a5.2 5.2 0 1 0 -10.4 0zM751.64 552.68 a5.2 5.2 0 1 0 10.4 0 a5.2 5.2 0 1 0 -10.4 0zM796.68 682.68 a5.2 5.2 0 1 0 10.4 0 a5.2 5.2 0 1 0 -10.4 0zM751.64 708.68 a5.2 5.2 0 1 0 10.4 0 a5.2 5.2 0 1 0 -10.4 0zM841.71 708.68 a5.2 5.2 0 1 0 10.4 0 a5.2 5.2 0 1 0 -10.4 0zM841.71 760.68 a5.2 5.2 0 1 0 10.4 0 a5.2 5.2 0 1 0 -10.4 0zM796.68 786.68 a5.2 5.2 0 1 0 10.4 0 a5.2 5.2 0 1 0 -10.4 0zM751.64 760.68 a5.2 5.2 0 1 0 10.4 0 a5.2 5.2 0 1 0 -10.4 0zM796.68 838.68 a5.2 5.2 0 1 0 10.4 0 a5.2 5.2 0 1 0 -10.4 0zM706.61 786.68 a5.2 5.2 0 1 0 10.4 0 a5.2 5.2 0 1 0 -10.4 0zM841.71 864.68 a5.2 5.2 0 1 0 10.4 0 a5.2 5.2 0 1 0 -10.4 0zM841.71 916.68 a5.2 5.2 0 1 0 10.4 0 a5.2 5.2 0 1 0 -10.4 0zM796.68 942.68 a5.2 5.2 0 1 0 10.4 0 a5.2 5.2 0 1 0 -10.4 0zM796.68 994.68 a5.2 5.2 0 1 0 10.4 0 a5.2 5.2 0 1 0 -10.4 0zM841.71 1020.68 a5.2 5.2 0 1 0 10.4 0 a5.2 5.2 0 1 0 -10.4 0zM841.71 1072.68 a5.2 5.2 0 1 0 10.4 0 a5.2 5.2 0 1 0 -10.4 0zM796.68 1098.68 a5.2 5.2 0 1 0 10.4 0 a5.2 5.2 0 1 0 -10.4 0zM751.64 1072.68 a5.2 5.2 0 1 0 10.4 0 a5.2 5.2 0 1 0 -10.4 0zM751.64 1020.68 a5.2 5.2 0 1 0 10.4 0 a5.2 5.2 0 1 0 -10.4 0zM796.68 1150.68 a5.2 5.2 0 1 0 10.4 0 a5.2 5.2 0 1 0 -10.4 0zM751.64 1176.68 a5.2 5.2 0 1 0 10.4 0 a5.2 5.2 0 1 0 -10.4 0zM841.71 1176.68 a5.2 5.2 0 1 0 10.4 0 a5.2 5.2 0 1 0 -10.4 0zM841.71 1228.68 a5.2 5.2 0 1 0 10.4 0 a5.2 5.2 0 1 0 -10.4 0zM796.68 1254.68 a5.2 5.2 0 1 0 10.4 0 a5.2 5.2 0 1 0 -10.4 0zM751.64 1228.68 a5.2 5.2 0 1 0 10.4 0 a5.2 5.2 0 1 0 -10.4 0zM841.71 -19.32 a5.2 5.2 0 1 0 10.4 0 a5.2 5.2 0 1 0 -10.4 0zM886.75 6.68 a5.2 5.2 0 1 0 10.4 0 a5.2 5.2 0 1 0 -10.4 0zM886.75 58.68 a5.2 5.2 0 1 0 10.4 0 a5.2 5.2 0 1 0 -10.4 0zM931.78 84.68 a5.2 5.2 0 1 0 10.4 0 a5.2 5.2 0 1 0 -10.4 0zM931.78 136.68 a5.2 5.2 0 1 0 10.4 0 a5.2 5.2 0 1 0 -10.4 0zM886.75 162.68 a5.2 5.2 0 1 0 10.4 0 a5.2 5.2 0 1 0 -10.4 0zM886.75 214.68 a5.2 5.2 0 1 0 10.4 0 a5.2 5.2 0 1 0 -10.4 0zM841.71 240.68 a5.2 5.2 0 1 0 10.4 0 a5.2 5.2 0 1 0 -10.4 0zM796.68 214.68 a5.2 5.2 0 1 0 10.4 0 a5.2 5.2 0 1 0 -10.4 0zM931.78 240.68 a5.2 5.2 0 1 0 10.4 0 a5.2 5.2 0 1 0 -10.4 0zM931.78 292.68 a5.2 5.2 0 1 0 10.4 0 a5.2 5.2 0 1 0 -10.4 0zM886.75 318.68 a5.2 5.2 0 1 0 10.4 0 a5.2 5.2 0 1 0 -10.4 0zM841.71 292.68 a5.2 5.2 0 1 0 10.4 0 a5.2 5.2 0 1 0 -10.4 0zM886.75 526.68 a5.2 5.2 0 1 0 10.4 0 a5.2 5.2 0 1 0 -10.4 0zM931.78 552.68 a5.2 5.2 0 1 0 10.4 0 a5.2 5.2 0 1 0 -10.4 0zM931.78 604.68 a5.2 5.2 0 1 0 10.4 0 a5.2 5.2 0 1 0 -10.4 0zM886.75 630.68 a5.2 5.2 0 1 0 10.4 0 a5.2 5.2 0 1 0 -10.4 0zM886.75 682.68 a5.2 5.2 0 1 0 10.4 0 a5.2 5.2 0 1 0 -10.4 0zM931.78 708.68 a5.2 5.2 0 1 0 10.4 0 a5.2 5.2 0 1 0 -10.4 0zM931.78 760.68 a5.2 5.2 0 1 0 10.4 0 a5.2 5.2 0 1 0 -10.4 0zM886.75 786.68 a5.2 5.2 0 1 0 10.4 0 a5.2 5.2 0 1 0 -10.4 0zM886.75 942.68 a5.2 5.2 0 1 0 10.4 0 a5.2 5.2 0 1 0 -10.4 0zM886.75 994.68 a5.2 5.2 0 1 0 10.4 0 a5.2 5.2 0 1 0 -10.4 0zM931.78 1020.68 a5.2 5.2 0 1 0 10.4 0 a5.2 5.2 0 1 0 -10.4 0zM931.78 1072.68 a5.2 5.2 0 1 0 10.4 0 a5.2 5.2 0 1 0 -10.4 0zM886.75 1098.68 a5.2 5.2 0 1 0 10.4 0 a5.2 5.2 0 1 0 -10.4 0zM976.82 58.68 a5.2 5.2 0 1 0 10.4 0 a5.2 5.2 0 1 0 -10.4 0zM1021.85 84.68 a5.2 5.2 0 1 0 10.4 0 a5.2 5.2 0 1 0 -10.4 0zM1021.85 136.68 a5.2 5.2 0 1 0 10.4 0 a5.2 5.2 0 1 0 -10.4 0zM976.82 162.68 a5.2 5.2 0 1 0 10.4 0 a5.2 5.2 0 1 0 -10.4 0zM976.82 214.68 a5.2 5.2 0 1 0 10.4 0 a5.2 5.2 0 1 0 -10.4 0zM976.82 370.68 a5.2 5.2 0 1 0 10.4 0 a5.2 5.2 0 1 0 -10.4 0zM1021.85 396.68 a5.2 5.2 0 1 0 10.4 0 a5.2 5.2 0 1 0 -10.4 0zM1021.85 448.68 a5.2 5.2 0 1 0 10.4 0 a5.2 5.2 0 1 0 -10.4 0zM976.82 474.68 a5.2 5.2 0 1 0 10.4 0 a5.2 5.2 0 1 0 -10.4 0zM931.78 448.68 a5.2 5.2 0 1 0 10.4 0 a5.2 5.2 0 1 0 -10.4 0zM931.78 396.68 a5.2 5.2 0 1 0 10.4 0 a5.2 5.2 0 1 0 -10.4 0zM976.82 526.68 a5.2 5.2 0 1 0 10.4 0 a5.2 5.2 0 1 0 -10.4 0zM1021.85 552.68 a5.2 5.2 0 1 0 10.4 0 a5.2 5.2 0 1 0 -10.4 0zM1021.85 604.68 a5.2 5.2 0 1 0 10.4 0 a5.2 5.2 0 1 0 -10.4 0zM976.82 630.68 a5.2 5.2 0 1 0 10.4 0 a5.2 5.2 0 1 0 -10.4 0zM976.82 682.68 a5.2 5.2 0 1 0 10.4 0 a5.2 5.2 0 1 0 -10.4 0zM931.78 916.68 a5.2 5.2 0 1 0 10.4 0 a5.2 5.2 0 1 0 -10.4 0zM976.82 942.68 a5.2 5.2 0 1 0 10.4 0 a5.2 5.2 0 1 0 -10.4 0zM976.82 994.68 a5.2 5.2 0 1 0 10.4 0 a5.2 5.2 0 1 0 -10.4 0zM1066.89 162.68 a5.2 5.2 0 1 0 10.4 0 a5.2 5.2 0 1 0 -10.4 0zM1066.89 214.68 a5.2 5.2 0 1 0 10.4 0 a5.2 5.2 0 1 0 -10.4 0zM1021.85 240.68 a5.2 5.2 0 1 0 10.4 0 a5.2 5.2 0 1 0 -10.4 0zM1111.92 240.68 a5.2 5.2 0 1 0 10.4 0 a5.2 5.2 0 1 0 -10.4 0zM1111.92 292.68 a5.2 5.2 0 1 0 10.4 0 a5.2 5.2 0 1 0 -10.4 0zM1066.89 318.68 a5.2 5.2 0 1 0 10.4 0 a5.2 5.2 0 1 0 -10.4 0zM1021.85 292.68 a5.2 5.2 0 1 0 10.4 0 a5.2 5.2 0 1 0 -10.4 0zM1066.89 370.68 a5.2 5.2 0 1 0 10.4 0 a5.2 5.2 0 1 0 -10.4 0zM976.82 318.68 a5.2 5.2 0 1 0 10.4 0 a5.2 5.2 0 1 0 -10.4 0zM1066.89 474.68 a5.2 5.2 0 1 0 10.4 0 a5.2 5.2 0 1 0 -10.4 0zM1066.89 526.68 a5.2 5.2 0 1 0 10.4 0 a5.2 5.2 0 1 0 -10.4 0zM1066.89 630.68 a5.2 5.2 0 1 0 10.4 0 a5.2 5.2 0 1 0 -10.4 0zM1066.89 682.68 a5.2 5.2 0 1 0 10.4 0 a5.2 5.2 0 1 0 -10.4 0zM1021.85 708.68 a5.2 5.2 0 1 0 10.4 0 a5.2 5.2 0 1 0 -10.4 0zM1066.89 994.68 a5.2 5.2 0 1 0 10.4 0 a5.2 5.2 0 1 0 -10.4 0zM1111.92 1020.68 a5.2 5.2 0 1 0 10.4 0 a5.2 5.2 0 1 0 -10.4 0zM1111.92 1072.68 a5.2 5.2 0 1 0 10.4 0 a5.2 5.2 0 1 0 -10.4 0zM1066.89 1098.68 a5.2 5.2 0 1 0 10.4 0 a5.2 5.2 0 1 0 -10.4 0zM1021.85 1072.68 a5.2 5.2 0 1 0 10.4 0 a5.2 5.2 0 1 0 -10.4 0zM1021.85 1020.68 a5.2 5.2 0 1 0 10.4 0 a5.2 5.2 0 1 0 -10.4 0zM1066.89 1150.68 a5.2 5.2 0 1 0 10.4 0 a5.2 5.2 0 1 0 -10.4 0zM1111.92 1176.68 a5.2 5.2 0 1 0 10.4 0 a5.2 5.2 0 1 0 -10.4 0zM1111.92 1228.68 a5.2 5.2 0 1 0 10.4 0 a5.2 5.2 0 1 0 -10.4 0zM1066.89 1254.68 a5.2 5.2 0 1 0 10.4 0 a5.2 5.2 0 1 0 -10.4 0zM1021.85 1228.68 a5.2 5.2 0 1 0 10.4 0 a5.2 5.2 0 1 0 -10.4 0zM1021.85 1176.68 a5.2 5.2 0 1 0 10.4 0 a5.2 5.2 0 1 0 -10.4 0zM1156.95 214.68 a5.2 5.2 0 1 0 10.4 0 a5.2 5.2 0 1 0 -10.4 0zM1201.99 240.68 a5.2 5.2 0 1 0 10.4 0 a5.2 5.2 0 1 0 -10.4 0zM1201.99 292.68 a5.2 5.2 0 1 0 10.4 0 a5.2 5.2 0 1 0 -10.4 0zM1156.95 318.68 a5.2 5.2 0 1 0 10.4 0 a5.2 5.2 0 1 0 -10.4 0zM1111.92 448.68 a5.2 5.2 0 1 0 10.4 0 a5.2 5.2 0 1 0 -10.4 0zM1156.95 474.68 a5.2 5.2 0 1 0 10.4 0 a5.2 5.2 0 1 0 -10.4 0zM1156.95 526.68 a5.2 5.2 0 1 0 10.4 0 a5.2 5.2 0 1 0 -10.4 0zM1111.92 552.68 a5.2 5.2 0 1 0 10.4 0 a5.2 5.2 0 1 0 -10.4 0zM1156.95 682.68 a5.2 5.2 0 1 0 10.4 0 a5.2 5.2 0 1 0 -10.4 0zM1201.99 708.68 a5.2 5.2 0 1 0 10.4 0 a5.2 5.2 0 1 0 -10.4 0zM1201.99 760.68 a5.2 5.2 0 1 0 10.4 0 a5.2 5.2 0 1 0 -10.4 0zM1156.95 786.68 a5.2 5.2 0 1 0 10.4 0 a5.2 5.2 0 1 0 -10.4 0zM1111.92 760.68 a5.2 5.2 0 1 0 10.4 0 a5.2 5.2 0 1 0 -10.4 0zM1111.92 708.68 a5.2 5.2 0 1 0 10.4 0 a5.2 5.2 0 1 0 -10.4 0zM1156.95 838.68 a5.2 5.2 0 1 0 10.4 0 a5.2 5.2 0 1 0 -10.4 0zM1111.92 864.68 a5.2 5.2 0 1 0 10.4 0 a5.2 5.2 0 1 0 -10.4 0zM1066.89 838.68 a5.2 5.2 0 1 0 10.4 0 a5.2 5.2 0 1 0 -10.4 0zM1066.89 786.68 a5.2 5.2 0 1 0 10.4 0 a5.2 5.2 0 1 0 -10.4 0zM1201.99 864.68 a5.2 5.2 0 1 0 10.4 0 a5.2 5.2 0 1 0 -10.4 0zM1201.99 916.68 a5.2 5.2 0 1 0 10.4 0 a5.2 5.2 0 1 0 -10.4 0zM1156.95 942.68 a5.2 5.2 0 1 0 10.4 0 a5.2 5.2 0 1 0 -10.4 0zM1111.92 916.68 a5.2 5.2 0 1 0 10.4 0 a5.2 5.2 0 1 0 -10.4 0zM1156.95 994.68 a5.2 5.2 0 1 0 10.4 0 a5.2 5.2 0 1 0 -10.4 0zM1201.99 1020.68 a5.2 5.2 0 1 0 10.4 0 a5.2 5.2 0 1 0 -10.4 0zM1201.99 1072.68 a5.2 5.2 0 1 0 10.4 0 a5.2 5.2 0 1 0 -10.4 0zM1156.95 1098.68 a5.2 5.2 0 1 0 10.4 0 a5.2 5.2 0 1 0 -10.4 0zM1201.99 -19.32 a5.2 5.2 0 1 0 10.4 0 a5.2 5.2 0 1 0 -10.4 0zM1247.02 6.68 a5.2 5.2 0 1 0 10.4 0 a5.2 5.2 0 1 0 -10.4 0zM1247.02 58.68 a5.2 5.2 0 1 0 10.4 0 a5.2 5.2 0 1 0 -10.4 0zM1201.99 84.68 a5.2 5.2 0 1 0 10.4 0 a5.2 5.2 0 1 0 -10.4 0zM1156.95 58.68 a5.2 5.2 0 1 0 10.4 0 a5.2 5.2 0 1 0 -10.4 0zM1156.95 6.68 a5.2 5.2 0 1 0 10.4 0 a5.2 5.2 0 1 0 -10.4 0zM1247.02 370.68 a5.2 5.2 0 1 0 10.4 0 a5.2 5.2 0 1 0 -10.4 0zM1292.06 396.68 a5.2 5.2 0 1 0 10.4 0 a5.2 5.2 0 1 0 -10.4 0zM1292.06 448.68 a5.2 5.2 0 1 0 10.4 0 a5.2 5.2 0 1 0 -10.4 0zM1247.02 474.68 a5.2 5.2 0 1 0 10.4 0 a5.2 5.2 0 1 0 -10.4 0zM1201.99 448.68 a5.2 5.2 0 1 0 10.4 0 a5.2 5.2 0 1 0 -10.4 0zM1201.99 396.68 a5.2 5.2 0 1 0 10.4 0 a5.2 5.2 0 1 0 -10.4 0zM1247.02 526.68 a5.2 5.2 0 1 0 10.4 0 a5.2 5.2 0 1 0 -10.4 0zM1201.99 552.68 a5.2 5.2 0 1 0 10.4 0 a5.2 5.2 0 1 0 -10.4 0zM1292.06 552.68 a5.2 5.2 0 1 0 10.4 0 a5.2 5.2 0 1 0 -10.4 0zM1292.06 604.68 a5.2 5.2 0 1 0 10.4 0 a5.2 5.2 0 1 0 -10.4 0zM1247.02 630.68 a5.2 5.2 0 1 0 10.4 0 a5.2 5.2 0 1 0 -10.4 0zM1201.99 604.68 a5.2 5.2 0 1 0 10.4 0 a5.2 5.2 0 1 0 -10.4 0zM1247.02 786.68 a5.2 5.2 0 1 0 10.4 0 a5.2 5.2 0 1 0 -10.4 0zM1247.02 838.68 a5.2 5.2 0 1 0 10.4 0 a5.2 5.2 0 1 0 -10.4 0zM1292.06 864.68 a5.2 5.2 0 1 0 10.4 0 a5.2 5.2 0 1 0 -10.4 0zM1292.06 916.68 a5.2 5.2 0 1 0 10.4 0 a5.2 5.2 0 1 0 -10.4 0zM1247.02 942.68 a5.2 5.2 0 1 0 10.4 0 a5.2 5.2 0 1 0 -10.4 0zM1247.02 994.68 a5.2 5.2 0 1 0 10.4 0 a5.2 5.2 0 1 0 -10.4 0zM1292.06 1020.68 a5.2 5.2 0 1 0 10.4 0 a5.2 5.2 0 1 0 -10.4 0zM1292.06 1072.68 a5.2 5.2 0 1 0 10.4 0 a5.2 5.2 0 1 0 -10.4 0zM1247.02 1098.68 a5.2 5.2 0 1 0 10.4 0 a5.2 5.2 0 1 0 -10.4 0zM1247.02 1150.68 a5.2 5.2 0 1 0 10.4 0 a5.2 5.2 0 1 0 -10.4 0zM1201.99 1176.68 a5.2 5.2 0 1 0 10.4 0 a5.2 5.2 0 1 0 -10.4 0zM1156.95 1150.68 a5.2 5.2 0 1 0 10.4 0 a5.2 5.2 0 1 0 -10.4 0zM1337.09 214.68 a5.2 5.2 0 1 0 10.4 0 a5.2 5.2 0 1 0 -10.4 0zM1382.13 240.68 a5.2 5.2 0 1 0 10.4 0 a5.2 5.2 0 1 0 -10.4 0zM1382.13 292.68 a5.2 5.2 0 1 0 10.4 0 a5.2 5.2 0 1 0 -10.4 0zM1337.09 318.68 a5.2 5.2 0 1 0 10.4 0 a5.2 5.2 0 1 0 -10.4 0zM1292.06 292.68 a5.2 5.2 0 1 0 10.4 0 a5.2 5.2 0 1 0 -10.4 0zM1292.06 240.68 a5.2 5.2 0 1 0 10.4 0 a5.2 5.2 0 1 0 -10.4 0zM1337.09 370.68 a5.2 5.2 0 1 0 10.4 0 a5.2 5.2 0 1 0 -10.4 0zM1247.02 318.68 a5.2 5.2 0 1 0 10.4 0 a5.2 5.2 0 1 0 -10.4 0zM1337.09 474.68 a5.2 5.2 0 1 0 10.4 0 a5.2 5.2 0 1 0 -10.4 0zM1337.09 526.68 a5.2 5.2 0 1 0 10.4 0 a5.2 5.2 0 1 0 -10.4 0zM1337.09 630.68 a5.2 5.2 0 1 0 10.4 0 a5.2 5.2 0 1 0 -10.4 0zM1337.09 682.68 a5.2 5.2 0 1 0 10.4 0 a5.2 5.2 0 1 0 -10.4 0zM1292.06 708.68 a5.2 5.2 0 1 0 10.4 0 a5.2 5.2 0 1 0 -10.4 0zM1247.02 682.68 a5.2 5.2 0 1 0 10.4 0 a5.2 5.2 0 1 0 -10.4 0zM1292.06 760.68 a5.2 5.2 0 1 0 10.4 0 a5.2 5.2 0 1 0 -10.4 0zM1337.09 786.68 a5.2 5.2 0 1 0 10.4 0 a5.2 5.2 0 1 0 -10.4 0zM1337.09 838.68 a5.2 5.2 0 1 0 10.4 0 a5.2 5.2 0 1 0 -10.4 0zM1382.13 864.68 a5.2 5.2 0 1 0 10.4 0 a5.2 5.2 0 1 0 -10.4 0zM1382.13 916.68 a5.2 5.2 0 1 0 10.4 0 a5.2 5.2 0 1 0 -10.4 0zM1337.09 942.68 a5.2 5.2 0 1 0 10.4 0 a5.2 5.2 0 1 0 -10.4 0zM1337.09 994.68 a5.2 5.2 0 1 0 10.4 0 a5.2 5.2 0 1 0 -10.4 0zM1337.09 1150.68 a5.2 5.2 0 1 0 10.4 0 a5.2 5.2 0 1 0 -10.4 0zM1382.13 1176.68 a5.2 5.2 0 1 0 10.4 0 a5.2 5.2 0 1 0 -10.4 0zM1382.13 1228.68 a5.2 5.2 0 1 0 10.4 0 a5.2 5.2 0 1 0 -10.4 0zM1337.09 1254.68 a5.2 5.2 0 1 0 10.4 0 a5.2 5.2 0 1 0 -10.4 0zM1292.06 1228.68 a5.2 5.2 0 1 0 10.4 0 a5.2 5.2 0 1 0 -10.4 0zM1292.06 1176.68 a5.2 5.2 0 1 0 10.4 0 a5.2 5.2 0 1 0 -10.4 0zM1427.16 58.68 a5.2 5.2 0 1 0 10.4 0 a5.2 5.2 0 1 0 -10.4 0zM1472.2 84.68 a5.2 5.2 0 1 0 10.4 0 a5.2 5.2 0 1 0 -10.4 0zM1472.2 136.68 a5.2 5.2 0 1 0 10.4 0 a5.2 5.2 0 1 0 -10.4 0zM1427.16 162.68 a5.2 5.2 0 1 0 10.4 0 a5.2 5.2 0 1 0 -10.4 0zM1382.13 136.68 a5.2 5.2 0 1 0 10.4 0 a5.2 5.2 0 1 0 -10.4 0zM1382.13 84.68 a5.2 5.2 0 1 0 10.4 0 a5.2 5.2 0 1 0 -10.4 0zM1427.16 214.68 a5.2 5.2 0 1 0 10.4 0 a5.2 5.2 0 1 0 -10.4 0zM1472.2 240.68 a5.2 5.2 0 1 0 10.4 0 a5.2 5.2 0 1 0 -10.4 0zM1472.2 292.68 a5.2 5.2 0 1 0 10.4 0 a5.2 5.2 0 1 0 -10.4 0zM1427.16 318.68 a5.2 5.2 0 1 0 10.4 0 a5.2 5.2 0 1 0 -10.4 0zM1427.16 682.68 a5.2 5.2 0 1 0 10.4 0 a5.2 5.2 0 1 0 -10.4 0zM1472.2 708.68 a5.2 5.2 0 1 0 10.4 0 a5.2 5.2 0 1 0 -10.4 0zM1472.2 760.68 a5.2 5.2 0 1 0 10.4 0 a5.2 5.2 0 1 0 -10.4 0zM1427.16 786.68 a5.2 5.2 0 1 0 10.4 0 a5.2 5.2 0 1 0 -10.4 0zM1382.13 760.68 a5.2 5.2 0 1 0 10.4 0 a5.2 5.2 0 1 0 -10.4 0zM1382.13 708.68 a5.2 5.2 0 1 0 10.4 0 a5.2 5.2 0 1 0 -10.4 0zM1427.16 994.68 a5.2 5.2 0 1 0 10.4 0 a5.2 5.2 0 1 0 -10.4 0zM1472.2 1020.68 a5.2 5.2 0 1 0 10.4 0 a5.2 5.2 0 1 0 -10.4 0zM1472.2 1072.68 a5.2 5.2 0 1 0 10.4 0 a5.2 5.2 0 1 0 -10.4 0zM1427.16 1098.68 a5.2 5.2 0 1 0 10.4 0 a5.2 5.2 0 1 0 -10.4 0zM1382.13 1072.68 a5.2 5.2 0 1 0 10.4 0 a5.2 5.2 0 1 0 -10.4 0zM1382.13 1020.68 a5.2 5.2 0 1 0 10.4 0 a5.2 5.2 0 1 0 -10.4 0zM1427.16 1150.68 a5.2 5.2 0 1 0 10.4 0 a5.2 5.2 0 1 0 -10.4 0zM1337.09 1098.68 a5.2 5.2 0 1 0 10.4 0 a5.2 5.2 0 1 0 -10.4 0zM1472.2 -19.32 a5.2 5.2 0 1 0 10.4 0 a5.2 5.2 0 1 0 -10.4 0zM1517.23 6.68 a5.2 5.2 0 1 0 10.4 0 a5.2 5.2 0 1 0 -10.4 0zM1517.23 58.68 a5.2 5.2 0 1 0 10.4 0 a5.2 5.2 0 1 0 -10.4 0zM1427.16 6.68 a5.2 5.2 0 1 0 10.4 0 a5.2 5.2 0 1 0 -10.4 0zM1517.23 214.68 a5.2 5.2 0 1 0 10.4 0 a5.2 5.2 0 1 0 -10.4 0zM1562.27 240.68 a5.2 5.2 0 1 0 10.4 0 a5.2 5.2 0 1 0 -10.4 0zM1562.27 292.68 a5.2 5.2 0 1 0 10.4 0 a5.2 5.2 0 1 0 -10.4 0zM1517.23 318.68 a5.2 5.2 0 1 0 10.4 0 a5.2 5.2 0 1 0 -10.4 0zM1517.23 370.68 a5.2 5.2 0 1 0 10.4 0 a5.2 5.2 0 1 0 -10.4 0zM1562.27 396.68 a5.2 5.2 0 1 0 10.4 0 a5.2 5.2 0 1 0 -10.4 0zM1562.27 448.68 a5.2 5.2 0 1 0 10.4 0 a5.2 5.2 0 1 0 -10.4 0zM1517.23 474.68 a5.2 5.2 0 1 0 10.4 0 a5.2 5.2 0 1 0 -10.4 0zM1472.2 448.68 a5.2 5.2 0 1 0 10.4 0 a5.2 5.2 0 1 0 -10.4 0zM1472.2 396.68 a5.2 5.2 0 1 0 10.4 0 a5.2 5.2 0 1 0 -10.4 0zM1517.23 526.68 a5.2 5.2 0 1 0 10.4 0 a5.2 5.2 0 1 0 -10.4 0zM1472.2 552.68 a5.2 5.2 0 1 0 10.4 0 a5.2 5.2 0 1 0 -10.4 0zM1427.16 526.68 a5.2 5.2 0 1 0 10.4 0 a5.2 5.2 0 1 0 -10.4 0zM1427.16 474.68 a5.2 5.2 0 1 0 10.4 0 a5.2 5.2 0 1 0 -10.4 0zM1472.2 604.68 a5.2 5.2 0 1 0 10.4 0 a5.2 5.2 0 1 0 -10.4 0zM1517.23 630.68 a5.2 5.2 0 1 0 10.4 0 a5.2 5.2 0 1 0 -10.4 0zM1517.23 682.68 a5.2 5.2 0 1 0 10.4 0 a5.2 5.2 0 1 0 -10.4 0zM1427.16 630.68 a5.2 5.2 0 1 0 10.4 0 a5.2 5.2 0 1 0 -10.4 0zM1517.23 786.68 a5.2 5.2 0 1 0 10.4 0 a5.2 5.2 0 1 0 -10.4 0zM1517.23 838.68 a5.2 5.2 0 1 0 10.4 0 a5.2 5.2 0 1 0 -10.4 0zM1472.2 864.68 a5.2 5.2 0 1 0 10.4 0 a5.2 5.2 0 1 0 -10.4 0zM1427.16 838.68 a5.2 5.2 0 1 0 10.4 0 a5.2 5.2 0 1 0 -10.4 0zM1562.27 864.68 a5.2 5.2 0 1 0 10.4 0 a5.2 5.2 0 1 0 -10.4 0zM1562.27 916.68 a5.2 5.2 0 1 0 10.4 0 a5.2 5.2 0 1 0 -10.4 0zM1517.23 942.68 a5.2 5.2 0 1 0 10.4 0 a5.2 5.2 0 1 0 -10.4 0zM1472.2 916.68 a5.2 5.2 0 1 0 10.4 0 a5.2 5.2 0 1 0 -10.4 0zM1517.23 994.68 a5.2 5.2 0 1 0 10.4 0 a5.2 5.2 0 1 0 -10.4 0zM1562.27 1020.68 a5.2 5.2 0 1 0 10.4 0 a5.2 5.2 0 1 0 -10.4 0zM1562.27 1072.68 a5.2 5.2 0 1 0 10.4 0 a5.2 5.2 0 1 0 -10.4 0zM1517.23 1098.68 a5.2 5.2 0 1 0 10.4 0 a5.2 5.2 0 1 0 -10.4 0zM1607.3 214.68 a5.2 5.2 0 1 0 10.4 0 a5.2 5.2 0 1 0 -10.4 0zM1652.34 240.68 a5.2 5.2 0 1 0 10.4 0 a5.2 5.2 0 1 0 -10.4 0zM1652.34 292.68 a5.2 5.2 0 1 0 10.4 0 a5.2 5.2 0 1 0 -10.4 0zM1607.3 318.68 a5.2 5.2 0 1 0 10.4 0 a5.2 5.2 0 1 0 -10.4 0zM1607.3 370.68 a5.2 5.2 0 1 0 10.4 0 a5.2 5.2 0 1 0 -10.4 0zM1652.34 396.68 a5.2 5.2 0 1 0 10.4 0 a5.2 5.2 0 1 0 -10.4 0zM1652.34 448.68 a5.2 5.2 0 1 0 10.4 0 a5.2 5.2 0 1 0 -10.4 0zM1607.3 474.68 a5.2 5.2 0 1 0 10.4 0 a5.2 5.2 0 1 0 -10.4 0zM1607.3 526.68 a5.2 5.2 0 1 0 10.4 0 a5.2 5.2 0 1 0 -10.4 0zM1562.27 552.68 a5.2 5.2 0 1 0 10.4 0 a5.2 5.2 0 1 0 -10.4 0zM1652.34 552.68 a5.2 5.2 0 1 0 10.4 0 a5.2 5.2 0 1 0 -10.4 0zM1652.34 604.68 a5.2 5.2 0 1 0 10.4 0 a5.2 5.2 0 1 0 -10.4 0zM1607.3 630.68 a5.2 5.2 0 1 0 10.4 0 a5.2 5.2 0 1 0 -10.4 0zM1562.27 604.68 a5.2 5.2 0 1 0 10.4 0 a5.2 5.2 0 1 0 -10.4 0zM1607.3 682.68 a5.2 5.2 0 1 0 10.4 0 a5.2 5.2 0 1 0 -10.4 0zM1562.27 708.68 a5.2 5.2 0 1 0 10.4 0 a5.2 5.2 0 1 0 -10.4 0zM1562.27 760.68 a5.2 5.2 0 1 0 10.4 0 a5.2 5.2 0 1 0 -10.4 0zM1607.3 786.68 a5.2 5.2 0 1 0 10.4 0 a5.2 5.2 0 1 0 -10.4 0zM1607.3 838.68 a5.2 5.2 0 1 0 10.4 0 a5.2 5.2 0 1 0 -10.4 0zM1652.34 864.68 a5.2 5.2 0 1 0 10.4 0 a5.2 5.2 0 1 0 -10.4 0zM1652.34 916.68 a5.2 5.2 0 1 0 10.4 0 a5.2 5.2 0 1 0 -10.4 0zM1607.3 942.68 a5.2 5.2 0 1 0 10.4 0 a5.2 5.2 0 1 0 -10.4 0zM1607.3 994.68 a5.2 5.2 0 1 0 10.4 0 a5.2 5.2 0 1 0 -10.4 0zM1652.34 1020.68 a5.2 5.2 0 1 0 10.4 0 a5.2 5.2 0 1 0 -10.4 0zM1652.34 1072.68 a5.2 5.2 0 1 0 10.4 0 a5.2 5.2 0 1 0 -10.4 0zM1607.3 1098.68 a5.2 5.2 0 1 0 10.4 0 a5.2 5.2 0 1 0 -10.4 0zM1652.34 -19.32 a5.2 5.2 0 1 0 10.4 0 a5.2 5.2 0 1 0 -10.4 0zM1697.37 6.68 a5.2 5.2 0 1 0 10.4 0 a5.2 5.2 0 1 0 -10.4 0zM1697.37 58.68 a5.2 5.2 0 1 0 10.4 0 a5.2 5.2 0 1 0 -10.4 0zM1652.34 84.68 a5.2 5.2 0 1 0 10.4 0 a5.2 5.2 0 1 0 -10.4 0zM1607.3 58.68 a5.2 5.2 0 1 0 10.4 0 a5.2 5.2 0 1 0 -10.4 0zM1607.3 6.68 a5.2 5.2 0 1 0 10.4 0 a5.2 5.2 0 1 0 -10.4 0zM1697.37 214.68 a5.2 5.2 0 1 0 10.4 0 a5.2 5.2 0 1 0 -10.4 0zM1742.4 240.68 a5.2 5.2 0 1 0 10.4 0 a5.2 5.2 0 1 0 -10.4 0zM1742.4 292.68 a5.2 5.2 0 1 0 10.4 0 a5.2 5.2 0 1 0 -10.4 0zM1697.37 318.68 a5.2 5.2 0 1 0 10.4 0 a5.2 5.2 0 1 0 -10.4 0zM1697.37 370.68 a5.2 5.2 0 1 0 10.4 0 a5.2 5.2 0 1 0 -10.4 0zM1742.4 396.68 a5.2 5.2 0 1 0 10.4 0 a5.2 5.2 0 1 0 -10.4 0zM1742.4 448.68 a5.2 5.2 0 1 0 10.4 0 a5.2 5.2 0 1 0 -10.4 0zM1697.37 474.68 a5.2 5.2 0 1 0 10.4 0 a5.2 5.2 0 1 0 -10.4 0zM1697.37 526.68 a5.2 5.2 0 1 0 10.4 0 a5.2 5.2 0 1 0 -10.4 0zM1742.4 552.68 a5.2 5.2 0 1 0 10.4 0 a5.2 5.2 0 1 0 -10.4 0zM1742.4 604.68 a5.2 5.2 0 1 0 10.4 0 a5.2 5.2 0 1 0 -10.4 0zM1697.37 630.68 a5.2 5.2 0 1 0 10.4 0 a5.2 5.2 0 1 0 -10.4 0zM1697.37 838.68 a5.2 5.2 0 1 0 10.4 0 a5.2 5.2 0 1 0 -10.4 0zM1742.4 864.68 a5.2 5.2 0 1 0 10.4 0 a5.2 5.2 0 1 0 -10.4 0zM1742.4 916.68 a5.2 5.2 0 1 0 10.4 0 a5.2 5.2 0 1 0 -10.4 0zM1697.37 942.68 a5.2 5.2 0 1 0 10.4 0 a5.2 5.2 0 1 0 -10.4 0zM1697.37 1150.68 a5.2 5.2 0 1 0 10.4 0 a5.2 5.2 0 1 0 -10.4 0zM1742.4 1176.68 a5.2 5.2 0 1 0 10.4 0 a5.2 5.2 0 1 0 -10.4 0zM1742.4 1228.68 a5.2 5.2 0 1 0 10.4 0 a5.2 5.2 0 1 0 -10.4 0zM1697.37 1254.68 a5.2 5.2 0 1 0 10.4 0 a5.2 5.2 0 1 0 -10.4 0zM1652.34 1228.68 a5.2 5.2 0 1 0 10.4 0 a5.2 5.2 0 1 0 -10.4 0zM1652.34 1176.68 a5.2 5.2 0 1 0 10.4 0 a5.2 5.2 0 1 0 -10.4 0zM1787.44 370.68 a5.2 5.2 0 1 0 10.4 0 a5.2 5.2 0 1 0 -10.4 0zM1832.47 396.68 a5.2 5.2 0 1 0 10.4 0 a5.2 5.2 0 1 0 -10.4 0zM1832.47 448.68 a5.2 5.2 0 1 0 10.4 0 a5.2 5.2 0 1 0 -10.4 0zM1787.44 474.68 a5.2 5.2 0 1 0 10.4 0 a5.2 5.2 0 1 0 -10.4 0zM1742.4 760.68 a5.2 5.2 0 1 0 10.4 0 a5.2 5.2 0 1 0 -10.4 0zM1787.44 786.68 a5.2 5.2 0 1 0 10.4 0 a5.2 5.2 0 1 0 -10.4 0zM1787.44 838.68 a5.2 5.2 0 1 0 10.4 0 a5.2 5.2 0 1 0 -10.4 0zM1697.37 786.68 a5.2 5.2 0 1 0 10.4 0 a5.2 5.2 0 1 0 -10.4 0zM1832.47 864.68 a5.2 5.2 0 1 0 10.4 0 a5.2 5.2 0 1 0 -10.4 0zM1832.47 916.68 a5.2 5.2 0 1 0 10.4 0 a5.2 5.2 0 1 0 -10.4 0zM1787.44 942.68 a5.2 5.2 0 1 0 10.4 0 a5.2 5.2 0 1 0 -10.4 0zM1787.44 994.68 a5.2 5.2 0 1 0 10.4 0 a5.2 5.2 0 1 0 -10.4 0zM1742.4 1020.68 a5.2 5.2 0 1 0 10.4 0 a5.2 5.2 0 1 0 -10.4 0zM1697.37 994.68 a5.2 5.2 0 1 0 10.4 0 a5.2 5.2 0 1 0 -10.4 0zM1832.47 1020.68 a5.2 5.2 0 1 0 10.4 0 a5.2 5.2 0 1 0 -10.4 0zM1832.47 1072.68 a5.2 5.2 0 1 0 10.4 0 a5.2 5.2 0 1 0 -10.4 0zM1787.44 1098.68 a5.2 5.2 0 1 0 10.4 0 a5.2 5.2 0 1 0 -10.4 0zM1742.4 1072.68 a5.2 5.2 0 1 0 10.4 0 a5.2 5.2 0 1 0 -10.4 0zM1787.44 1150.68 a5.2 5.2 0 1 0 10.4 0 a5.2 5.2 0 1 0 -10.4 0zM1697.37 1098.68 a5.2 5.2 0 1 0 10.4 0 a5.2 5.2 0 1 0 -10.4 0zM1832.47 1176.68 a5.2 5.2 0 1 0 10.4 0 a5.2 5.2 0 1 0 -10.4 0zM1832.47 1228.68 a5.2 5.2 0 1 0 10.4 0 a5.2 5.2 0 1 0 -10.4 0zM1787.44 1254.68 a5.2 5.2 0 1 0 10.4 0 a5.2 5.2 0 1 0 -10.4 0zM1877.51 214.68 a5.2 5.2 0 1 0 10.4 0 a5.2 5.2 0 1 0 -10.4 0zM1922.54 240.68 a5.2 5.2 0 1 0 10.4 0 a5.2 5.2 0 1 0 -10.4 0zM1922.54 292.68 a5.2 5.2 0 1 0 10.4 0 a5.2 5.2 0 1 0 -10.4 0zM1877.51 318.68 a5.2 5.2 0 1 0 10.4 0 a5.2 5.2 0 1 0 -10.4 0zM1832.47 292.68 a5.2 5.2 0 1 0 10.4 0 a5.2 5.2 0 1 0 -10.4 0zM1832.47 240.68 a5.2 5.2 0 1 0 10.4 0 a5.2 5.2 0 1 0 -10.4 0zM1877.51 370.68 a5.2 5.2 0 1 0 10.4 0 a5.2 5.2 0 1 0 -10.4 0zM1787.44 318.68 a5.2 5.2 0 1 0 10.4 0 a5.2 5.2 0 1 0 -10.4 0zM1877.51 474.68 a5.2 5.2 0 1 0 10.4 0 a5.2 5.2 0 1 0 -10.4 0zM1877.51 526.68 a5.2 5.2 0 1 0 10.4 0 a5.2 5.2 0 1 0 -10.4 0zM1832.47 552.68 a5.2 5.2 0 1 0 10.4 0 a5.2 5.2 0 1 0 -10.4 0zM1787.44 526.68 a5.2 5.2 0 1 0 10.4 0 a5.2 5.2 0 1 0 -10.4 0zM1922.54 552.68 a5.2 5.2 0 1 0 10.4 0 a5.2 5.2 0 1 0 -10.4 0zM1922.54 604.68 a5.2 5.2 0 1 0 10.4 0 a5.2 5.2 0 1 0 -10.4 0zM1877.51 630.68 a5.2 5.2 0 1 0 10.4 0 a5.2 5.2 0 1 0 -10.4 0zM1832.47 604.68 a5.2 5.2 0 1 0 10.4 0 a5.2 5.2 0 1 0 -10.4 0zM1877.51 682.68 a5.2 5.2 0 1 0 10.4 0 a5.2 5.2 0 1 0 -10.4 0zM1832.47 708.68 a5.2 5.2 0 1 0 10.4 0 a5.2 5.2 0 1 0 -10.4 0zM1787.44 682.68 a5.2 5.2 0 1 0 10.4 0 a5.2 5.2 0 1 0 -10.4 0zM1787.44 630.68 a5.2 5.2 0 1 0 10.4 0 a5.2 5.2 0 1 0 -10.4 0zM1922.54 708.68 a5.2 5.2 0 1 0 10.4 0 a5.2 5.2 0 1 0 -10.4 0zM1922.54 760.68 a5.2 5.2 0 1 0 10.4 0 a5.2 5.2 0 1 0 -10.4 0zM1877.51 786.68 a5.2 5.2 0 1 0 10.4 0 a5.2 5.2 0 1 0 -10.4 0zM1832.47 760.68 a5.2 5.2 0 1 0 10.4 0 a5.2 5.2 0 1 0 -10.4 0zM1877.51 838.68 a5.2 5.2 0 1 0 10.4 0 a5.2 5.2 0 1 0 -10.4 0zM1877.51 942.68 a5.2 5.2 0 1 0 10.4 0 a5.2 5.2 0 1 0 -10.4 0zM1877.51 994.68 a5.2 5.2 0 1 0 10.4 0 a5.2 5.2 0 1 0 -10.4 0zM1922.54 1020.68 a5.2 5.2 0 1 0 10.4 0 a5.2 5.2 0 1 0 -10.4 0zM1922.54 1072.68 a5.2 5.2 0 1 0 10.4 0 a5.2 5.2 0 1 0 -10.4 0zM1877.51 1098.68 a5.2 5.2 0 1 0 10.4 0 a5.2 5.2 0 1 0 -10.4 0zM1877.51 1150.68 a5.2 5.2 0 1 0 10.4 0 a5.2 5.2 0 1 0 -10.4 0zM1922.54 1176.68 a5.2 5.2 0 1 0 10.4 0 a5.2 5.2 0 1 0 -10.4 0zM1922.54 1228.68 a5.2 5.2 0 1 0 10.4 0 a5.2 5.2 0 1 0 -10.4 0zM1877.51 1254.68 a5.2 5.2 0 1 0 10.4 0 a5.2 5.2 0 1 0 -10.4 0zM1967.58 58.68 a5.2 5.2 0 1 0 10.4 0 a5.2 5.2 0 1 0 -10.4 0zM2012.61 84.68 a5.2 5.2 0 1 0 10.4 0 a5.2 5.2 0 1 0 -10.4 0zM2012.61 136.68 a5.2 5.2 0 1 0 10.4 0 a5.2 5.2 0 1 0 -10.4 0zM1967.58 162.68 a5.2 5.2 0 1 0 10.4 0 a5.2 5.2 0 1 0 -10.4 0zM1922.54 136.68 a5.2 5.2 0 1 0 10.4 0 a5.2 5.2 0 1 0 -10.4 0zM1922.54 84.68 a5.2 5.2 0 1 0 10.4 0 a5.2 5.2 0 1 0 -10.4 0zM1967.58 214.68 a5.2 5.2 0 1 0 10.4 0 a5.2 5.2 0 1 0 -10.4 0zM1877.51 162.68 a5.2 5.2 0 1 0 10.4 0 a5.2 5.2 0 1 0 -10.4 0zM1967.58 318.68 a5.2 5.2 0 1 0 10.4 0 a5.2 5.2 0 1 0 -10.4 0zM1967.58 370.68 a5.2 5.2 0 1 0 10.4 0 a5.2 5.2 0 1 0 -10.4 0zM1922.54 396.68 a5.2 5.2 0 1 0 10.4 0 a5.2 5.2 0 1 0 -10.4 0zM2012.61 396.68 a5.2 5.2 0 1 0 10.4 0 a5.2 5.2 0 1 0 -10.4 0zM2012.61 448.68 a5.2 5.2 0 1 0 10.4 0 a5.2 5.2 0 1 0 -10.4 0zM1967.58 474.68 a5.2 5.2 0 1 0 10.4 0 a5.2 5.2 0 1 0 -10.4 0zM1922.54 448.68 a5.2 5.2 0 1 0 10.4 0 a5.2 5.2 0 1 0 -10.4 0zM1967.58 630.68 a5.2 5.2 0 1 0 10.4 0 a5.2 5.2 0 1 0 -10.4 0zM1967.58 682.68 a5.2 5.2 0 1 0 10.4 0 a5.2 5.2 0 1 0 -10.4 0zM1967.58 838.68 a5.2 5.2 0 1 0 10.4 0 a5.2 5.2 0 1 0 -10.4 0zM2012.61 864.68 a5.2 5.2 0 1 0 10.4 0 a5.2 5.2 0 1 0 -10.4 0zM2012.61 916.68 a5.2 5.2 0 1 0 10.4 0 a5.2 5.2 0 1 0 -10.4 0zM1967.58 942.68 a5.2 5.2 0 1 0 10.4 0 a5.2 5.2 0 1 0 -10.4 0zM1922.54 916.68 a5.2 5.2 0 1 0 10.4 0 a5.2 5.2 0 1 0 -10.4 0zM1922.54 864.68 a5.2 5.2 0 1 0 10.4 0 a5.2 5.2 0 1 0 -10.4 0zM1967.58 1098.68 a5.2 5.2 0 1 0 10.4 0 a5.2 5.2 0 1 0 -10.4 0zM1967.58 1150.68 a5.2 5.2 0 1 0 10.4 0 a5.2 5.2 0 1 0 -10.4 0zM2012.61 1176.68 a5.2 5.2 0 1 0 10.4 0 a5.2 5.2 0 1 0 -10.4 0zM2012.61 1228.68 a5.2 5.2 0 1 0 10.4 0 a5.2 5.2 0 1 0 -10.4 0zM1967.58 1254.68 a5.2 5.2 0 1 0 10.4 0 a5.2 5.2 0 1 0 -10.4 0z" fill="url(&quot;#SvgjsRadialGradient3732&quot;)"></path><path d="M232.49 -39.53L308.71 4.47L308.71 92.47L232.49 136.47L156.28 92.47L156.28 4.47zM232.49 224.47L308.71 268.47L308.71 356.47L232.49 400.47L156.28 356.47L156.28 268.47zM232.49 488.47L308.71 532.47L308.71 620.47L232.49 664.47L156.28 620.47L156.28 532.47zM232.49 752.47L308.71 796.47L308.71 884.47L232.49 928.47L156.28 884.47L156.28 796.47zM308.71 884.47L384.92 928.47L384.92 1016.47L308.71 1060.47L232.49 1016.47L232.49 928.47zM384.92 224.47L461.13 268.47L461.13 356.47L384.92 400.47L308.71 356.47L308.71 268.47zM461.13 884.47L537.34 928.47L537.34 1016.47L461.13 1060.47L384.92 1016.47L384.92 928.47zM384.92 1016.47L461.13 1060.47L461.13 1148.47L384.92 1192.47L308.71 1148.47L308.71 1060.47zM461.13 1148.47L537.34 1192.47L537.34 1280.47L461.13 1324.47L384.92 1280.47L384.92 1192.47zM537.34 488.47L613.56 532.47L613.56 620.47L537.34 664.47L461.13 620.47L461.13 532.47zM537.34 752.47L613.56 796.47L613.56 884.47L537.34 928.47L461.13 884.47L461.13 796.47zM689.77 -39.53L765.98 4.47L765.98 92.47L689.77 136.47L613.56 92.47L613.56 4.47zM765.98 356.47L842.19 400.47L842.19 488.47L765.98 532.47L689.77 488.47L689.77 400.47zM765.98 620.47L842.19 664.47L842.19 752.47L765.98 796.47L689.77 752.47L689.77 664.47zM689.77 1016.47L765.98 1060.47L765.98 1148.47L689.77 1192.47L613.56 1148.47L613.56 1060.47zM918.41 620.47L994.62 664.47L994.62 752.47L918.41 796.47L842.19 752.47L842.19 664.47zM918.41 884.47L994.62 928.47L994.62 1016.47L918.41 1060.47L842.19 1016.47L842.19 928.47zM994.62 224.47L1070.83 268.47L1070.83 356.47L994.62 400.47L918.41 356.47L918.41 268.47zM994.62 488.47L1070.83 532.47L1070.83 620.47L994.62 664.47L918.41 620.47L918.41 532.47zM1070.83 620.47L1147.04 664.47L1147.04 752.47L1070.83 796.47L994.62 752.47L994.62 664.47zM994.62 752.47L1070.83 796.47L1070.83 884.47L994.62 928.47L918.41 884.47L918.41 796.47zM1147.04 488.47L1223.26 532.47L1223.26 620.47L1147.04 664.47L1070.83 620.47L1070.83 532.47zM1223.26 620.47L1299.47 664.47L1299.47 752.47L1223.26 796.47L1147.04 752.47L1147.04 664.47zM1147.04 752.47L1223.26 796.47L1223.26 884.47L1147.04 928.47L1070.83 884.47L1070.83 796.47zM1147.04 1016.47L1223.26 1060.47L1223.26 1148.47L1147.04 1192.47L1070.83 1148.47L1070.83 1060.47zM1451.89 224.47L1528.11 268.47L1528.11 356.47L1451.89 400.47L1375.68 356.47L1375.68 268.47zM1451.89 1016.47L1528.11 1060.47L1528.11 1148.47L1451.89 1192.47L1375.68 1148.47L1375.68 1060.47zM1528.11 1148.47L1604.32 1192.47L1604.32 1280.47L1528.11 1324.47L1451.89 1280.47L1451.89 1192.47zM1604.32 -39.53L1680.53 4.47L1680.53 92.47L1604.32 136.47L1528.11 92.47L1528.11 4.47zM1680.53 356.47L1756.74 400.47L1756.74 488.47L1680.53 532.47L1604.32 488.47L1604.32 400.47zM1680.53 620.47L1756.74 664.47L1756.74 752.47L1680.53 796.47L1604.32 752.47L1604.32 664.47zM1604.32 752.47L1680.53 796.47L1680.53 884.47L1604.32 928.47L1528.11 884.47L1528.11 796.47zM1680.53 1148.47L1756.74 1192.47L1756.74 1280.47L1680.53 1324.47L1604.32 1280.47L1604.32 1192.47zM1756.74 -39.53L1832.96 4.47L1832.96 92.47L1756.74 136.47L1680.53 92.47L1680.53 4.47zM1756.74 1016.47L1832.96 1060.47L1832.96 1148.47L1756.74 1192.47L1680.53 1148.47L1680.53 1060.47zM1909.17 -39.53L1985.38 4.47L1985.38 92.47L1909.17 136.47L1832.96 92.47L1832.96 4.47zM1985.38 92.47L2061.59 136.47L2061.59 224.47L1985.38 268.47L1909.17 224.47L1909.17 136.47zM1985.38 1148.47L2061.59 1192.47L2061.59 1280.47L1985.38 1324.47L1909.17 1280.47L1909.17 1192.47z" stroke="url(&quot;#SvgjsRadialGradient3733&quot;)" stroke-width="2"></path></g><defs><mask id="SvgjsMask3731"><rect width="1920" height="1200" fill="#ffffff"></rect></mask><radialGradient cx="960" cy="1200" r="1536.75" gradientUnits="userSpaceOnUse" id="SvgjsRadialGradient3732"><stop stop-color="rgba(172, 213, 255, 0.38)" offset="0"></stop><stop stop-color="rgba(188, 214, 240, 0.3)" offset="0.32"></stop><stop stop-color="rgba(255, 255, 255, 0)" offset="1"></stop></radialGradient><radialGradient cx="960" cy="1200" r="1536.75" gradientUnits="userSpaceOnUse" id="SvgjsRadialGradient3733"><stop stop-color="#0e2a47" offset="0"></stop><stop stop-color="rgba(190, 214, 241, 0.39)" offset="0.33"></stop><stop stop-color="rgba(255, 255, 255, 0)" offset="1"></stop></radialGradient></defs></svg>