<svg xmlns="http://www.w3.org/2000/svg" version="1.1" xmlns:xlink="http://www.w3.org/1999/xlink" xmlns:svgjs="http://svgjs.dev/svgjs" width="1920" height="1200" preserveAspectRatio="none" viewBox="0 0 1920 1200"><g mask="url(&quot;#SvgjsMask4325&quot;)" fill="none"><path d="M79.07 190.63L124.11 216.63L124.11 268.63L79.07 294.63L34.04 268.63L34.04 216.63zM34.04 268.63L79.07 294.63L79.07 346.63L34.04 372.63L-10.99 346.63L-10.99 294.63zM34.04 580.63L79.07 606.63L79.07 658.63L34.04 684.63L-10.99 658.63L-10.99 606.63zM34.04 892.63L79.07 918.63L79.07 970.63L34.04 996.63L-10.99 970.63L-10.99 918.63zM79.07 970.63L124.11 996.63L124.11 1048.63L79.07 1074.63L34.04 1048.63L34.04 996.63zM34.04 1048.63L79.07 1074.63L79.07 1126.63L34.04 1152.63L-10.99 1126.63L-10.99 1074.63zM79.07 1126.63L124.11 1152.63L124.11 1204.63L79.07 1230.63L34.04 1204.63L34.04 1152.63zM124.11 -43.37L169.14 -17.37L169.14 34.63L124.11 60.63L79.07 34.63L79.07 -17.37zM169.14 190.63L214.18 216.63L214.18 268.63L169.14 294.63L124.11 268.63L124.11 216.63zM124.11 424.63L169.14 450.63L169.14 502.63L124.11 528.63L79.07 502.63L79.07 450.63zM169.14 658.63L214.18 684.63L214.18 736.63L169.14 762.63L124.11 736.63L124.11 684.63zM124.11 736.63L169.14 762.63L169.14 814.63L124.11 840.63L79.07 814.63L79.07 762.63zM169.14 814.63L214.18 840.63L214.18 892.63L169.14 918.63L124.11 892.63L124.11 840.63zM124.11 892.63L169.14 918.63L169.14 970.63L124.11 996.63L79.07 970.63L79.07 918.63zM169.14 970.63L214.18 996.63L214.18 1048.63L169.14 1074.63L124.11 1048.63L124.11 996.63zM124.11 1048.63L169.14 1074.63L169.14 1126.63L124.11 1152.63L79.07 1126.63L79.07 1074.63zM259.21 190.63L304.25 216.63L304.25 268.63L259.21 294.63L214.18 268.63L214.18 216.63zM259.21 346.63L304.25 372.63L304.25 424.63L259.21 450.63L214.18 424.63L214.18 372.63zM214.18 424.63L259.21 450.63L259.21 502.63L214.18 528.63L169.14 502.63L169.14 450.63zM259.21 502.63L304.25 528.63L304.25 580.63L259.21 606.63L214.18 580.63L214.18 528.63zM259.21 658.63L304.25 684.63L304.25 736.63L259.21 762.63L214.18 736.63L214.18 684.63zM214.18 736.63L259.21 762.63L259.21 814.63L214.18 840.63L169.14 814.63L169.14 762.63zM259.21 814.63L304.25 840.63L304.25 892.63L259.21 918.63L214.18 892.63L214.18 840.63zM304.25 112.63L349.28 138.63L349.28 190.63L304.25 216.63L259.21 190.63L259.21 138.63zM304.25 268.63L349.28 294.63L349.28 346.63L304.25 372.63L259.21 346.63L259.21 294.63zM349.28 346.63L394.32 372.63L394.32 424.63L349.28 450.63L304.25 424.63L304.25 372.63zM304.25 424.63L349.28 450.63L349.28 502.63L304.25 528.63L259.21 502.63L259.21 450.63zM349.28 502.63L394.32 528.63L394.32 580.63L349.28 606.63L304.25 580.63L304.25 528.63zM304.25 736.63L349.28 762.63L349.28 814.63L304.25 840.63L259.21 814.63L259.21 762.63zM349.28 814.63L394.32 840.63L394.32 892.63L349.28 918.63L304.25 892.63L304.25 840.63zM304.25 892.63L349.28 918.63L349.28 970.63L304.25 996.63L259.21 970.63L259.21 918.63zM304.25 1048.63L349.28 1074.63L349.28 1126.63L304.25 1152.63L259.21 1126.63L259.21 1074.63zM394.32 112.63L439.35 138.63L439.35 190.63L394.32 216.63L349.28 190.63L349.28 138.63zM439.35 190.63L484.39 216.63L484.39 268.63L439.35 294.63L394.32 268.63L394.32 216.63zM394.32 424.63L439.35 450.63L439.35 502.63L394.32 528.63L349.28 502.63L349.28 450.63zM394.32 580.63L439.35 606.63L439.35 658.63L394.32 684.63L349.28 658.63L349.28 606.63zM394.32 736.63L439.35 762.63L439.35 814.63L394.32 840.63L349.28 814.63L349.28 762.63zM439.35 970.63L484.39 996.63L484.39 1048.63L439.35 1074.63L394.32 1048.63L394.32 996.63zM484.39 112.63L529.42 138.63L529.42 190.63L484.39 216.63L439.35 190.63L439.35 138.63zM484.39 268.63L529.42 294.63L529.42 346.63L484.39 372.63L439.35 346.63L439.35 294.63zM484.39 736.63L529.42 762.63L529.42 814.63L484.39 840.63L439.35 814.63L439.35 762.63zM484.39 892.63L529.42 918.63L529.42 970.63L484.39 996.63L439.35 970.63L439.35 918.63zM529.42 970.63L574.46 996.63L574.46 1048.63L529.42 1074.63L484.39 1048.63L484.39 996.63zM619.49 346.63L664.52 372.63L664.52 424.63L619.49 450.63L574.46 424.63L574.46 372.63zM619.49 502.63L664.52 528.63L664.52 580.63L619.49 606.63L574.46 580.63L574.46 528.63zM574.46 736.63L619.49 762.63L619.49 814.63L574.46 840.63L529.42 814.63L529.42 762.63zM574.46 892.63L619.49 918.63L619.49 970.63L574.46 996.63L529.42 970.63L529.42 918.63zM619.49 970.63L664.52 996.63L664.52 1048.63L619.49 1074.63L574.46 1048.63L574.46 996.63zM619.49 1126.63L664.52 1152.63L664.52 1204.63L619.49 1230.63L574.46 1204.63L574.46 1152.63zM664.52 -43.37L709.56 -17.37L709.56 34.63L664.52 60.63L619.49 34.63L619.49 -17.37zM709.56 34.63L754.59 60.63L754.59 112.63L709.56 138.63L664.52 112.63L664.52 60.63zM664.52 112.63L709.56 138.63L709.56 190.63L664.52 216.63L619.49 190.63L619.49 138.63zM664.52 1048.63L709.56 1074.63L709.56 1126.63L664.52 1152.63L619.49 1126.63L619.49 1074.63zM799.63 34.63L844.66 60.63L844.66 112.63L799.63 138.63L754.59 112.63L754.59 60.63zM799.63 502.63L844.66 528.63L844.66 580.63L799.63 606.63L754.59 580.63L754.59 528.63zM754.59 580.63L799.63 606.63L799.63 658.63L754.59 684.63L709.56 658.63L709.56 606.63zM754.59 892.63L799.63 918.63L799.63 970.63L754.59 996.63L709.56 970.63L709.56 918.63zM799.63 970.63L844.66 996.63L844.66 1048.63L799.63 1074.63L754.59 1048.63L754.59 996.63zM754.59 1048.63L799.63 1074.63L799.63 1126.63L754.59 1152.63L709.56 1126.63L709.56 1074.63zM799.63 1126.63L844.66 1152.63L844.66 1204.63L799.63 1230.63L754.59 1204.63L754.59 1152.63zM844.66 -43.37L889.7 -17.37L889.7 34.63L844.66 60.63L799.63 34.63L799.63 -17.37zM844.66 268.63L889.7 294.63L889.7 346.63L844.66 372.63L799.63 346.63L799.63 294.63zM889.7 346.63L934.73 372.63L934.73 424.63L889.7 450.63L844.66 424.63L844.66 372.63zM844.66 424.63L889.7 450.63L889.7 502.63L844.66 528.63L799.63 502.63L799.63 450.63zM889.7 502.63L934.73 528.63L934.73 580.63L889.7 606.63L844.66 580.63L844.66 528.63zM844.66 580.63L889.7 606.63L889.7 658.63L844.66 684.63L799.63 658.63L799.63 606.63zM889.7 658.63L934.73 684.63L934.73 736.63L889.7 762.63L844.66 736.63L844.66 684.63zM844.66 892.63L889.7 918.63L889.7 970.63L844.66 996.63L799.63 970.63L799.63 918.63zM889.7 970.63L934.73 996.63L934.73 1048.63L889.7 1074.63L844.66 1048.63L844.66 996.63zM934.73 112.63L979.77 138.63L979.77 190.63L934.73 216.63L889.7 190.63L889.7 138.63zM934.73 580.63L979.77 606.63L979.77 658.63L934.73 684.63L889.7 658.63L889.7 606.63zM979.77 970.63L1024.8 996.63L1024.8 1048.63L979.77 1074.63L934.73 1048.63L934.73 996.63zM1024.8 -43.37L1069.84 -17.37L1069.84 34.63L1024.8 60.63L979.77 34.63L979.77 -17.37zM1069.84 34.63L1114.87 60.63L1114.87 112.63L1069.84 138.63L1024.8 112.63L1024.8 60.63zM1024.8 424.63L1069.84 450.63L1069.84 502.63L1024.8 528.63L979.77 502.63L979.77 450.63zM1069.84 502.63L1114.87 528.63L1114.87 580.63L1069.84 606.63L1024.8 580.63L1024.8 528.63zM1024.8 580.63L1069.84 606.63L1069.84 658.63L1024.8 684.63L979.77 658.63L979.77 606.63zM1069.84 658.63L1114.87 684.63L1114.87 736.63L1069.84 762.63L1024.8 736.63L1024.8 684.63zM1069.84 814.63L1114.87 840.63L1114.87 892.63L1069.84 918.63L1024.8 892.63L1024.8 840.63zM1069.84 970.63L1114.87 996.63L1114.87 1048.63L1069.84 1074.63L1024.8 1048.63L1024.8 996.63zM1024.8 1048.63L1069.84 1074.63L1069.84 1126.63L1024.8 1152.63L979.77 1126.63L979.77 1074.63zM1069.84 1126.63L1114.87 1152.63L1114.87 1204.63L1069.84 1230.63L1024.8 1204.63L1024.8 1152.63zM1114.87 -43.37L1159.9 -17.37L1159.9 34.63L1114.87 60.63L1069.84 34.63L1069.84 -17.37zM1159.9 190.63L1204.94 216.63L1204.94 268.63L1159.9 294.63L1114.87 268.63L1114.87 216.63zM1114.87 580.63L1159.9 606.63L1159.9 658.63L1114.87 684.63L1069.84 658.63L1069.84 606.63zM1159.9 658.63L1204.94 684.63L1204.94 736.63L1159.9 762.63L1114.87 736.63L1114.87 684.63zM1114.87 736.63L1159.9 762.63L1159.9 814.63L1114.87 840.63L1069.84 814.63L1069.84 762.63zM1114.87 892.63L1159.9 918.63L1159.9 970.63L1114.87 996.63L1069.84 970.63L1069.84 918.63zM1249.97 346.63L1295.01 372.63L1295.01 424.63L1249.97 450.63L1204.94 424.63L1204.94 372.63zM1249.97 658.63L1295.01 684.63L1295.01 736.63L1249.97 762.63L1204.94 736.63L1204.94 684.63zM1204.94 1048.63L1249.97 1074.63L1249.97 1126.63L1204.94 1152.63L1159.9 1126.63L1159.9 1074.63zM1295.01 268.63L1340.04 294.63L1340.04 346.63L1295.01 372.63L1249.97 346.63L1249.97 294.63zM1340.04 346.63L1385.08 372.63L1385.08 424.63L1340.04 450.63L1295.01 424.63L1295.01 372.63zM1340.04 658.63L1385.08 684.63L1385.08 736.63L1340.04 762.63L1295.01 736.63L1295.01 684.63zM1295.01 736.63L1340.04 762.63L1340.04 814.63L1295.01 840.63L1249.97 814.63L1249.97 762.63zM1340.04 814.63L1385.08 840.63L1385.08 892.63L1340.04 918.63L1295.01 892.63L1295.01 840.63zM1295.01 892.63L1340.04 918.63L1340.04 970.63L1295.01 996.63L1249.97 970.63L1249.97 918.63zM1340.04 970.63L1385.08 996.63L1385.08 1048.63L1340.04 1074.63L1295.01 1048.63L1295.01 996.63zM1295.01 1048.63L1340.04 1074.63L1340.04 1126.63L1295.01 1152.63L1249.97 1126.63L1249.97 1074.63zM1385.08 112.63L1430.11 138.63L1430.11 190.63L1385.08 216.63L1340.04 190.63L1340.04 138.63zM1385.08 268.63L1430.11 294.63L1430.11 346.63L1385.08 372.63L1340.04 346.63L1340.04 294.63zM1430.11 502.63L1475.15 528.63L1475.15 580.63L1430.11 606.63L1385.08 580.63L1385.08 528.63zM1385.08 580.63L1430.11 606.63L1430.11 658.63L1385.08 684.63L1340.04 658.63L1340.04 606.63zM1385.08 736.63L1430.11 762.63L1430.11 814.63L1385.08 840.63L1340.04 814.63L1340.04 762.63zM1430.11 814.63L1475.15 840.63L1475.15 892.63L1430.11 918.63L1385.08 892.63L1385.08 840.63zM1430.11 970.63L1475.15 996.63L1475.15 1048.63L1430.11 1074.63L1385.08 1048.63L1385.08 996.63zM1430.11 1126.63L1475.15 1152.63L1475.15 1204.63L1430.11 1230.63L1385.08 1204.63L1385.08 1152.63zM1475.15 -43.37L1520.18 -17.37L1520.18 34.63L1475.15 60.63L1430.11 34.63L1430.11 -17.37zM1475.15 112.63L1520.18 138.63L1520.18 190.63L1475.15 216.63L1430.11 190.63L1430.11 138.63zM1475.15 424.63L1520.18 450.63L1520.18 502.63L1475.15 528.63L1430.11 502.63L1430.11 450.63zM1475.15 580.63L1520.18 606.63L1520.18 658.63L1475.15 684.63L1430.11 658.63L1430.11 606.63zM1520.18 658.63L1565.22 684.63L1565.22 736.63L1520.18 762.63L1475.15 736.63L1475.15 684.63zM1520.18 814.63L1565.22 840.63L1565.22 892.63L1520.18 918.63L1475.15 892.63L1475.15 840.63zM1475.15 892.63L1520.18 918.63L1520.18 970.63L1475.15 996.63L1430.11 970.63L1430.11 918.63zM1520.18 970.63L1565.22 996.63L1565.22 1048.63L1520.18 1074.63L1475.15 1048.63L1475.15 996.63zM1475.15 1048.63L1520.18 1074.63L1520.18 1126.63L1475.15 1152.63L1430.11 1126.63L1430.11 1074.63zM1520.18 1126.63L1565.22 1152.63L1565.22 1204.63L1520.18 1230.63L1475.15 1204.63L1475.15 1152.63zM1565.22 -43.37L1610.25 -17.37L1610.25 34.63L1565.22 60.63L1520.18 34.63L1520.18 -17.37zM1565.22 112.63L1610.25 138.63L1610.25 190.63L1565.22 216.63L1520.18 190.63L1520.18 138.63zM1610.25 190.63L1655.29 216.63L1655.29 268.63L1610.25 294.63L1565.22 268.63L1565.22 216.63zM1565.22 268.63L1610.25 294.63L1610.25 346.63L1565.22 372.63L1520.18 346.63L1520.18 294.63zM1610.25 814.63L1655.29 840.63L1655.29 892.63L1610.25 918.63L1565.22 892.63L1565.22 840.63zM1565.22 892.63L1610.25 918.63L1610.25 970.63L1565.22 996.63L1520.18 970.63L1520.18 918.63zM1610.25 970.63L1655.29 996.63L1655.29 1048.63L1610.25 1074.63L1565.22 1048.63L1565.22 996.63zM1610.25 1126.63L1655.29 1152.63L1655.29 1204.63L1610.25 1230.63L1565.22 1204.63L1565.22 1152.63zM1655.29 -43.37L1700.32 -17.37L1700.32 34.63L1655.29 60.63L1610.25 34.63L1610.25 -17.37zM1700.32 190.63L1745.35 216.63L1745.35 268.63L1700.32 294.63L1655.29 268.63L1655.29 216.63zM1655.29 268.63L1700.32 294.63L1700.32 346.63L1655.29 372.63L1610.25 346.63L1610.25 294.63zM1700.32 346.63L1745.35 372.63L1745.35 424.63L1700.32 450.63L1655.29 424.63L1655.29 372.63zM1655.29 424.63L1700.32 450.63L1700.32 502.63L1655.29 528.63L1610.25 502.63L1610.25 450.63zM1655.29 580.63L1700.32 606.63L1700.32 658.63L1655.29 684.63L1610.25 658.63L1610.25 606.63zM1700.32 814.63L1745.35 840.63L1745.35 892.63L1700.32 918.63L1655.29 892.63L1655.29 840.63zM1700.32 970.63L1745.35 996.63L1745.35 1048.63L1700.32 1074.63L1655.29 1048.63L1655.29 996.63zM1655.29 1048.63L1700.32 1074.63L1700.32 1126.63L1655.29 1152.63L1610.25 1126.63L1610.25 1074.63zM1700.32 1126.63L1745.35 1152.63L1745.35 1204.63L1700.32 1230.63L1655.29 1204.63L1655.29 1152.63zM1790.39 34.63L1835.42 60.63L1835.42 112.63L1790.39 138.63L1745.35 112.63L1745.35 60.63zM1790.39 190.63L1835.42 216.63L1835.42 268.63L1790.39 294.63L1745.35 268.63L1745.35 216.63zM1790.39 502.63L1835.42 528.63L1835.42 580.63L1790.39 606.63L1745.35 580.63L1745.35 528.63zM1790.39 814.63L1835.42 840.63L1835.42 892.63L1790.39 918.63L1745.35 892.63L1745.35 840.63zM1745.35 892.63L1790.39 918.63L1790.39 970.63L1745.35 996.63L1700.32 970.63L1700.32 918.63zM1790.39 970.63L1835.42 996.63L1835.42 1048.63L1790.39 1074.63L1745.35 1048.63L1745.35 996.63zM1835.42 112.63L1880.46 138.63L1880.46 190.63L1835.42 216.63L1790.39 190.63L1790.39 138.63zM1880.46 190.63L1925.49 216.63L1925.49 268.63L1880.46 294.63L1835.42 268.63L1835.42 216.63zM1835.42 424.63L1880.46 450.63L1880.46 502.63L1835.42 528.63L1790.39 502.63L1790.39 450.63zM1880.46 502.63L1925.49 528.63L1925.49 580.63L1880.46 606.63L1835.42 580.63L1835.42 528.63zM1880.46 814.63L1925.49 840.63L1925.49 892.63L1880.46 918.63L1835.42 892.63L1835.42 840.63zM1835.42 892.63L1880.46 918.63L1880.46 970.63L1835.42 996.63L1790.39 970.63L1790.39 918.63zM1835.42 1048.63L1880.46 1074.63L1880.46 1126.63L1835.42 1152.63L1790.39 1126.63L1790.39 1074.63zM1880.46 1126.63L1925.49 1152.63L1925.49 1204.63L1880.46 1230.63L1835.42 1204.63L1835.42 1152.63zM1970.53 190.63L2015.56 216.63L2015.56 268.63L1970.53 294.63L1925.49 268.63L1925.49 216.63zM1970.53 346.63L2015.56 372.63L2015.56 424.63L1970.53 450.63L1925.49 424.63L1925.49 372.63zM1970.53 502.63L2015.56 528.63L2015.56 580.63L1970.53 606.63L1925.49 580.63L1925.49 528.63zM1925.49 736.63L1970.53 762.63L1970.53 814.63L1925.49 840.63L1880.46 814.63L1880.46 762.63zM1970.53 814.63L2015.56 840.63L2015.56 892.63L1970.53 918.63L1925.49 892.63L1925.49 840.63zM1970.53 970.63L2015.56 996.63L2015.56 1048.63L1970.53 1074.63L1925.49 1048.63L1925.49 996.63zM1970.53 1126.63L2015.56 1152.63L2015.56 1204.63L1970.53 1230.63L1925.49 1204.63L1925.49 1152.63z" stroke="url(&quot;#SvgjsRadialGradient4326&quot;)" stroke-width="2"></path><path d="M73.87 190.63 a5.2 5.2 0 1 0 10.4 0 a5.2 5.2 0 1 0 -10.4 0zM118.91 216.63 a5.2 5.2 0 1 0 10.4 0 a5.2 5.2 0 1 0 -10.4 0zM118.91 268.63 a5.2 5.2 0 1 0 10.4 0 a5.2 5.2 0 1 0 -10.4 0zM73.87 294.63 a5.2 5.2 0 1 0 10.4 0 a5.2 5.2 0 1 0 -10.4 0zM28.84 268.63 a5.2 5.2 0 1 0 10.4 0 a5.2 5.2 0 1 0 -10.4 0zM28.84 216.63 a5.2 5.2 0 1 0 10.4 0 a5.2 5.2 0 1 0 -10.4 0zM73.87 346.63 a5.2 5.2 0 1 0 10.4 0 a5.2 5.2 0 1 0 -10.4 0zM28.84 372.63 a5.2 5.2 0 1 0 10.4 0 a5.2 5.2 0 1 0 -10.4 0zM-16.19 346.63 a5.2 5.2 0 1 0 10.4 0 a5.2 5.2 0 1 0 -10.4 0zM-16.19 294.63 a5.2 5.2 0 1 0 10.4 0 a5.2 5.2 0 1 0 -10.4 0zM28.84 580.63 a5.2 5.2 0 1 0 10.4 0 a5.2 5.2 0 1 0 -10.4 0zM73.87 606.63 a5.2 5.2 0 1 0 10.4 0 a5.2 5.2 0 1 0 -10.4 0zM73.87 658.63 a5.2 5.2 0 1 0 10.4 0 a5.2 5.2 0 1 0 -10.4 0zM28.84 684.63 a5.2 5.2 0 1 0 10.4 0 a5.2 5.2 0 1 0 -10.4 0zM-16.19 658.63 a5.2 5.2 0 1 0 10.4 0 a5.2 5.2 0 1 0 -10.4 0zM-16.19 606.63 a5.2 5.2 0 1 0 10.4 0 a5.2 5.2 0 1 0 -10.4 0zM28.84 892.63 a5.2 5.2 0 1 0 10.4 0 a5.2 5.2 0 1 0 -10.4 0zM73.87 918.63 a5.2 5.2 0 1 0 10.4 0 a5.2 5.2 0 1 0 -10.4 0zM73.87 970.63 a5.2 5.2 0 1 0 10.4 0 a5.2 5.2 0 1 0 -10.4 0zM28.84 996.63 a5.2 5.2 0 1 0 10.4 0 a5.2 5.2 0 1 0 -10.4 0zM-16.19 970.63 a5.2 5.2 0 1 0 10.4 0 a5.2 5.2 0 1 0 -10.4 0zM-16.19 918.63 a5.2 5.2 0 1 0 10.4 0 a5.2 5.2 0 1 0 -10.4 0zM118.91 996.63 a5.2 5.2 0 1 0 10.4 0 a5.2 5.2 0 1 0 -10.4 0zM118.91 1048.63 a5.2 5.2 0 1 0 10.4 0 a5.2 5.2 0 1 0 -10.4 0zM73.87 1074.63 a5.2 5.2 0 1 0 10.4 0 a5.2 5.2 0 1 0 -10.4 0zM28.84 1048.63 a5.2 5.2 0 1 0 10.4 0 a5.2 5.2 0 1 0 -10.4 0zM73.87 1126.63 a5.2 5.2 0 1 0 10.4 0 a5.2 5.2 0 1 0 -10.4 0zM28.84 1152.63 a5.2 5.2 0 1 0 10.4 0 a5.2 5.2 0 1 0 -10.4 0zM-16.19 1126.63 a5.2 5.2 0 1 0 10.4 0 a5.2 5.2 0 1 0 -10.4 0zM-16.19 1074.63 a5.2 5.2 0 1 0 10.4 0 a5.2 5.2 0 1 0 -10.4 0zM118.91 1152.63 a5.2 5.2 0 1 0 10.4 0 a5.2 5.2 0 1 0 -10.4 0zM118.91 1204.63 a5.2 5.2 0 1 0 10.4 0 a5.2 5.2 0 1 0 -10.4 0zM73.87 1230.63 a5.2 5.2 0 1 0 10.4 0 a5.2 5.2 0 1 0 -10.4 0zM28.84 1204.63 a5.2 5.2 0 1 0 10.4 0 a5.2 5.2 0 1 0 -10.4 0zM118.91 -43.37 a5.2 5.2 0 1 0 10.4 0 a5.2 5.2 0 1 0 -10.4 0zM163.94 -17.37 a5.2 5.2 0 1 0 10.4 0 a5.2 5.2 0 1 0 -10.4 0zM163.94 34.63 a5.2 5.2 0 1 0 10.4 0 a5.2 5.2 0 1 0 -10.4 0zM118.91 60.63 a5.2 5.2 0 1 0 10.4 0 a5.2 5.2 0 1 0 -10.4 0zM73.87 34.63 a5.2 5.2 0 1 0 10.4 0 a5.2 5.2 0 1 0 -10.4 0zM73.87 -17.37 a5.2 5.2 0 1 0 10.4 0 a5.2 5.2 0 1 0 -10.4 0zM163.94 190.63 a5.2 5.2 0 1 0 10.4 0 a5.2 5.2 0 1 0 -10.4 0zM208.98 216.63 a5.2 5.2 0 1 0 10.4 0 a5.2 5.2 0 1 0 -10.4 0zM208.98 268.63 a5.2 5.2 0 1 0 10.4 0 a5.2 5.2 0 1 0 -10.4 0zM163.94 294.63 a5.2 5.2 0 1 0 10.4 0 a5.2 5.2 0 1 0 -10.4 0zM118.91 424.63 a5.2 5.2 0 1 0 10.4 0 a5.2 5.2 0 1 0 -10.4 0zM163.94 450.63 a5.2 5.2 0 1 0 10.4 0 a5.2 5.2 0 1 0 -10.4 0zM163.94 502.63 a5.2 5.2 0 1 0 10.4 0 a5.2 5.2 0 1 0 -10.4 0zM118.91 528.63 a5.2 5.2 0 1 0 10.4 0 a5.2 5.2 0 1 0 -10.4 0zM73.87 502.63 a5.2 5.2 0 1 0 10.4 0 a5.2 5.2 0 1 0 -10.4 0zM73.87 450.63 a5.2 5.2 0 1 0 10.4 0 a5.2 5.2 0 1 0 -10.4 0zM163.94 658.63 a5.2 5.2 0 1 0 10.4 0 a5.2 5.2 0 1 0 -10.4 0zM208.98 684.63 a5.2 5.2 0 1 0 10.4 0 a5.2 5.2 0 1 0 -10.4 0zM208.98 736.63 a5.2 5.2 0 1 0 10.4 0 a5.2 5.2 0 1 0 -10.4 0zM163.94 762.63 a5.2 5.2 0 1 0 10.4 0 a5.2 5.2 0 1 0 -10.4 0zM118.91 736.63 a5.2 5.2 0 1 0 10.4 0 a5.2 5.2 0 1 0 -10.4 0zM118.91 684.63 a5.2 5.2 0 1 0 10.4 0 a5.2 5.2 0 1 0 -10.4 0zM163.94 814.63 a5.2 5.2 0 1 0 10.4 0 a5.2 5.2 0 1 0 -10.4 0zM118.91 840.63 a5.2 5.2 0 1 0 10.4 0 a5.2 5.2 0 1 0 -10.4 0zM73.87 814.63 a5.2 5.2 0 1 0 10.4 0 a5.2 5.2 0 1 0 -10.4 0zM73.87 762.63 a5.2 5.2 0 1 0 10.4 0 a5.2 5.2 0 1 0 -10.4 0zM208.98 840.63 a5.2 5.2 0 1 0 10.4 0 a5.2 5.2 0 1 0 -10.4 0zM208.98 892.63 a5.2 5.2 0 1 0 10.4 0 a5.2 5.2 0 1 0 -10.4 0zM163.94 918.63 a5.2 5.2 0 1 0 10.4 0 a5.2 5.2 0 1 0 -10.4 0zM118.91 892.63 a5.2 5.2 0 1 0 10.4 0 a5.2 5.2 0 1 0 -10.4 0zM163.94 970.63 a5.2 5.2 0 1 0 10.4 0 a5.2 5.2 0 1 0 -10.4 0zM208.98 996.63 a5.2 5.2 0 1 0 10.4 0 a5.2 5.2 0 1 0 -10.4 0zM208.98 1048.63 a5.2 5.2 0 1 0 10.4 0 a5.2 5.2 0 1 0 -10.4 0zM163.94 1074.63 a5.2 5.2 0 1 0 10.4 0 a5.2 5.2 0 1 0 -10.4 0zM163.94 1126.63 a5.2 5.2 0 1 0 10.4 0 a5.2 5.2 0 1 0 -10.4 0zM254.01 190.63 a5.2 5.2 0 1 0 10.4 0 a5.2 5.2 0 1 0 -10.4 0zM299.05 216.63 a5.2 5.2 0 1 0 10.4 0 a5.2 5.2 0 1 0 -10.4 0zM299.05 268.63 a5.2 5.2 0 1 0 10.4 0 a5.2 5.2 0 1 0 -10.4 0zM254.01 294.63 a5.2 5.2 0 1 0 10.4 0 a5.2 5.2 0 1 0 -10.4 0zM254.01 346.63 a5.2 5.2 0 1 0 10.4 0 a5.2 5.2 0 1 0 -10.4 0zM299.05 372.63 a5.2 5.2 0 1 0 10.4 0 a5.2 5.2 0 1 0 -10.4 0zM299.05 424.63 a5.2 5.2 0 1 0 10.4 0 a5.2 5.2 0 1 0 -10.4 0zM254.01 450.63 a5.2 5.2 0 1 0 10.4 0 a5.2 5.2 0 1 0 -10.4 0zM208.98 424.63 a5.2 5.2 0 1 0 10.4 0 a5.2 5.2 0 1 0 -10.4 0zM208.98 372.63 a5.2 5.2 0 1 0 10.4 0 a5.2 5.2 0 1 0 -10.4 0zM254.01 502.63 a5.2 5.2 0 1 0 10.4 0 a5.2 5.2 0 1 0 -10.4 0zM208.98 528.63 a5.2 5.2 0 1 0 10.4 0 a5.2 5.2 0 1 0 -10.4 0zM299.05 528.63 a5.2 5.2 0 1 0 10.4 0 a5.2 5.2 0 1 0 -10.4 0zM299.05 580.63 a5.2 5.2 0 1 0 10.4 0 a5.2 5.2 0 1 0 -10.4 0zM254.01 606.63 a5.2 5.2 0 1 0 10.4 0 a5.2 5.2 0 1 0 -10.4 0zM208.98 580.63 a5.2 5.2 0 1 0 10.4 0 a5.2 5.2 0 1 0 -10.4 0zM254.01 658.63 a5.2 5.2 0 1 0 10.4 0 a5.2 5.2 0 1 0 -10.4 0zM299.05 684.63 a5.2 5.2 0 1 0 10.4 0 a5.2 5.2 0 1 0 -10.4 0zM299.05 736.63 a5.2 5.2 0 1 0 10.4 0 a5.2 5.2 0 1 0 -10.4 0zM254.01 762.63 a5.2 5.2 0 1 0 10.4 0 a5.2 5.2 0 1 0 -10.4 0zM254.01 814.63 a5.2 5.2 0 1 0 10.4 0 a5.2 5.2 0 1 0 -10.4 0zM299.05 840.63 a5.2 5.2 0 1 0 10.4 0 a5.2 5.2 0 1 0 -10.4 0zM299.05 892.63 a5.2 5.2 0 1 0 10.4 0 a5.2 5.2 0 1 0 -10.4 0zM254.01 918.63 a5.2 5.2 0 1 0 10.4 0 a5.2 5.2 0 1 0 -10.4 0zM299.05 112.63 a5.2 5.2 0 1 0 10.4 0 a5.2 5.2 0 1 0 -10.4 0zM344.08 138.63 a5.2 5.2 0 1 0 10.4 0 a5.2 5.2 0 1 0 -10.4 0zM344.08 190.63 a5.2 5.2 0 1 0 10.4 0 a5.2 5.2 0 1 0 -10.4 0zM254.01 138.63 a5.2 5.2 0 1 0 10.4 0 a5.2 5.2 0 1 0 -10.4 0zM344.08 294.63 a5.2 5.2 0 1 0 10.4 0 a5.2 5.2 0 1 0 -10.4 0zM344.08 346.63 a5.2 5.2 0 1 0 10.4 0 a5.2 5.2 0 1 0 -10.4 0zM389.12 372.63 a5.2 5.2 0 1 0 10.4 0 a5.2 5.2 0 1 0 -10.4 0zM389.12 424.63 a5.2 5.2 0 1 0 10.4 0 a5.2 5.2 0 1 0 -10.4 0zM344.08 450.63 a5.2 5.2 0 1 0 10.4 0 a5.2 5.2 0 1 0 -10.4 0zM344.08 502.63 a5.2 5.2 0 1 0 10.4 0 a5.2 5.2 0 1 0 -10.4 0zM389.12 528.63 a5.2 5.2 0 1 0 10.4 0 a5.2 5.2 0 1 0 -10.4 0zM389.12 580.63 a5.2 5.2 0 1 0 10.4 0 a5.2 5.2 0 1 0 -10.4 0zM344.08 606.63 a5.2 5.2 0 1 0 10.4 0 a5.2 5.2 0 1 0 -10.4 0zM344.08 762.63 a5.2 5.2 0 1 0 10.4 0 a5.2 5.2 0 1 0 -10.4 0zM344.08 814.63 a5.2 5.2 0 1 0 10.4 0 a5.2 5.2 0 1 0 -10.4 0zM389.12 840.63 a5.2 5.2 0 1 0 10.4 0 a5.2 5.2 0 1 0 -10.4 0zM389.12 892.63 a5.2 5.2 0 1 0 10.4 0 a5.2 5.2 0 1 0 -10.4 0zM344.08 918.63 a5.2 5.2 0 1 0 10.4 0 a5.2 5.2 0 1 0 -10.4 0zM344.08 970.63 a5.2 5.2 0 1 0 10.4 0 a5.2 5.2 0 1 0 -10.4 0zM299.05 996.63 a5.2 5.2 0 1 0 10.4 0 a5.2 5.2 0 1 0 -10.4 0zM254.01 970.63 a5.2 5.2 0 1 0 10.4 0 a5.2 5.2 0 1 0 -10.4 0zM299.05 1048.63 a5.2 5.2 0 1 0 10.4 0 a5.2 5.2 0 1 0 -10.4 0zM344.08 1074.63 a5.2 5.2 0 1 0 10.4 0 a5.2 5.2 0 1 0 -10.4 0zM344.08 1126.63 a5.2 5.2 0 1 0 10.4 0 a5.2 5.2 0 1 0 -10.4 0zM299.05 1152.63 a5.2 5.2 0 1 0 10.4 0 a5.2 5.2 0 1 0 -10.4 0zM254.01 1126.63 a5.2 5.2 0 1 0 10.4 0 a5.2 5.2 0 1 0 -10.4 0zM254.01 1074.63 a5.2 5.2 0 1 0 10.4 0 a5.2 5.2 0 1 0 -10.4 0zM389.12 112.63 a5.2 5.2 0 1 0 10.4 0 a5.2 5.2 0 1 0 -10.4 0zM434.15 138.63 a5.2 5.2 0 1 0 10.4 0 a5.2 5.2 0 1 0 -10.4 0zM434.15 190.63 a5.2 5.2 0 1 0 10.4 0 a5.2 5.2 0 1 0 -10.4 0zM389.12 216.63 a5.2 5.2 0 1 0 10.4 0 a5.2 5.2 0 1 0 -10.4 0zM479.19 216.63 a5.2 5.2 0 1 0 10.4 0 a5.2 5.2 0 1 0 -10.4 0zM479.19 268.63 a5.2 5.2 0 1 0 10.4 0 a5.2 5.2 0 1 0 -10.4 0zM434.15 294.63 a5.2 5.2 0 1 0 10.4 0 a5.2 5.2 0 1 0 -10.4 0zM389.12 268.63 a5.2 5.2 0 1 0 10.4 0 a5.2 5.2 0 1 0 -10.4 0zM434.15 450.63 a5.2 5.2 0 1 0 10.4 0 a5.2 5.2 0 1 0 -10.4 0zM434.15 502.63 a5.2 5.2 0 1 0 10.4 0 a5.2 5.2 0 1 0 -10.4 0zM434.15 606.63 a5.2 5.2 0 1 0 10.4 0 a5.2 5.2 0 1 0 -10.4 0zM434.15 658.63 a5.2 5.2 0 1 0 10.4 0 a5.2 5.2 0 1 0 -10.4 0zM389.12 684.63 a5.2 5.2 0 1 0 10.4 0 a5.2 5.2 0 1 0 -10.4 0zM344.08 658.63 a5.2 5.2 0 1 0 10.4 0 a5.2 5.2 0 1 0 -10.4 0zM389.12 736.63 a5.2 5.2 0 1 0 10.4 0 a5.2 5.2 0 1 0 -10.4 0zM434.15 762.63 a5.2 5.2 0 1 0 10.4 0 a5.2 5.2 0 1 0 -10.4 0zM434.15 814.63 a5.2 5.2 0 1 0 10.4 0 a5.2 5.2 0 1 0 -10.4 0zM434.15 970.63 a5.2 5.2 0 1 0 10.4 0 a5.2 5.2 0 1 0 -10.4 0zM479.19 996.63 a5.2 5.2 0 1 0 10.4 0 a5.2 5.2 0 1 0 -10.4 0zM479.19 1048.63 a5.2 5.2 0 1 0 10.4 0 a5.2 5.2 0 1 0 -10.4 0zM434.15 1074.63 a5.2 5.2 0 1 0 10.4 0 a5.2 5.2 0 1 0 -10.4 0zM389.12 1048.63 a5.2 5.2 0 1 0 10.4 0 a5.2 5.2 0 1 0 -10.4 0zM389.12 996.63 a5.2 5.2 0 1 0 10.4 0 a5.2 5.2 0 1 0 -10.4 0zM479.19 112.63 a5.2 5.2 0 1 0 10.4 0 a5.2 5.2 0 1 0 -10.4 0zM524.22 138.63 a5.2 5.2 0 1 0 10.4 0 a5.2 5.2 0 1 0 -10.4 0zM524.22 190.63 a5.2 5.2 0 1 0 10.4 0 a5.2 5.2 0 1 0 -10.4 0zM524.22 294.63 a5.2 5.2 0 1 0 10.4 0 a5.2 5.2 0 1 0 -10.4 0zM524.22 346.63 a5.2 5.2 0 1 0 10.4 0 a5.2 5.2 0 1 0 -10.4 0zM479.19 372.63 a5.2 5.2 0 1 0 10.4 0 a5.2 5.2 0 1 0 -10.4 0zM434.15 346.63 a5.2 5.2 0 1 0 10.4 0 a5.2 5.2 0 1 0 -10.4 0zM479.19 736.63 a5.2 5.2 0 1 0 10.4 0 a5.2 5.2 0 1 0 -10.4 0zM524.22 762.63 a5.2 5.2 0 1 0 10.4 0 a5.2 5.2 0 1 0 -10.4 0zM524.22 814.63 a5.2 5.2 0 1 0 10.4 0 a5.2 5.2 0 1 0 -10.4 0zM479.19 840.63 a5.2 5.2 0 1 0 10.4 0 a5.2 5.2 0 1 0 -10.4 0zM479.19 892.63 a5.2 5.2 0 1 0 10.4 0 a5.2 5.2 0 1 0 -10.4 0zM524.22 918.63 a5.2 5.2 0 1 0 10.4 0 a5.2 5.2 0 1 0 -10.4 0zM524.22 970.63 a5.2 5.2 0 1 0 10.4 0 a5.2 5.2 0 1 0 -10.4 0zM434.15 918.63 a5.2 5.2 0 1 0 10.4 0 a5.2 5.2 0 1 0 -10.4 0zM569.26 996.63 a5.2 5.2 0 1 0 10.4 0 a5.2 5.2 0 1 0 -10.4 0zM569.26 1048.63 a5.2 5.2 0 1 0 10.4 0 a5.2 5.2 0 1 0 -10.4 0zM524.22 1074.63 a5.2 5.2 0 1 0 10.4 0 a5.2 5.2 0 1 0 -10.4 0zM614.29 346.63 a5.2 5.2 0 1 0 10.4 0 a5.2 5.2 0 1 0 -10.4 0zM659.32 372.63 a5.2 5.2 0 1 0 10.4 0 a5.2 5.2 0 1 0 -10.4 0zM659.32 424.63 a5.2 5.2 0 1 0 10.4 0 a5.2 5.2 0 1 0 -10.4 0zM614.29 450.63 a5.2 5.2 0 1 0 10.4 0 a5.2 5.2 0 1 0 -10.4 0zM569.26 424.63 a5.2 5.2 0 1 0 10.4 0 a5.2 5.2 0 1 0 -10.4 0zM569.26 372.63 a5.2 5.2 0 1 0 10.4 0 a5.2 5.2 0 1 0 -10.4 0zM614.29 502.63 a5.2 5.2 0 1 0 10.4 0 a5.2 5.2 0 1 0 -10.4 0zM659.32 528.63 a5.2 5.2 0 1 0 10.4 0 a5.2 5.2 0 1 0 -10.4 0zM659.32 580.63 a5.2 5.2 0 1 0 10.4 0 a5.2 5.2 0 1 0 -10.4 0zM614.29 606.63 a5.2 5.2 0 1 0 10.4 0 a5.2 5.2 0 1 0 -10.4 0zM569.26 580.63 a5.2 5.2 0 1 0 10.4 0 a5.2 5.2 0 1 0 -10.4 0zM569.26 528.63 a5.2 5.2 0 1 0 10.4 0 a5.2 5.2 0 1 0 -10.4 0zM569.26 736.63 a5.2 5.2 0 1 0 10.4 0 a5.2 5.2 0 1 0 -10.4 0zM614.29 762.63 a5.2 5.2 0 1 0 10.4 0 a5.2 5.2 0 1 0 -10.4 0zM614.29 814.63 a5.2 5.2 0 1 0 10.4 0 a5.2 5.2 0 1 0 -10.4 0zM569.26 840.63 a5.2 5.2 0 1 0 10.4 0 a5.2 5.2 0 1 0 -10.4 0zM569.26 892.63 a5.2 5.2 0 1 0 10.4 0 a5.2 5.2 0 1 0 -10.4 0zM614.29 918.63 a5.2 5.2 0 1 0 10.4 0 a5.2 5.2 0 1 0 -10.4 0zM614.29 970.63 a5.2 5.2 0 1 0 10.4 0 a5.2 5.2 0 1 0 -10.4 0zM659.32 996.63 a5.2 5.2 0 1 0 10.4 0 a5.2 5.2 0 1 0 -10.4 0zM659.32 1048.63 a5.2 5.2 0 1 0 10.4 0 a5.2 5.2 0 1 0 -10.4 0zM614.29 1074.63 a5.2 5.2 0 1 0 10.4 0 a5.2 5.2 0 1 0 -10.4 0zM614.29 1126.63 a5.2 5.2 0 1 0 10.4 0 a5.2 5.2 0 1 0 -10.4 0zM659.32 1152.63 a5.2 5.2 0 1 0 10.4 0 a5.2 5.2 0 1 0 -10.4 0zM659.32 1204.63 a5.2 5.2 0 1 0 10.4 0 a5.2 5.2 0 1 0 -10.4 0zM614.29 1230.63 a5.2 5.2 0 1 0 10.4 0 a5.2 5.2 0 1 0 -10.4 0zM569.26 1204.63 a5.2 5.2 0 1 0 10.4 0 a5.2 5.2 0 1 0 -10.4 0zM569.26 1152.63 a5.2 5.2 0 1 0 10.4 0 a5.2 5.2 0 1 0 -10.4 0zM659.32 -43.37 a5.2 5.2 0 1 0 10.4 0 a5.2 5.2 0 1 0 -10.4 0zM704.36 -17.37 a5.2 5.2 0 1 0 10.4 0 a5.2 5.2 0 1 0 -10.4 0zM704.36 34.63 a5.2 5.2 0 1 0 10.4 0 a5.2 5.2 0 1 0 -10.4 0zM659.32 60.63 a5.2 5.2 0 1 0 10.4 0 a5.2 5.2 0 1 0 -10.4 0zM614.29 34.63 a5.2 5.2 0 1 0 10.4 0 a5.2 5.2 0 1 0 -10.4 0zM614.29 -17.37 a5.2 5.2 0 1 0 10.4 0 a5.2 5.2 0 1 0 -10.4 0zM749.39 60.63 a5.2 5.2 0 1 0 10.4 0 a5.2 5.2 0 1 0 -10.4 0zM749.39 112.63 a5.2 5.2 0 1 0 10.4 0 a5.2 5.2 0 1 0 -10.4 0zM704.36 138.63 a5.2 5.2 0 1 0 10.4 0 a5.2 5.2 0 1 0 -10.4 0zM659.32 112.63 a5.2 5.2 0 1 0 10.4 0 a5.2 5.2 0 1 0 -10.4 0zM704.36 190.63 a5.2 5.2 0 1 0 10.4 0 a5.2 5.2 0 1 0 -10.4 0zM659.32 216.63 a5.2 5.2 0 1 0 10.4 0 a5.2 5.2 0 1 0 -10.4 0zM614.29 190.63 a5.2 5.2 0 1 0 10.4 0 a5.2 5.2 0 1 0 -10.4 0zM614.29 138.63 a5.2 5.2 0 1 0 10.4 0 a5.2 5.2 0 1 0 -10.4 0zM704.36 1074.63 a5.2 5.2 0 1 0 10.4 0 a5.2 5.2 0 1 0 -10.4 0zM704.36 1126.63 a5.2 5.2 0 1 0 10.4 0 a5.2 5.2 0 1 0 -10.4 0zM794.43 34.63 a5.2 5.2 0 1 0 10.4 0 a5.2 5.2 0 1 0 -10.4 0zM839.46 60.63 a5.2 5.2 0 1 0 10.4 0 a5.2 5.2 0 1 0 -10.4 0zM839.46 112.63 a5.2 5.2 0 1 0 10.4 0 a5.2 5.2 0 1 0 -10.4 0zM794.43 138.63 a5.2 5.2 0 1 0 10.4 0 a5.2 5.2 0 1 0 -10.4 0zM794.43 502.63 a5.2 5.2 0 1 0 10.4 0 a5.2 5.2 0 1 0 -10.4 0zM839.46 528.63 a5.2 5.2 0 1 0 10.4 0 a5.2 5.2 0 1 0 -10.4 0zM839.46 580.63 a5.2 5.2 0 1 0 10.4 0 a5.2 5.2 0 1 0 -10.4 0zM794.43 606.63 a5.2 5.2 0 1 0 10.4 0 a5.2 5.2 0 1 0 -10.4 0zM749.39 580.63 a5.2 5.2 0 1 0 10.4 0 a5.2 5.2 0 1 0 -10.4 0zM749.39 528.63 a5.2 5.2 0 1 0 10.4 0 a5.2 5.2 0 1 0 -10.4 0zM794.43 658.63 a5.2 5.2 0 1 0 10.4 0 a5.2 5.2 0 1 0 -10.4 0zM749.39 684.63 a5.2 5.2 0 1 0 10.4 0 a5.2 5.2 0 1 0 -10.4 0zM704.36 658.63 a5.2 5.2 0 1 0 10.4 0 a5.2 5.2 0 1 0 -10.4 0zM704.36 606.63 a5.2 5.2 0 1 0 10.4 0 a5.2 5.2 0 1 0 -10.4 0zM749.39 892.63 a5.2 5.2 0 1 0 10.4 0 a5.2 5.2 0 1 0 -10.4 0zM794.43 918.63 a5.2 5.2 0 1 0 10.4 0 a5.2 5.2 0 1 0 -10.4 0zM794.43 970.63 a5.2 5.2 0 1 0 10.4 0 a5.2 5.2 0 1 0 -10.4 0zM749.39 996.63 a5.2 5.2 0 1 0 10.4 0 a5.2 5.2 0 1 0 -10.4 0zM704.36 970.63 a5.2 5.2 0 1 0 10.4 0 a5.2 5.2 0 1 0 -10.4 0zM704.36 918.63 a5.2 5.2 0 1 0 10.4 0 a5.2 5.2 0 1 0 -10.4 0zM839.46 996.63 a5.2 5.2 0 1 0 10.4 0 a5.2 5.2 0 1 0 -10.4 0zM839.46 1048.63 a5.2 5.2 0 1 0 10.4 0 a5.2 5.2 0 1 0 -10.4 0zM794.43 1074.63 a5.2 5.2 0 1 0 10.4 0 a5.2 5.2 0 1 0 -10.4 0zM749.39 1048.63 a5.2 5.2 0 1 0 10.4 0 a5.2 5.2 0 1 0 -10.4 0zM794.43 1126.63 a5.2 5.2 0 1 0 10.4 0 a5.2 5.2 0 1 0 -10.4 0zM749.39 1152.63 a5.2 5.2 0 1 0 10.4 0 a5.2 5.2 0 1 0 -10.4 0zM839.46 1152.63 a5.2 5.2 0 1 0 10.4 0 a5.2 5.2 0 1 0 -10.4 0zM839.46 1204.63 a5.2 5.2 0 1 0 10.4 0 a5.2 5.2 0 1 0 -10.4 0zM794.43 1230.63 a5.2 5.2 0 1 0 10.4 0 a5.2 5.2 0 1 0 -10.4 0zM749.39 1204.63 a5.2 5.2 0 1 0 10.4 0 a5.2 5.2 0 1 0 -10.4 0zM839.46 -43.37 a5.2 5.2 0 1 0 10.4 0 a5.2 5.2 0 1 0 -10.4 0zM884.5 -17.37 a5.2 5.2 0 1 0 10.4 0 a5.2 5.2 0 1 0 -10.4 0zM884.5 34.63 a5.2 5.2 0 1 0 10.4 0 a5.2 5.2 0 1 0 -10.4 0zM794.43 -17.37 a5.2 5.2 0 1 0 10.4 0 a5.2 5.2 0 1 0 -10.4 0zM839.46 268.63 a5.2 5.2 0 1 0 10.4 0 a5.2 5.2 0 1 0 -10.4 0zM884.5 294.63 a5.2 5.2 0 1 0 10.4 0 a5.2 5.2 0 1 0 -10.4 0zM884.5 346.63 a5.2 5.2 0 1 0 10.4 0 a5.2 5.2 0 1 0 -10.4 0zM839.46 372.63 a5.2 5.2 0 1 0 10.4 0 a5.2 5.2 0 1 0 -10.4 0zM794.43 346.63 a5.2 5.2 0 1 0 10.4 0 a5.2 5.2 0 1 0 -10.4 0zM794.43 294.63 a5.2 5.2 0 1 0 10.4 0 a5.2 5.2 0 1 0 -10.4 0zM929.53 372.63 a5.2 5.2 0 1 0 10.4 0 a5.2 5.2 0 1 0 -10.4 0zM929.53 424.63 a5.2 5.2 0 1 0 10.4 0 a5.2 5.2 0 1 0 -10.4 0zM884.5 450.63 a5.2 5.2 0 1 0 10.4 0 a5.2 5.2 0 1 0 -10.4 0zM839.46 424.63 a5.2 5.2 0 1 0 10.4 0 a5.2 5.2 0 1 0 -10.4 0zM884.5 502.63 a5.2 5.2 0 1 0 10.4 0 a5.2 5.2 0 1 0 -10.4 0zM794.43 450.63 a5.2 5.2 0 1 0 10.4 0 a5.2 5.2 0 1 0 -10.4 0zM929.53 528.63 a5.2 5.2 0 1 0 10.4 0 a5.2 5.2 0 1 0 -10.4 0zM929.53 580.63 a5.2 5.2 0 1 0 10.4 0 a5.2 5.2 0 1 0 -10.4 0zM884.5 606.63 a5.2 5.2 0 1 0 10.4 0 a5.2 5.2 0 1 0 -10.4 0zM884.5 658.63 a5.2 5.2 0 1 0 10.4 0 a5.2 5.2 0 1 0 -10.4 0zM839.46 684.63 a5.2 5.2 0 1 0 10.4 0 a5.2 5.2 0 1 0 -10.4 0zM929.53 684.63 a5.2 5.2 0 1 0 10.4 0 a5.2 5.2 0 1 0 -10.4 0zM929.53 736.63 a5.2 5.2 0 1 0 10.4 0 a5.2 5.2 0 1 0 -10.4 0zM884.5 762.63 a5.2 5.2 0 1 0 10.4 0 a5.2 5.2 0 1 0 -10.4 0zM839.46 736.63 a5.2 5.2 0 1 0 10.4 0 a5.2 5.2 0 1 0 -10.4 0zM839.46 892.63 a5.2 5.2 0 1 0 10.4 0 a5.2 5.2 0 1 0 -10.4 0zM884.5 918.63 a5.2 5.2 0 1 0 10.4 0 a5.2 5.2 0 1 0 -10.4 0zM884.5 970.63 a5.2 5.2 0 1 0 10.4 0 a5.2 5.2 0 1 0 -10.4 0zM929.53 996.63 a5.2 5.2 0 1 0 10.4 0 a5.2 5.2 0 1 0 -10.4 0zM929.53 1048.63 a5.2 5.2 0 1 0 10.4 0 a5.2 5.2 0 1 0 -10.4 0zM884.5 1074.63 a5.2 5.2 0 1 0 10.4 0 a5.2 5.2 0 1 0 -10.4 0zM929.53 112.63 a5.2 5.2 0 1 0 10.4 0 a5.2 5.2 0 1 0 -10.4 0zM974.57 138.63 a5.2 5.2 0 1 0 10.4 0 a5.2 5.2 0 1 0 -10.4 0zM974.57 190.63 a5.2 5.2 0 1 0 10.4 0 a5.2 5.2 0 1 0 -10.4 0zM929.53 216.63 a5.2 5.2 0 1 0 10.4 0 a5.2 5.2 0 1 0 -10.4 0zM884.5 190.63 a5.2 5.2 0 1 0 10.4 0 a5.2 5.2 0 1 0 -10.4 0zM884.5 138.63 a5.2 5.2 0 1 0 10.4 0 a5.2 5.2 0 1 0 -10.4 0zM974.57 606.63 a5.2 5.2 0 1 0 10.4 0 a5.2 5.2 0 1 0 -10.4 0zM974.57 658.63 a5.2 5.2 0 1 0 10.4 0 a5.2 5.2 0 1 0 -10.4 0zM974.57 970.63 a5.2 5.2 0 1 0 10.4 0 a5.2 5.2 0 1 0 -10.4 0zM1019.6 996.63 a5.2 5.2 0 1 0 10.4 0 a5.2 5.2 0 1 0 -10.4 0zM1019.6 1048.63 a5.2 5.2 0 1 0 10.4 0 a5.2 5.2 0 1 0 -10.4 0zM974.57 1074.63 a5.2 5.2 0 1 0 10.4 0 a5.2 5.2 0 1 0 -10.4 0zM1019.6 -43.37 a5.2 5.2 0 1 0 10.4 0 a5.2 5.2 0 1 0 -10.4 0zM1064.64 -17.37 a5.2 5.2 0 1 0 10.4 0 a5.2 5.2 0 1 0 -10.4 0zM1064.64 34.63 a5.2 5.2 0 1 0 10.4 0 a5.2 5.2 0 1 0 -10.4 0zM1019.6 60.63 a5.2 5.2 0 1 0 10.4 0 a5.2 5.2 0 1 0 -10.4 0zM974.57 34.63 a5.2 5.2 0 1 0 10.4 0 a5.2 5.2 0 1 0 -10.4 0zM974.57 -17.37 a5.2 5.2 0 1 0 10.4 0 a5.2 5.2 0 1 0 -10.4 0zM1109.67 60.63 a5.2 5.2 0 1 0 10.4 0 a5.2 5.2 0 1 0 -10.4 0zM1109.67 112.63 a5.2 5.2 0 1 0 10.4 0 a5.2 5.2 0 1 0 -10.4 0zM1064.64 138.63 a5.2 5.2 0 1 0 10.4 0 a5.2 5.2 0 1 0 -10.4 0zM1019.6 112.63 a5.2 5.2 0 1 0 10.4 0 a5.2 5.2 0 1 0 -10.4 0zM1019.6 424.63 a5.2 5.2 0 1 0 10.4 0 a5.2 5.2 0 1 0 -10.4 0zM1064.64 450.63 a5.2 5.2 0 1 0 10.4 0 a5.2 5.2 0 1 0 -10.4 0zM1064.64 502.63 a5.2 5.2 0 1 0 10.4 0 a5.2 5.2 0 1 0 -10.4 0zM1019.6 528.63 a5.2 5.2 0 1 0 10.4 0 a5.2 5.2 0 1 0 -10.4 0zM974.57 502.63 a5.2 5.2 0 1 0 10.4 0 a5.2 5.2 0 1 0 -10.4 0zM974.57 450.63 a5.2 5.2 0 1 0 10.4 0 a5.2 5.2 0 1 0 -10.4 0zM1109.67 528.63 a5.2 5.2 0 1 0 10.4 0 a5.2 5.2 0 1 0 -10.4 0zM1109.67 580.63 a5.2 5.2 0 1 0 10.4 0 a5.2 5.2 0 1 0 -10.4 0zM1064.64 606.63 a5.2 5.2 0 1 0 10.4 0 a5.2 5.2 0 1 0 -10.4 0zM1019.6 580.63 a5.2 5.2 0 1 0 10.4 0 a5.2 5.2 0 1 0 -10.4 0zM1064.64 658.63 a5.2 5.2 0 1 0 10.4 0 a5.2 5.2 0 1 0 -10.4 0zM1019.6 684.63 a5.2 5.2 0 1 0 10.4 0 a5.2 5.2 0 1 0 -10.4 0zM1109.67 684.63 a5.2 5.2 0 1 0 10.4 0 a5.2 5.2 0 1 0 -10.4 0zM1109.67 736.63 a5.2 5.2 0 1 0 10.4 0 a5.2 5.2 0 1 0 -10.4 0zM1064.64 762.63 a5.2 5.2 0 1 0 10.4 0 a5.2 5.2 0 1 0 -10.4 0zM1019.6 736.63 a5.2 5.2 0 1 0 10.4 0 a5.2 5.2 0 1 0 -10.4 0zM1064.64 814.63 a5.2 5.2 0 1 0 10.4 0 a5.2 5.2 0 1 0 -10.4 0zM1109.67 840.63 a5.2 5.2 0 1 0 10.4 0 a5.2 5.2 0 1 0 -10.4 0zM1109.67 892.63 a5.2 5.2 0 1 0 10.4 0 a5.2 5.2 0 1 0 -10.4 0zM1064.64 918.63 a5.2 5.2 0 1 0 10.4 0 a5.2 5.2 0 1 0 -10.4 0zM1019.6 892.63 a5.2 5.2 0 1 0 10.4 0 a5.2 5.2 0 1 0 -10.4 0zM1019.6 840.63 a5.2 5.2 0 1 0 10.4 0 a5.2 5.2 0 1 0 -10.4 0zM1064.64 970.63 a5.2 5.2 0 1 0 10.4 0 a5.2 5.2 0 1 0 -10.4 0zM1109.67 996.63 a5.2 5.2 0 1 0 10.4 0 a5.2 5.2 0 1 0 -10.4 0zM1109.67 1048.63 a5.2 5.2 0 1 0 10.4 0 a5.2 5.2 0 1 0 -10.4 0zM1064.64 1074.63 a5.2 5.2 0 1 0 10.4 0 a5.2 5.2 0 1 0 -10.4 0zM1064.64 1126.63 a5.2 5.2 0 1 0 10.4 0 a5.2 5.2 0 1 0 -10.4 0zM1019.6 1152.63 a5.2 5.2 0 1 0 10.4 0 a5.2 5.2 0 1 0 -10.4 0zM974.57 1126.63 a5.2 5.2 0 1 0 10.4 0 a5.2 5.2 0 1 0 -10.4 0zM1109.67 1152.63 a5.2 5.2 0 1 0 10.4 0 a5.2 5.2 0 1 0 -10.4 0zM1109.67 1204.63 a5.2 5.2 0 1 0 10.4 0 a5.2 5.2 0 1 0 -10.4 0zM1064.64 1230.63 a5.2 5.2 0 1 0 10.4 0 a5.2 5.2 0 1 0 -10.4 0zM1019.6 1204.63 a5.2 5.2 0 1 0 10.4 0 a5.2 5.2 0 1 0 -10.4 0zM1109.67 -43.37 a5.2 5.2 0 1 0 10.4 0 a5.2 5.2 0 1 0 -10.4 0zM1154.7 -17.37 a5.2 5.2 0 1 0 10.4 0 a5.2 5.2 0 1 0 -10.4 0zM1154.7 34.63 a5.2 5.2 0 1 0 10.4 0 a5.2 5.2 0 1 0 -10.4 0zM1154.7 190.63 a5.2 5.2 0 1 0 10.4 0 a5.2 5.2 0 1 0 -10.4 0zM1199.74 216.63 a5.2 5.2 0 1 0 10.4 0 a5.2 5.2 0 1 0 -10.4 0zM1199.74 268.63 a5.2 5.2 0 1 0 10.4 0 a5.2 5.2 0 1 0 -10.4 0zM1154.7 294.63 a5.2 5.2 0 1 0 10.4 0 a5.2 5.2 0 1 0 -10.4 0zM1109.67 268.63 a5.2 5.2 0 1 0 10.4 0 a5.2 5.2 0 1 0 -10.4 0zM1109.67 216.63 a5.2 5.2 0 1 0 10.4 0 a5.2 5.2 0 1 0 -10.4 0zM1154.7 606.63 a5.2 5.2 0 1 0 10.4 0 a5.2 5.2 0 1 0 -10.4 0zM1154.7 658.63 a5.2 5.2 0 1 0 10.4 0 a5.2 5.2 0 1 0 -10.4 0zM1199.74 684.63 a5.2 5.2 0 1 0 10.4 0 a5.2 5.2 0 1 0 -10.4 0zM1199.74 736.63 a5.2 5.2 0 1 0 10.4 0 a5.2 5.2 0 1 0 -10.4 0zM1154.7 762.63 a5.2 5.2 0 1 0 10.4 0 a5.2 5.2 0 1 0 -10.4 0zM1154.7 814.63 a5.2 5.2 0 1 0 10.4 0 a5.2 5.2 0 1 0 -10.4 0zM1154.7 918.63 a5.2 5.2 0 1 0 10.4 0 a5.2 5.2 0 1 0 -10.4 0zM1154.7 970.63 a5.2 5.2 0 1 0 10.4 0 a5.2 5.2 0 1 0 -10.4 0zM1244.77 346.63 a5.2 5.2 0 1 0 10.4 0 a5.2 5.2 0 1 0 -10.4 0zM1289.81 372.63 a5.2 5.2 0 1 0 10.4 0 a5.2 5.2 0 1 0 -10.4 0zM1289.81 424.63 a5.2 5.2 0 1 0 10.4 0 a5.2 5.2 0 1 0 -10.4 0zM1244.77 450.63 a5.2 5.2 0 1 0 10.4 0 a5.2 5.2 0 1 0 -10.4 0zM1199.74 424.63 a5.2 5.2 0 1 0 10.4 0 a5.2 5.2 0 1 0 -10.4 0zM1199.74 372.63 a5.2 5.2 0 1 0 10.4 0 a5.2 5.2 0 1 0 -10.4 0zM1244.77 658.63 a5.2 5.2 0 1 0 10.4 0 a5.2 5.2 0 1 0 -10.4 0zM1289.81 684.63 a5.2 5.2 0 1 0 10.4 0 a5.2 5.2 0 1 0 -10.4 0zM1289.81 736.63 a5.2 5.2 0 1 0 10.4 0 a5.2 5.2 0 1 0 -10.4 0zM1244.77 762.63 a5.2 5.2 0 1 0 10.4 0 a5.2 5.2 0 1 0 -10.4 0zM1199.74 1048.63 a5.2 5.2 0 1 0 10.4 0 a5.2 5.2 0 1 0 -10.4 0zM1244.77 1074.63 a5.2 5.2 0 1 0 10.4 0 a5.2 5.2 0 1 0 -10.4 0zM1244.77 1126.63 a5.2 5.2 0 1 0 10.4 0 a5.2 5.2 0 1 0 -10.4 0zM1199.74 1152.63 a5.2 5.2 0 1 0 10.4 0 a5.2 5.2 0 1 0 -10.4 0zM1154.7 1126.63 a5.2 5.2 0 1 0 10.4 0 a5.2 5.2 0 1 0 -10.4 0zM1154.7 1074.63 a5.2 5.2 0 1 0 10.4 0 a5.2 5.2 0 1 0 -10.4 0zM1289.81 268.63 a5.2 5.2 0 1 0 10.4 0 a5.2 5.2 0 1 0 -10.4 0zM1334.84 294.63 a5.2 5.2 0 1 0 10.4 0 a5.2 5.2 0 1 0 -10.4 0zM1334.84 346.63 a5.2 5.2 0 1 0 10.4 0 a5.2 5.2 0 1 0 -10.4 0zM1244.77 294.63 a5.2 5.2 0 1 0 10.4 0 a5.2 5.2 0 1 0 -10.4 0zM1379.88 372.63 a5.2 5.2 0 1 0 10.4 0 a5.2 5.2 0 1 0 -10.4 0zM1379.88 424.63 a5.2 5.2 0 1 0 10.4 0 a5.2 5.2 0 1 0 -10.4 0zM1334.84 450.63 a5.2 5.2 0 1 0 10.4 0 a5.2 5.2 0 1 0 -10.4 0zM1334.84 658.63 a5.2 5.2 0 1 0 10.4 0 a5.2 5.2 0 1 0 -10.4 0zM1379.88 684.63 a5.2 5.2 0 1 0 10.4 0 a5.2 5.2 0 1 0 -10.4 0zM1379.88 736.63 a5.2 5.2 0 1 0 10.4 0 a5.2 5.2 0 1 0 -10.4 0zM1334.84 762.63 a5.2 5.2 0 1 0 10.4 0 a5.2 5.2 0 1 0 -10.4 0zM1334.84 814.63 a5.2 5.2 0 1 0 10.4 0 a5.2 5.2 0 1 0 -10.4 0zM1289.81 840.63 a5.2 5.2 0 1 0 10.4 0 a5.2 5.2 0 1 0 -10.4 0zM1244.77 814.63 a5.2 5.2 0 1 0 10.4 0 a5.2 5.2 0 1 0 -10.4 0zM1379.88 840.63 a5.2 5.2 0 1 0 10.4 0 a5.2 5.2 0 1 0 -10.4 0zM1379.88 892.63 a5.2 5.2 0 1 0 10.4 0 a5.2 5.2 0 1 0 -10.4 0zM1334.84 918.63 a5.2 5.2 0 1 0 10.4 0 a5.2 5.2 0 1 0 -10.4 0zM1289.81 892.63 a5.2 5.2 0 1 0 10.4 0 a5.2 5.2 0 1 0 -10.4 0zM1334.84 970.63 a5.2 5.2 0 1 0 10.4 0 a5.2 5.2 0 1 0 -10.4 0zM1289.81 996.63 a5.2 5.2 0 1 0 10.4 0 a5.2 5.2 0 1 0 -10.4 0zM1244.77 970.63 a5.2 5.2 0 1 0 10.4 0 a5.2 5.2 0 1 0 -10.4 0zM1244.77 918.63 a5.2 5.2 0 1 0 10.4 0 a5.2 5.2 0 1 0 -10.4 0zM1379.88 996.63 a5.2 5.2 0 1 0 10.4 0 a5.2 5.2 0 1 0 -10.4 0zM1379.88 1048.63 a5.2 5.2 0 1 0 10.4 0 a5.2 5.2 0 1 0 -10.4 0zM1334.84 1074.63 a5.2 5.2 0 1 0 10.4 0 a5.2 5.2 0 1 0 -10.4 0zM1289.81 1048.63 a5.2 5.2 0 1 0 10.4 0 a5.2 5.2 0 1 0 -10.4 0zM1334.84 1126.63 a5.2 5.2 0 1 0 10.4 0 a5.2 5.2 0 1 0 -10.4 0zM1289.81 1152.63 a5.2 5.2 0 1 0 10.4 0 a5.2 5.2 0 1 0 -10.4 0zM1379.88 112.63 a5.2 5.2 0 1 0 10.4 0 a5.2 5.2 0 1 0 -10.4 0zM1424.91 138.63 a5.2 5.2 0 1 0 10.4 0 a5.2 5.2 0 1 0 -10.4 0zM1424.91 190.63 a5.2 5.2 0 1 0 10.4 0 a5.2 5.2 0 1 0 -10.4 0zM1379.88 216.63 a5.2 5.2 0 1 0 10.4 0 a5.2 5.2 0 1 0 -10.4 0zM1334.84 190.63 a5.2 5.2 0 1 0 10.4 0 a5.2 5.2 0 1 0 -10.4 0zM1334.84 138.63 a5.2 5.2 0 1 0 10.4 0 a5.2 5.2 0 1 0 -10.4 0zM1379.88 268.63 a5.2 5.2 0 1 0 10.4 0 a5.2 5.2 0 1 0 -10.4 0zM1424.91 294.63 a5.2 5.2 0 1 0 10.4 0 a5.2 5.2 0 1 0 -10.4 0zM1424.91 346.63 a5.2 5.2 0 1 0 10.4 0 a5.2 5.2 0 1 0 -10.4 0zM1424.91 502.63 a5.2 5.2 0 1 0 10.4 0 a5.2 5.2 0 1 0 -10.4 0zM1469.95 528.63 a5.2 5.2 0 1 0 10.4 0 a5.2 5.2 0 1 0 -10.4 0zM1469.95 580.63 a5.2 5.2 0 1 0 10.4 0 a5.2 5.2 0 1 0 -10.4 0zM1424.91 606.63 a5.2 5.2 0 1 0 10.4 0 a5.2 5.2 0 1 0 -10.4 0zM1379.88 580.63 a5.2 5.2 0 1 0 10.4 0 a5.2 5.2 0 1 0 -10.4 0zM1379.88 528.63 a5.2 5.2 0 1 0 10.4 0 a5.2 5.2 0 1 0 -10.4 0zM1424.91 658.63 a5.2 5.2 0 1 0 10.4 0 a5.2 5.2 0 1 0 -10.4 0zM1334.84 606.63 a5.2 5.2 0 1 0 10.4 0 a5.2 5.2 0 1 0 -10.4 0zM1424.91 762.63 a5.2 5.2 0 1 0 10.4 0 a5.2 5.2 0 1 0 -10.4 0zM1424.91 814.63 a5.2 5.2 0 1 0 10.4 0 a5.2 5.2 0 1 0 -10.4 0zM1469.95 840.63 a5.2 5.2 0 1 0 10.4 0 a5.2 5.2 0 1 0 -10.4 0zM1469.95 892.63 a5.2 5.2 0 1 0 10.4 0 a5.2 5.2 0 1 0 -10.4 0zM1424.91 918.63 a5.2 5.2 0 1 0 10.4 0 a5.2 5.2 0 1 0 -10.4 0zM1424.91 970.63 a5.2 5.2 0 1 0 10.4 0 a5.2 5.2 0 1 0 -10.4 0zM1469.95 996.63 a5.2 5.2 0 1 0 10.4 0 a5.2 5.2 0 1 0 -10.4 0zM1469.95 1048.63 a5.2 5.2 0 1 0 10.4 0 a5.2 5.2 0 1 0 -10.4 0zM1424.91 1074.63 a5.2 5.2 0 1 0 10.4 0 a5.2 5.2 0 1 0 -10.4 0zM1424.91 1126.63 a5.2 5.2 0 1 0 10.4 0 a5.2 5.2 0 1 0 -10.4 0zM1469.95 1152.63 a5.2 5.2 0 1 0 10.4 0 a5.2 5.2 0 1 0 -10.4 0zM1469.95 1204.63 a5.2 5.2 0 1 0 10.4 0 a5.2 5.2 0 1 0 -10.4 0zM1424.91 1230.63 a5.2 5.2 0 1 0 10.4 0 a5.2 5.2 0 1 0 -10.4 0zM1379.88 1204.63 a5.2 5.2 0 1 0 10.4 0 a5.2 5.2 0 1 0 -10.4 0zM1379.88 1152.63 a5.2 5.2 0 1 0 10.4 0 a5.2 5.2 0 1 0 -10.4 0zM1469.95 -43.37 a5.2 5.2 0 1 0 10.4 0 a5.2 5.2 0 1 0 -10.4 0zM1514.98 -17.37 a5.2 5.2 0 1 0 10.4 0 a5.2 5.2 0 1 0 -10.4 0zM1514.98 34.63 a5.2 5.2 0 1 0 10.4 0 a5.2 5.2 0 1 0 -10.4 0zM1469.95 60.63 a5.2 5.2 0 1 0 10.4 0 a5.2 5.2 0 1 0 -10.4 0zM1424.91 34.63 a5.2 5.2 0 1 0 10.4 0 a5.2 5.2 0 1 0 -10.4 0zM1424.91 -17.37 a5.2 5.2 0 1 0 10.4 0 a5.2 5.2 0 1 0 -10.4 0zM1469.95 112.63 a5.2 5.2 0 1 0 10.4 0 a5.2 5.2 0 1 0 -10.4 0zM1514.98 138.63 a5.2 5.2 0 1 0 10.4 0 a5.2 5.2 0 1 0 -10.4 0zM1514.98 190.63 a5.2 5.2 0 1 0 10.4 0 a5.2 5.2 0 1 0 -10.4 0zM1469.95 216.63 a5.2 5.2 0 1 0 10.4 0 a5.2 5.2 0 1 0 -10.4 0zM1469.95 424.63 a5.2 5.2 0 1 0 10.4 0 a5.2 5.2 0 1 0 -10.4 0zM1514.98 450.63 a5.2 5.2 0 1 0 10.4 0 a5.2 5.2 0 1 0 -10.4 0zM1514.98 502.63 a5.2 5.2 0 1 0 10.4 0 a5.2 5.2 0 1 0 -10.4 0zM1424.91 450.63 a5.2 5.2 0 1 0 10.4 0 a5.2 5.2 0 1 0 -10.4 0zM1514.98 606.63 a5.2 5.2 0 1 0 10.4 0 a5.2 5.2 0 1 0 -10.4 0zM1514.98 658.63 a5.2 5.2 0 1 0 10.4 0 a5.2 5.2 0 1 0 -10.4 0zM1469.95 684.63 a5.2 5.2 0 1 0 10.4 0 a5.2 5.2 0 1 0 -10.4 0zM1560.02 684.63 a5.2 5.2 0 1 0 10.4 0 a5.2 5.2 0 1 0 -10.4 0zM1560.02 736.63 a5.2 5.2 0 1 0 10.4 0 a5.2 5.2 0 1 0 -10.4 0zM1514.98 762.63 a5.2 5.2 0 1 0 10.4 0 a5.2 5.2 0 1 0 -10.4 0zM1469.95 736.63 a5.2 5.2 0 1 0 10.4 0 a5.2 5.2 0 1 0 -10.4 0zM1514.98 814.63 a5.2 5.2 0 1 0 10.4 0 a5.2 5.2 0 1 0 -10.4 0zM1560.02 840.63 a5.2 5.2 0 1 0 10.4 0 a5.2 5.2 0 1 0 -10.4 0zM1560.02 892.63 a5.2 5.2 0 1 0 10.4 0 a5.2 5.2 0 1 0 -10.4 0zM1514.98 918.63 a5.2 5.2 0 1 0 10.4 0 a5.2 5.2 0 1 0 -10.4 0zM1514.98 970.63 a5.2 5.2 0 1 0 10.4 0 a5.2 5.2 0 1 0 -10.4 0zM1560.02 996.63 a5.2 5.2 0 1 0 10.4 0 a5.2 5.2 0 1 0 -10.4 0zM1560.02 1048.63 a5.2 5.2 0 1 0 10.4 0 a5.2 5.2 0 1 0 -10.4 0zM1514.98 1074.63 a5.2 5.2 0 1 0 10.4 0 a5.2 5.2 0 1 0 -10.4 0zM1514.98 1126.63 a5.2 5.2 0 1 0 10.4 0 a5.2 5.2 0 1 0 -10.4 0zM1560.02 1152.63 a5.2 5.2 0 1 0 10.4 0 a5.2 5.2 0 1 0 -10.4 0zM1560.02 1204.63 a5.2 5.2 0 1 0 10.4 0 a5.2 5.2 0 1 0 -10.4 0zM1514.98 1230.63 a5.2 5.2 0 1 0 10.4 0 a5.2 5.2 0 1 0 -10.4 0zM1560.02 -43.37 a5.2 5.2 0 1 0 10.4 0 a5.2 5.2 0 1 0 -10.4 0zM1605.05 -17.37 a5.2 5.2 0 1 0 10.4 0 a5.2 5.2 0 1 0 -10.4 0zM1605.05 34.63 a5.2 5.2 0 1 0 10.4 0 a5.2 5.2 0 1 0 -10.4 0zM1560.02 60.63 a5.2 5.2 0 1 0 10.4 0 a5.2 5.2 0 1 0 -10.4 0zM1560.02 112.63 a5.2 5.2 0 1 0 10.4 0 a5.2 5.2 0 1 0 -10.4 0zM1605.05 138.63 a5.2 5.2 0 1 0 10.4 0 a5.2 5.2 0 1 0 -10.4 0zM1605.05 190.63 a5.2 5.2 0 1 0 10.4 0 a5.2 5.2 0 1 0 -10.4 0zM1560.02 216.63 a5.2 5.2 0 1 0 10.4 0 a5.2 5.2 0 1 0 -10.4 0zM1650.09 216.63 a5.2 5.2 0 1 0 10.4 0 a5.2 5.2 0 1 0 -10.4 0zM1650.09 268.63 a5.2 5.2 0 1 0 10.4 0 a5.2 5.2 0 1 0 -10.4 0zM1605.05 294.63 a5.2 5.2 0 1 0 10.4 0 a5.2 5.2 0 1 0 -10.4 0zM1560.02 268.63 a5.2 5.2 0 1 0 10.4 0 a5.2 5.2 0 1 0 -10.4 0zM1605.05 346.63 a5.2 5.2 0 1 0 10.4 0 a5.2 5.2 0 1 0 -10.4 0zM1560.02 372.63 a5.2 5.2 0 1 0 10.4 0 a5.2 5.2 0 1 0 -10.4 0zM1514.98 346.63 a5.2 5.2 0 1 0 10.4 0 a5.2 5.2 0 1 0 -10.4 0zM1514.98 294.63 a5.2 5.2 0 1 0 10.4 0 a5.2 5.2 0 1 0 -10.4 0zM1605.05 814.63 a5.2 5.2 0 1 0 10.4 0 a5.2 5.2 0 1 0 -10.4 0zM1650.09 840.63 a5.2 5.2 0 1 0 10.4 0 a5.2 5.2 0 1 0 -10.4 0zM1650.09 892.63 a5.2 5.2 0 1 0 10.4 0 a5.2 5.2 0 1 0 -10.4 0zM1605.05 918.63 a5.2 5.2 0 1 0 10.4 0 a5.2 5.2 0 1 0 -10.4 0zM1605.05 970.63 a5.2 5.2 0 1 0 10.4 0 a5.2 5.2 0 1 0 -10.4 0zM1650.09 996.63 a5.2 5.2 0 1 0 10.4 0 a5.2 5.2 0 1 0 -10.4 0zM1650.09 1048.63 a5.2 5.2 0 1 0 10.4 0 a5.2 5.2 0 1 0 -10.4 0zM1605.05 1074.63 a5.2 5.2 0 1 0 10.4 0 a5.2 5.2 0 1 0 -10.4 0zM1605.05 1126.63 a5.2 5.2 0 1 0 10.4 0 a5.2 5.2 0 1 0 -10.4 0zM1650.09 1152.63 a5.2 5.2 0 1 0 10.4 0 a5.2 5.2 0 1 0 -10.4 0zM1650.09 1204.63 a5.2 5.2 0 1 0 10.4 0 a5.2 5.2 0 1 0 -10.4 0zM1605.05 1230.63 a5.2 5.2 0 1 0 10.4 0 a5.2 5.2 0 1 0 -10.4 0zM1650.09 -43.37 a5.2 5.2 0 1 0 10.4 0 a5.2 5.2 0 1 0 -10.4 0zM1695.12 -17.37 a5.2 5.2 0 1 0 10.4 0 a5.2 5.2 0 1 0 -10.4 0zM1695.12 34.63 a5.2 5.2 0 1 0 10.4 0 a5.2 5.2 0 1 0 -10.4 0zM1650.09 60.63 a5.2 5.2 0 1 0 10.4 0 a5.2 5.2 0 1 0 -10.4 0zM1695.12 190.63 a5.2 5.2 0 1 0 10.4 0 a5.2 5.2 0 1 0 -10.4 0zM1740.15 216.63 a5.2 5.2 0 1 0 10.4 0 a5.2 5.2 0 1 0 -10.4 0zM1740.15 268.63 a5.2 5.2 0 1 0 10.4 0 a5.2 5.2 0 1 0 -10.4 0zM1695.12 294.63 a5.2 5.2 0 1 0 10.4 0 a5.2 5.2 0 1 0 -10.4 0zM1695.12 346.63 a5.2 5.2 0 1 0 10.4 0 a5.2 5.2 0 1 0 -10.4 0zM1650.09 372.63 a5.2 5.2 0 1 0 10.4 0 a5.2 5.2 0 1 0 -10.4 0zM1740.15 372.63 a5.2 5.2 0 1 0 10.4 0 a5.2 5.2 0 1 0 -10.4 0zM1740.15 424.63 a5.2 5.2 0 1 0 10.4 0 a5.2 5.2 0 1 0 -10.4 0zM1695.12 450.63 a5.2 5.2 0 1 0 10.4 0 a5.2 5.2 0 1 0 -10.4 0zM1650.09 424.63 a5.2 5.2 0 1 0 10.4 0 a5.2 5.2 0 1 0 -10.4 0zM1695.12 502.63 a5.2 5.2 0 1 0 10.4 0 a5.2 5.2 0 1 0 -10.4 0zM1650.09 528.63 a5.2 5.2 0 1 0 10.4 0 a5.2 5.2 0 1 0 -10.4 0zM1605.05 502.63 a5.2 5.2 0 1 0 10.4 0 a5.2 5.2 0 1 0 -10.4 0zM1605.05 450.63 a5.2 5.2 0 1 0 10.4 0 a5.2 5.2 0 1 0 -10.4 0zM1650.09 580.63 a5.2 5.2 0 1 0 10.4 0 a5.2 5.2 0 1 0 -10.4 0zM1695.12 606.63 a5.2 5.2 0 1 0 10.4 0 a5.2 5.2 0 1 0 -10.4 0zM1695.12 658.63 a5.2 5.2 0 1 0 10.4 0 a5.2 5.2 0 1 0 -10.4 0zM1650.09 684.63 a5.2 5.2 0 1 0 10.4 0 a5.2 5.2 0 1 0 -10.4 0zM1605.05 658.63 a5.2 5.2 0 1 0 10.4 0 a5.2 5.2 0 1 0 -10.4 0zM1605.05 606.63 a5.2 5.2 0 1 0 10.4 0 a5.2 5.2 0 1 0 -10.4 0zM1695.12 814.63 a5.2 5.2 0 1 0 10.4 0 a5.2 5.2 0 1 0 -10.4 0zM1740.15 840.63 a5.2 5.2 0 1 0 10.4 0 a5.2 5.2 0 1 0 -10.4 0zM1740.15 892.63 a5.2 5.2 0 1 0 10.4 0 a5.2 5.2 0 1 0 -10.4 0zM1695.12 918.63 a5.2 5.2 0 1 0 10.4 0 a5.2 5.2 0 1 0 -10.4 0zM1695.12 970.63 a5.2 5.2 0 1 0 10.4 0 a5.2 5.2 0 1 0 -10.4 0zM1740.15 996.63 a5.2 5.2 0 1 0 10.4 0 a5.2 5.2 0 1 0 -10.4 0zM1740.15 1048.63 a5.2 5.2 0 1 0 10.4 0 a5.2 5.2 0 1 0 -10.4 0zM1695.12 1074.63 a5.2 5.2 0 1 0 10.4 0 a5.2 5.2 0 1 0 -10.4 0zM1695.12 1126.63 a5.2 5.2 0 1 0 10.4 0 a5.2 5.2 0 1 0 -10.4 0zM1740.15 1152.63 a5.2 5.2 0 1 0 10.4 0 a5.2 5.2 0 1 0 -10.4 0zM1740.15 1204.63 a5.2 5.2 0 1 0 10.4 0 a5.2 5.2 0 1 0 -10.4 0zM1695.12 1230.63 a5.2 5.2 0 1 0 10.4 0 a5.2 5.2 0 1 0 -10.4 0zM1785.19 34.63 a5.2 5.2 0 1 0 10.4 0 a5.2 5.2 0 1 0 -10.4 0zM1830.22 60.63 a5.2 5.2 0 1 0 10.4 0 a5.2 5.2 0 1 0 -10.4 0zM1830.22 112.63 a5.2 5.2 0 1 0 10.4 0 a5.2 5.2 0 1 0 -10.4 0zM1785.19 138.63 a5.2 5.2 0 1 0 10.4 0 a5.2 5.2 0 1 0 -10.4 0zM1740.15 112.63 a5.2 5.2 0 1 0 10.4 0 a5.2 5.2 0 1 0 -10.4 0zM1740.15 60.63 a5.2 5.2 0 1 0 10.4 0 a5.2 5.2 0 1 0 -10.4 0zM1785.19 190.63 a5.2 5.2 0 1 0 10.4 0 a5.2 5.2 0 1 0 -10.4 0zM1830.22 216.63 a5.2 5.2 0 1 0 10.4 0 a5.2 5.2 0 1 0 -10.4 0zM1830.22 268.63 a5.2 5.2 0 1 0 10.4 0 a5.2 5.2 0 1 0 -10.4 0zM1785.19 294.63 a5.2 5.2 0 1 0 10.4 0 a5.2 5.2 0 1 0 -10.4 0zM1785.19 502.63 a5.2 5.2 0 1 0 10.4 0 a5.2 5.2 0 1 0 -10.4 0zM1830.22 528.63 a5.2 5.2 0 1 0 10.4 0 a5.2 5.2 0 1 0 -10.4 0zM1830.22 580.63 a5.2 5.2 0 1 0 10.4 0 a5.2 5.2 0 1 0 -10.4 0zM1785.19 606.63 a5.2 5.2 0 1 0 10.4 0 a5.2 5.2 0 1 0 -10.4 0zM1740.15 580.63 a5.2 5.2 0 1 0 10.4 0 a5.2 5.2 0 1 0 -10.4 0zM1740.15 528.63 a5.2 5.2 0 1 0 10.4 0 a5.2 5.2 0 1 0 -10.4 0zM1785.19 814.63 a5.2 5.2 0 1 0 10.4 0 a5.2 5.2 0 1 0 -10.4 0zM1830.22 840.63 a5.2 5.2 0 1 0 10.4 0 a5.2 5.2 0 1 0 -10.4 0zM1830.22 892.63 a5.2 5.2 0 1 0 10.4 0 a5.2 5.2 0 1 0 -10.4 0zM1785.19 918.63 a5.2 5.2 0 1 0 10.4 0 a5.2 5.2 0 1 0 -10.4 0zM1785.19 970.63 a5.2 5.2 0 1 0 10.4 0 a5.2 5.2 0 1 0 -10.4 0zM1830.22 996.63 a5.2 5.2 0 1 0 10.4 0 a5.2 5.2 0 1 0 -10.4 0zM1830.22 1048.63 a5.2 5.2 0 1 0 10.4 0 a5.2 5.2 0 1 0 -10.4 0zM1785.19 1074.63 a5.2 5.2 0 1 0 10.4 0 a5.2 5.2 0 1 0 -10.4 0zM1875.26 138.63 a5.2 5.2 0 1 0 10.4 0 a5.2 5.2 0 1 0 -10.4 0zM1875.26 190.63 a5.2 5.2 0 1 0 10.4 0 a5.2 5.2 0 1 0 -10.4 0zM1920.29 216.63 a5.2 5.2 0 1 0 10.4 0 a5.2 5.2 0 1 0 -10.4 0zM1920.29 268.63 a5.2 5.2 0 1 0 10.4 0 a5.2 5.2 0 1 0 -10.4 0zM1875.26 294.63 a5.2 5.2 0 1 0 10.4 0 a5.2 5.2 0 1 0 -10.4 0zM1830.22 424.63 a5.2 5.2 0 1 0 10.4 0 a5.2 5.2 0 1 0 -10.4 0zM1875.26 450.63 a5.2 5.2 0 1 0 10.4 0 a5.2 5.2 0 1 0 -10.4 0zM1875.26 502.63 a5.2 5.2 0 1 0 10.4 0 a5.2 5.2 0 1 0 -10.4 0zM1785.19 450.63 a5.2 5.2 0 1 0 10.4 0 a5.2 5.2 0 1 0 -10.4 0zM1920.29 528.63 a5.2 5.2 0 1 0 10.4 0 a5.2 5.2 0 1 0 -10.4 0zM1920.29 580.63 a5.2 5.2 0 1 0 10.4 0 a5.2 5.2 0 1 0 -10.4 0zM1875.26 606.63 a5.2 5.2 0 1 0 10.4 0 a5.2 5.2 0 1 0 -10.4 0zM1875.26 814.63 a5.2 5.2 0 1 0 10.4 0 a5.2 5.2 0 1 0 -10.4 0zM1920.29 840.63 a5.2 5.2 0 1 0 10.4 0 a5.2 5.2 0 1 0 -10.4 0zM1920.29 892.63 a5.2 5.2 0 1 0 10.4 0 a5.2 5.2 0 1 0 -10.4 0zM1875.26 918.63 a5.2 5.2 0 1 0 10.4 0 a5.2 5.2 0 1 0 -10.4 0zM1875.26 970.63 a5.2 5.2 0 1 0 10.4 0 a5.2 5.2 0 1 0 -10.4 0zM1875.26 1074.63 a5.2 5.2 0 1 0 10.4 0 a5.2 5.2 0 1 0 -10.4 0zM1875.26 1126.63 a5.2 5.2 0 1 0 10.4 0 a5.2 5.2 0 1 0 -10.4 0zM1830.22 1152.63 a5.2 5.2 0 1 0 10.4 0 a5.2 5.2 0 1 0 -10.4 0zM1785.19 1126.63 a5.2 5.2 0 1 0 10.4 0 a5.2 5.2 0 1 0 -10.4 0zM1920.29 1152.63 a5.2 5.2 0 1 0 10.4 0 a5.2 5.2 0 1 0 -10.4 0zM1920.29 1204.63 a5.2 5.2 0 1 0 10.4 0 a5.2 5.2 0 1 0 -10.4 0zM1875.26 1230.63 a5.2 5.2 0 1 0 10.4 0 a5.2 5.2 0 1 0 -10.4 0zM1830.22 1204.63 a5.2 5.2 0 1 0 10.4 0 a5.2 5.2 0 1 0 -10.4 0zM1965.33 190.63 a5.2 5.2 0 1 0 10.4 0 a5.2 5.2 0 1 0 -10.4 0zM2010.36 216.63 a5.2 5.2 0 1 0 10.4 0 a5.2 5.2 0 1 0 -10.4 0zM2010.36 268.63 a5.2 5.2 0 1 0 10.4 0 a5.2 5.2 0 1 0 -10.4 0zM1965.33 294.63 a5.2 5.2 0 1 0 10.4 0 a5.2 5.2 0 1 0 -10.4 0zM1965.33 346.63 a5.2 5.2 0 1 0 10.4 0 a5.2 5.2 0 1 0 -10.4 0zM2010.36 372.63 a5.2 5.2 0 1 0 10.4 0 a5.2 5.2 0 1 0 -10.4 0zM2010.36 424.63 a5.2 5.2 0 1 0 10.4 0 a5.2 5.2 0 1 0 -10.4 0zM1965.33 450.63 a5.2 5.2 0 1 0 10.4 0 a5.2 5.2 0 1 0 -10.4 0zM1920.29 424.63 a5.2 5.2 0 1 0 10.4 0 a5.2 5.2 0 1 0 -10.4 0zM1920.29 372.63 a5.2 5.2 0 1 0 10.4 0 a5.2 5.2 0 1 0 -10.4 0zM1965.33 502.63 a5.2 5.2 0 1 0 10.4 0 a5.2 5.2 0 1 0 -10.4 0zM2010.36 528.63 a5.2 5.2 0 1 0 10.4 0 a5.2 5.2 0 1 0 -10.4 0zM2010.36 580.63 a5.2 5.2 0 1 0 10.4 0 a5.2 5.2 0 1 0 -10.4 0zM1965.33 606.63 a5.2 5.2 0 1 0 10.4 0 a5.2 5.2 0 1 0 -10.4 0zM1920.29 736.63 a5.2 5.2 0 1 0 10.4 0 a5.2 5.2 0 1 0 -10.4 0zM1965.33 762.63 a5.2 5.2 0 1 0 10.4 0 a5.2 5.2 0 1 0 -10.4 0zM1965.33 814.63 a5.2 5.2 0 1 0 10.4 0 a5.2 5.2 0 1 0 -10.4 0zM1875.26 762.63 a5.2 5.2 0 1 0 10.4 0 a5.2 5.2 0 1 0 -10.4 0zM2010.36 840.63 a5.2 5.2 0 1 0 10.4 0 a5.2 5.2 0 1 0 -10.4 0zM2010.36 892.63 a5.2 5.2 0 1 0 10.4 0 a5.2 5.2 0 1 0 -10.4 0zM1965.33 918.63 a5.2 5.2 0 1 0 10.4 0 a5.2 5.2 0 1 0 -10.4 0zM1965.33 970.63 a5.2 5.2 0 1 0 10.4 0 a5.2 5.2 0 1 0 -10.4 0zM2010.36 996.63 a5.2 5.2 0 1 0 10.4 0 a5.2 5.2 0 1 0 -10.4 0zM2010.36 1048.63 a5.2 5.2 0 1 0 10.4 0 a5.2 5.2 0 1 0 -10.4 0zM1965.33 1074.63 a5.2 5.2 0 1 0 10.4 0 a5.2 5.2 0 1 0 -10.4 0zM1920.29 1048.63 a5.2 5.2 0 1 0 10.4 0 a5.2 5.2 0 1 0 -10.4 0zM1920.29 996.63 a5.2 5.2 0 1 0 10.4 0 a5.2 5.2 0 1 0 -10.4 0zM1965.33 1126.63 a5.2 5.2 0 1 0 10.4 0 a5.2 5.2 0 1 0 -10.4 0zM2010.36 1152.63 a5.2 5.2 0 1 0 10.4 0 a5.2 5.2 0 1 0 -10.4 0zM2010.36 1204.63 a5.2 5.2 0 1 0 10.4 0 a5.2 5.2 0 1 0 -10.4 0zM1965.33 1230.63 a5.2 5.2 0 1 0 10.4 0 a5.2 5.2 0 1 0 -10.4 0z" fill="url(&quot;#SvgjsRadialGradient4326&quot;)"></path><path d="M43.93 179.66L120.14 223.66L120.14 311.66L43.93 355.66L-32.28 311.66L-32.28 223.66zM120.14 311.66L196.35 355.66L196.35 443.66L120.14 487.66L43.93 443.66L43.93 355.66zM120.14 575.66L196.35 619.66L196.35 707.66L120.14 751.66L43.93 707.66L43.93 619.66zM43.93 707.66L120.14 751.66L120.14 839.66L43.93 883.66L-32.28 839.66L-32.28 751.66zM120.14 839.66L196.35 883.66L196.35 971.66L120.14 1015.66L43.93 971.66L43.93 883.66zM120.14 1103.66L196.35 1147.66L196.35 1235.66L120.14 1279.66L43.93 1235.66L43.93 1147.66zM196.35 -84.34L272.57 -40.34L272.57 47.66L196.35 91.66L120.14 47.66L120.14 -40.34zM272.57 47.66L348.78 91.66L348.78 179.66L272.57 223.66L196.35 179.66L196.35 91.66zM196.35 179.66L272.57 223.66L272.57 311.66L196.35 355.66L120.14 311.66L120.14 223.66zM272.57 311.66L348.78 355.66L348.78 443.66L272.57 487.66L196.35 443.66L196.35 355.66zM196.35 707.66L272.57 751.66L272.57 839.66L196.35 883.66L120.14 839.66L120.14 751.66zM196.35 971.66L272.57 1015.66L272.57 1103.66L196.35 1147.66L120.14 1103.66L120.14 1015.66zM348.78 179.66L424.99 223.66L424.99 311.66L348.78 355.66L272.57 311.66L272.57 223.66zM424.99 311.66L501.2 355.66L501.2 443.66L424.99 487.66L348.78 443.66L348.78 355.66zM348.78 707.66L424.99 751.66L424.99 839.66L348.78 883.66L272.57 839.66L272.57 751.66zM424.99 839.66L501.2 883.66L501.2 971.66L424.99 1015.66L348.78 971.66L348.78 883.66zM348.78 971.66L424.99 1015.66L424.99 1103.66L348.78 1147.66L272.57 1103.66L272.57 1015.66zM424.99 1103.66L501.2 1147.66L501.2 1235.66L424.99 1279.66L348.78 1235.66L348.78 1147.66zM501.2 -84.34L577.42 -40.34L577.42 47.66L501.2 91.66L424.99 47.66L424.99 -40.34zM501.2 179.66L577.42 223.66L577.42 311.66L501.2 355.66L424.99 311.66L424.99 223.66zM501.2 443.66L577.42 487.66L577.42 575.66L501.2 619.66L424.99 575.66L424.99 487.66zM577.42 575.66L653.63 619.66L653.63 707.66L577.42 751.66L501.2 707.66L501.2 619.66zM577.42 1103.66L653.63 1147.66L653.63 1235.66L577.42 1279.66L501.2 1235.66L501.2 1147.66zM653.63 -84.34L729.84 -40.34L729.84 47.66L653.63 91.66L577.42 47.66L577.42 -40.34zM729.84 311.66L806.05 355.66L806.05 443.66L729.84 487.66L653.63 443.66L653.63 355.66zM653.63 707.66L729.84 751.66L729.84 839.66L653.63 883.66L577.42 839.66L577.42 751.66zM806.05 -84.34L882.27 -40.34L882.27 47.66L806.05 91.66L729.84 47.66L729.84 -40.34zM806.05 179.66L882.27 223.66L882.27 311.66L806.05 355.66L729.84 311.66L729.84 223.66zM806.05 443.66L882.27 487.66L882.27 575.66L806.05 619.66L729.84 575.66L729.84 487.66zM806.05 707.66L882.27 751.66L882.27 839.66L806.05 883.66L729.84 839.66L729.84 751.66zM882.27 839.66L958.48 883.66L958.48 971.66L882.27 1015.66L806.05 971.66L806.05 883.66zM882.27 1103.66L958.48 1147.66L958.48 1235.66L882.27 1279.66L806.05 1235.66L806.05 1147.66zM958.48 -84.34L1034.69 -40.34L1034.69 47.66L958.48 91.66L882.27 47.66L882.27 -40.34zM958.48 179.66L1034.69 223.66L1034.69 311.66L958.48 355.66L882.27 311.66L882.27 223.66zM1110.9 179.66L1187.12 223.66L1187.12 311.66L1110.9 355.66L1034.69 311.66L1034.69 223.66zM1187.12 311.66L1263.33 355.66L1263.33 443.66L1187.12 487.66L1110.9 443.66L1110.9 355.66zM1110.9 707.66L1187.12 751.66L1187.12 839.66L1110.9 883.66L1034.69 839.66L1034.69 751.66zM1339.54 839.66L1415.75 883.66L1415.75 971.66L1339.54 1015.66L1263.33 971.66L1263.33 883.66zM1415.75 -84.34L1491.97 -40.34L1491.97 47.66L1415.75 91.66L1339.54 47.66L1339.54 -40.34zM1491.97 47.66L1568.18 91.66L1568.18 179.66L1491.97 223.66L1415.75 179.66L1415.75 91.66zM1415.75 179.66L1491.97 223.66L1491.97 311.66L1415.75 355.66L1339.54 311.66L1339.54 223.66zM1491.97 311.66L1568.18 355.66L1568.18 443.66L1491.97 487.66L1415.75 443.66L1415.75 355.66zM1415.75 443.66L1491.97 487.66L1491.97 575.66L1415.75 619.66L1339.54 575.66L1339.54 487.66zM1491.97 575.66L1568.18 619.66L1568.18 707.66L1491.97 751.66L1415.75 707.66L1415.75 619.66zM1415.75 707.66L1491.97 751.66L1491.97 839.66L1415.75 883.66L1339.54 839.66L1339.54 751.66zM1491.97 839.66L1568.18 883.66L1568.18 971.66L1491.97 1015.66L1415.75 971.66L1415.75 883.66zM1415.75 971.66L1491.97 1015.66L1491.97 1103.66L1415.75 1147.66L1339.54 1103.66L1339.54 1015.66zM1644.39 47.66L1720.6 91.66L1720.6 179.66L1644.39 223.66L1568.18 179.66L1568.18 91.66zM1568.18 179.66L1644.39 223.66L1644.39 311.66L1568.18 355.66L1491.97 311.66L1491.97 223.66zM1644.39 311.66L1720.6 355.66L1720.6 443.66L1644.39 487.66L1568.18 443.66L1568.18 355.66zM1568.18 443.66L1644.39 487.66L1644.39 575.66L1568.18 619.66L1491.97 575.66L1491.97 487.66zM1644.39 575.66L1720.6 619.66L1720.6 707.66L1644.39 751.66L1568.18 707.66L1568.18 619.66zM1568.18 707.66L1644.39 751.66L1644.39 839.66L1568.18 883.66L1491.97 839.66L1491.97 751.66zM1644.39 839.66L1720.6 883.66L1720.6 971.66L1644.39 1015.66L1568.18 971.66L1568.18 883.66zM1568.18 971.66L1644.39 1015.66L1644.39 1103.66L1568.18 1147.66L1491.97 1103.66L1491.97 1015.66zM1644.39 1103.66L1720.6 1147.66L1720.6 1235.66L1644.39 1279.66L1568.18 1235.66L1568.18 1147.66zM1720.6 179.66L1796.82 223.66L1796.82 311.66L1720.6 355.66L1644.39 311.66L1644.39 223.66zM1720.6 443.66L1796.82 487.66L1796.82 575.66L1720.6 619.66L1644.39 575.66L1644.39 487.66zM1720.6 707.66L1796.82 751.66L1796.82 839.66L1720.6 883.66L1644.39 839.66L1644.39 751.66zM1796.82 839.66L1873.03 883.66L1873.03 971.66L1796.82 1015.66L1720.6 971.66L1720.6 883.66zM1796.82 1103.66L1873.03 1147.66L1873.03 1235.66L1796.82 1279.66L1720.6 1235.66L1720.6 1147.66zM1949.24 47.66L2025.45 91.66L2025.45 179.66L1949.24 223.66L1873.03 179.66L1873.03 91.66zM1873.03 179.66L1949.24 223.66L1949.24 311.66L1873.03 355.66L1796.82 311.66L1796.82 223.66zM1949.24 311.66L2025.45 355.66L2025.45 443.66L1949.24 487.66L1873.03 443.66L1873.03 355.66zM1873.03 443.66L1949.24 487.66L1949.24 575.66L1873.03 619.66L1796.82 575.66L1796.82 487.66zM1873.03 971.66L1949.24 1015.66L1949.24 1103.66L1873.03 1147.66L1796.82 1103.66L1796.82 1015.66zM1949.24 1103.66L2025.45 1147.66L2025.45 1235.66L1949.24 1279.66L1873.03 1235.66L1873.03 1147.66z" stroke="url(&quot;#SvgjsRadialGradient4327&quot;)" stroke-width="2"></path></g><defs><mask id="SvgjsMask4325"><rect width="1920" height="1200" fill="#ffffff"></rect></mask><radialGradient cx="1920" cy="600" r="2011.57" gradientUnits="userSpaceOnUse" id="SvgjsRadialGradient4326"><stop stop-color="rgba(172, 213, 255, 0.38)" offset="0"></stop><stop stop-color="rgba(188, 214, 240, 0.3)" offset="0.27"></stop><stop stop-color="rgba(255, 255, 255, 0)" offset="1"></stop></radialGradient><radialGradient cx="1920" cy="600" r="2011.57" gradientUnits="userSpaceOnUse" id="SvgjsRadialGradient4327"><stop stop-color="#0e2a47" offset="0"></stop><stop stop-color="rgba(190, 214, 241, 0.39)" offset="0.56"></stop><stop stop-color="rgba(255, 255, 255, 0)" offset="1"></stop></radialGradient></defs></svg>